  0
SECTION
  2
HEADER
  9
$ACADVER
  1
AC1027
  9
$ACADMAINTVER
 70
   105
  9
$DWGCODEPAGE
  3
ANSI_1252
  9
$REQUIREDVERSIONS
160
                 0
  9
$INSBASE
 10
0.0
 20
0.0
 30
0.0
  9
$EXTMIN
 10
1.000000000000000E+20
 20
1.000000000000000E+20
 30
1.000000000000000E+20
  9
$EXTMAX
 10
-1.000000000000000E+20
 20
-1.000000000000000E+20
 30
-1.000000000000000E+20
  9
$LIMMIN
 10
0.0
 20
0.0
  9
$LIMMAX
 10
12.0
 20
9.0
  9
$ORTHOMODE
 70
     0
  9
$REGENMODE
 70
     1
  9
$FILLMODE
 70
     1
  9
$QTEXTMODE
 70
     0
  9
$MIRRTEXT
 70
     1
  9
$LTSCALE
 40
1.0
  9
$ATTMODE
 70
     1
  9
$TEXTSIZE
 40
0.2
  9
$TRACEWID
 40
0.05
  9
$TEXTSTYLE
  7
Standard
  9
$CLAYER
  8
CutSecond
  9
$CELTYPE
  6
ByLayer
  9
$CECOLOR
 62
    18
  9
$CELTSCALE
 40
1.0
  9
$DISPSILH
 70
     0
  9
$DIMSCALE
 40
1.0
  9
$DIMASZ
 40
2.5
  9
$DIMEXO
 40
0.625
  9
$DIMDLI
 40
0.38
  9
$DIMRND
 40
0.0
  9
$DIMDLE
 40
0.0
  9
$DIMEXE
 40
1.25
  9
$DIMTP
 40
0.0
  9
$DIMTM
 40
0.0
  9
$DIMTXT
 40
2.5
  9
$DIMCEN
 40
0.09
  9
$DIMTSZ
 40
0.0
  9
$DIMTOL
 70
     0
  9
$DIMLIM
 70
     0
  9
$DIMTIH
 70
     1
  9
$DIMTOH
 70
     1
  9
$DIMSE1
 70
     0
  9
$DIMSE2
 70
     0
  9
$DIMTAD
 70
     0
  9
$DIMZIN
 70
     8
  9
$DIMBLK
  1

  9
$DIMASO
 70
     1
  9
$DIMSHO
 70
     1
  9
$DIMPOST
  1

  9
$DIMAPOST
  1

  9
$DIMALT
 70
     0
  9
$DIMALTD
 70
     2
  9
$DIMALTF
 40
25.4
  9
$DIMLFAC
 40
1.0
  9
$DIMTOFL
 70
     0
  9
$DIMTVP
 40
0.0
  9
$DIMTIX
 70
     0
  9
$DIMSOXD
 70
     0
  9
$DIMSAH
 70
     0
  9
$DIMBLK1
  1

  9
$DIMBLK2
  1

  9
$DIMSTYLE
  2
Standard
  9
$DIMCLRD
 70
    18
  9
$DIMCLRE
 70
    18
  9
$DIMCLRT
 70
    18
  9
$DIMTFAC
 40
1.0
  9
$DIMGAP
 40
0.625
  9
$DIMJUST
 70
     0
  9
$DIMSD1
 70
     0
  9
$DIMSD2
 70
     0
  9
$DIMTOLJ
 70
     1
  9
$DIMTZIN
 70
     0
  9
$DIMALTZ
 70
     0
  9
$DIMALTTZ
 70
     0
  9
$DIMUPT
 70
     0
  9
$DIMDEC
 70
     4
  9
$DIMTDEC
 70
     4
  9
$DIMALTU
 70
     2
  9
$DIMALTTD
 70
     2
  9
$DIMTXSTY
  7
Standard
  9
$DIMAUNIT
 70
     0
  9
$DIMADEC
 70
     0
  9
$DIMALTRND
 40
0.0
  9
$DIMAZIN
 70
     2
  9
$DIMDSEP
 70
    46
  9
$DIMATFIT
 70
     3
  9
$DIMFRAC
 70
     0
  9
$DIMLDRBLK
  1

  9
$DIMLUNIT
 70
     2
  9
$DIMLWD
 70
    -2
  9
$DIMLWE
 70
    -2
  9
$DIMTMOVE
 70
     0
  9
$DIMFXL
 40
1.0
  9
$DIMFXLON
 70
     0
  9
$DIMJOGANG
 40
0.7853981633974483
  9
$DIMTFILL
 70
     0
  9
$DIMTFILLCLR
 70
     0
  9
$DIMARCSYM
 70
     0
  9
$DIMLTYPE
  6

  9
$DIMLTEX1
  6

  9
$DIMLTEX2
  6

  9
$DIMTXTDIRECTION
 70
     0
  9
$LUNITS
 70
     2
  9
$LUPREC
 70
     4
  9
$SKETCHINC
 40
0.1
  9
$FILLETRAD
 40
0.5
  9
$AUNITS
 70
     0
  9
$AUPREC
 70
     0
  9
$MENU
  1
.
  9
$ELEVATION
 40
0.0
  9
$PELEVATION
 40
0.0
  9
$THICKNESS
 40
0.0
  9
$LIMCHECK
 70
     0
  9
$CHAMFERA
 40
0.0
  9
$CHAMFERB
 40
0.0
  9
$CHAMFERC
 40
0.0
  9
$CHAMFERD
 40
0.0
  9
$SKPOLY
 70
     0
  9
$TDCREATE
 40
2459691.682850428
  9
$TDUCREATE
 40
2459691.599517095
  9
$TDUPDATE
 40
2459691.682850637
  9
$TDUUPDATE
 40
2459691.599517303
  9
$TDINDWG
 40
0.0000000116
  9
$TDUSRTIMER
 40
0.0000000116
  9
$USRTIMER
 70
     1
  9
$ANGBASE
 50
0.0
  9
$ANGDIR
 70
     0
  9
$PDMODE
 70
     0
  9
$PDSIZE
 40
0.0
  9
$PLINEWID
 40
0.0
  9
$SPLFRAME
 70
     0
  9
$SPLINETYPE
 70
     6
  9
$SPLINESEGS
 70
     8
  9
$HANDSEED
  5
48B
  9
$SURFTAB1
 70
     6
  9
$SURFTAB2
 70
     6
  9
$SURFTYPE
 70
     6
  9
$SURFU
 70
     6
  9
$SURFV
 70
     6
  9
$UCSBASE
  2

  9
$UCSNAME
  2

  9
$UCSORG
 10
0.0
 20
0.0
 30
0.0
  9
$UCSXDIR
 10
1.0
 20
0.0
 30
0.0
  9
$UCSYDIR
 10
0.0
 20
1.0
 30
0.0
  9
$UCSORTHOREF
  2

  9
$UCSORTHOVIEW
 70
     0
  9
$UCSORGTOP
 10
0.0
 20
0.0
 30
0.0
  9
$UCSORGBOTTOM
 10
0.0
 20
0.0
 30
0.0
  9
$UCSORGLEFT
 10
0.0
 20
0.0
 30
0.0
  9
$UCSORGRIGHT
 10
0.0
 20
0.0
 30
0.0
  9
$UCSORGFRONT
 10
0.0
 20
0.0
 30
0.0
  9
$UCSORGBACK
 10
0.0
 20
0.0
 30
0.0
  9
$PUCSBASE
  2

  9
$PUCSNAME
  2

  9
$PUCSORG
 10
0.0
 20
0.0
 30
0.0
  9
$PUCSXDIR
 10
1.0
 20
0.0
 30
0.0
  9
$PUCSYDIR
 10
0.0
 20
1.0
 30
0.0
  9
$PUCSORTHOREF
  2

  9
$PUCSORTHOVIEW
 70
     0
  9
$PUCSORGTOP
 10
0.0
 20
0.0
 30
0.0
  9
$PUCSORGBOTTOM
 10
0.0
 20
0.0
 30
0.0
  9
$PUCSORGLEFT
 10
0.0
 20
0.0
 30
0.0
  9
$PUCSORGRIGHT
 10
0.0
 20
0.0
 30
0.0
  9
$PUCSORGFRONT
 10
0.0
 20
0.0
 30
0.0
  9
$PUCSORGBACK
 10
0.0
 20
0.0
 30
0.0
  9
$USERI1
 70
     0
  9
$USERI2
 70
     0
  9
$USERI3
 70
     0
  9
$USERI4
 70
     0
  9
$USERI5
 70
     0
  9
$USERR1
 40
0.0
  9
$USERR2
 40
0.0
  9
$USERR3
 40
0.0
  9
$USERR4
 40
0.0
  9
$USERR5
 40
0.0
  9
$WORLDVIEW
 70
     1
  9
$SHADEDGE
 70
     3
  9
$SHADEDIF
 70
    70
  9
$TILEMODE
 70
     1
  9
$MAXACTVP
 70
    64
  9
$PINSBASE
 10
0.0
 20
0.0
 30
0.0
  9
$PLIMCHECK
 70
     0
  9
$PEXTMIN
 10
0.0
 20
0.0
 30
0.0
  9
$PEXTMAX
 10
0.0
 20
0.0
 30
0.0
  9
$PLIMMIN
 10
-20.0
 20
-7.5
  9
$PLIMMAX
 10
277.0
 20
202.5
  9
$UNITMODE
 70
     0
  9
$VISRETAIN
 70
     1
  9
$PLINEGEN
 70
     0
  9
$PSLTSCALE
 70
     1
  9
$TREEDEPTH
 70
  3020
  9
$CMLSTYLE
  2
Standard
  9
$CMLJUST
 70
     0
  9
$CMLSCALE
 40
1.0
  9
$PROXYGRAPHICS
 70
     1
  9
$MEASUREMENT
 70
     1
  9
$CELWEIGHT
370
    -1
  9
$ENDCAPS
280
     0
  9
$JOINSTYLE
280
     0
  9
$LWDISPLAY
290
     0
  9
$INSUNITS
 70
     4
  9
$HYPERLINKBASE
  1

  9
$STYLESHEET
  1

  9
$XEDIT
290
     1
  9
$CEPSNTYPE
380
     0
  9
$PSTYLEMODE
290
     1
  9
$FINGERPRINTGUID
  2
{f8e03ac3-10e7-4ef0-b170-a4b879d7a72d}
  9
$VERSIONGUID
  2
{FAEB1C32-E019-11D5-929B-00C0DF256EC4}
  9
$EXTNAMES
290
     1
  9
$PSVPSCALE
 40
0.0
  9
$OLESTARTUP
290
     0
  9
$SORTENTS
280
   127
  9
$INDEXCTL
280
     0
  9
$HIDETEXT
280
     1
  9
$XCLIPFRAME
280
     2
  9
$HALOGAP
280
     0
  9
$OBSCOLOR
 70
   257
  9
$OBSLTYPE
280
     0
  9
$INTERSECTIONDISPLAY
280
     0
  9
$INTERSECTIONCOLOR
 70
   257
  9
$DIMASSOC
280
     2
  9
$PROJECTNAME
  1

  9
$CAMERADISPLAY
290
     0
  9
$LENSLENGTH
 40
50.0
  9
$CAMERAHEIGHT
 40
0.0
  9
$STEPSPERSEC
 40
2.0
  9
$STEPSIZE
 40
6.0
  9
$3DDWFPREC
 40
2.0
  9
$PSOLWIDTH
 40
0.25
  9
$PSOLHEIGHT
 40
4.0
  9
$LOFTANG1
 40
1.570796326794897
  9
$LOFTANG2
 40
1.570796326794897
  9
$LOFTMAG1
 40
0.0
  9
$LOFTMAG2
 40
0.0
  9
$LOFTPARAM
 70
     7
  9
$LOFTNORMALS
280
     1
  9
$LATITUDE
 40
37.795
  9
$LONGITUDE
 40
-122.394
  9
$NORTHDIRECTION
 40
0.0
  9
$TIMEZONE
 70
 -8000
  9
$LIGHTGLYPHDISPLAY
280
     1
  9
$TILEMODELIGHTSYNCH
280
     1
  9
$CMATERIAL
347
3E2
  9
$SOLIDHIST
280
     0
  9
$SHOWHIST
280
     1
  9
$DWFFRAME
280
     2
  9
$DGNFRAME
280
     2
  9
$REALWORLDSCALE
290
     1
  9
$INTERFERECOLOR
 62
   256
  9
$CSHADOW
280
     0
  9
$SHADOWPLANELOCATION
 40
0.0
  0
ENDSEC
  0
SECTION
  2
CLASSES
  0
CLASS
  1
ACDBDICTIONARYWDFLT
  2
AcDbDictionaryWithDefault
  3
ObjectDBX Classes
 90
        0
 91
        3
280
     0
281
     0
  0
CLASS
  1
VISUALSTYLE
  2
AcDbVisualStyle
  3
ObjectDBX Classes
 90
     4095
 91
        3
280
     0
281
     0
  0
CLASS
  1
MATERIAL
  2
AcDbMaterial
  3
ObjectDBX Classes
 90
     1153
 91
        3
280
     0
281
     0
  0
CLASS
  1
SCALE
  2
AcDbScale
  3
ObjectDBX Classes
 90
     1153
 91
        3
280
     0
281
     0
  0
CLASS
  1
TABLESTYLE
  2
AcDbTableStyle
  3
ObjectDBX Classes
 90
     4095
 91
        3
280
     0
281
     0
  0
CLASS
  1
MLEADERSTYLE
  2
AcDbMLeaderStyle
  3
ACDB_MLEADERSTYLE_CLASS
 90
     4095
 91
        3
280
     0
281
     0
  0
CLASS
  1
SUN
  2
AcDbSun
  3
SCENEOE
 90
     1153
 91
        3
280
     0
281
     0
  0
CLASS
  1
DICTIONARYVAR
  2
AcDbDictionaryVar
  3
ObjectDBX Classes
 90
        0
 91
        3
280
     0
281
     0
  0
CLASS
  1
CELLSTYLEMAP
  2
AcDbCellStyleMap
  3
ObjectDBX Classes
 90
     1152
 91
        3
280
     0
281
     0
  0
ENDSEC
  0
SECTION
  2
TABLES
  0
TABLE
  2
VPORT
  5
3A7
330
0
100
AcDbSymbolTable
 70
     1
  0
VPORT
  5
3C7
330
3A7
100
AcDbSymbolTableRecord
100
AcDbViewportTableRecord
  2
*Active
 70
     0
 10
0.0
 20
0.0
 11
1.0
 21
1.0
 12
-89.02983536308005
 22
31.53495325859404
 13
0.0
 23
0.0
 14
0.5
 24
0.5
 15
0.5
 25
0.5
 16
0.0
 26
0.0
 36
1.0
 17
0.0
 27
0.0
 37
0.0
 40
306.9994322864825
 41
2.010416666666667
 42
50.0
 43
0.0
 44
0.0
 50
0.0
 51
0.0
 71
     0
 72
   100
 73
     1
 74
     3
 75
     0
 76
     0
 77
     0
 78
     0
281
     0
 65
     1
110
0.0
120
0.0
130
0.0
111
1.0
121
0.0
131
0.0
112
0.0
122
1.0
132
0.0
 79
     0
146
0.0
348
3CD
 60
     3
 61
     5
292
     1
282
     1
141
0.0
142
0.0
 63
   250
361
40B
  0
ENDTAB
  0
TABLE
  2
LTYPE
  5
3A4
330
0
100
AcDbSymbolTable
 70
    48
  0
LTYPE
  5
3B2
330
3A4
100
AcDbSymbolTableRecord
100
AcDbLinetypeTableRecord
  2
ByBlock
 70
     0
  3

 72
    65
 73
     0
 40
0.0
  0
LTYPE
  5
3B3
330
3A4
100
AcDbSymbolTableRecord
100
AcDbLinetypeTableRecord
  2
ByLayer
 70
     0
  3

 72
    65
 73
     0
 40
0.0
  0
LTYPE
  5
3B4
330
3A4
100
AcDbSymbolTableRecord
100
AcDbLinetypeTableRecord
  2
Continuous
 70
     0
  3
Solid line
 72
    65
 73
     0
 40
0.0
  0
LTYPE
  5
442
330
3A4
100
AcDbSymbolTableRecord
100
AcDbLinetypeTableRecord
  2
ACAD_ISO13W100
 70
     0
  3
ISO double-dash double-dot __ __ . . __ __ . . _
 72
    65
 73
     8
 40
36.0
 49
12.0
 74
     0
 49
-3.0
 74
     0
 49
12.0
 74
     0
 49
-3.0
 74
     0
 49
0.0
 74
     0
 49
-3.0
 74
     0
 49
0.0
 74
     0
 49
-3.0
 74
     0
  0
LTYPE
  5
443
330
3A4
100
AcDbSymbolTableRecord
100
AcDbLinetypeTableRecord
  2
ACAD_ISO12W100
 70
     0
  3
ISO dash double-dot __ . . __ . . __ . . __ . . 
 72
    65
 73
     6
 40
21.0
 49
12.0
 74
     0
 49
-3.0
 74
     0
 49
0.0
 74
     0
 49
-3.0
 74
     0
 49
0.0
 74
     0
 49
-3.0
 74
     0
  0
LTYPE
  5
444
330
3A4
100
AcDbSymbolTableRecord
100
AcDbLinetypeTableRecord
  2
ACAD_ISO11W100
 70
     0
  3
ISO double-dash dot __ __ . __ __ . __ __ . __ _
 72
    65
 73
     6
 40
33.0
 49
12.0
 74
     0
 49
-3.0
 74
     0
 49
12.0
 74
     0
 49
-3.0
 74
     0
 49
0.0
 74
     0
 49
-3.0
 74
     0
  0
LTYPE
  5
445
330
3A4
100
AcDbSymbolTableRecord
100
AcDbLinetypeTableRecord
  2
ACAD_ISO10W100
 70
     0
  3
ISO dash dot __ . __ . __ . __ . __ . __ . __ . 
 72
    65
 73
     4
 40
18.0
 49
12.0
 74
     0
 49
-3.0
 74
     0
 49
0.0
 74
     0
 49
-3.0
 74
     0
  0
LTYPE
  5
446
330
3A4
100
AcDbSymbolTableRecord
100
AcDbLinetypeTableRecord
  2
BORDER
 70
     0
  3
Border __ __ . __ __ . __ __ . __ __ . __ __ .
 72
    65
 73
     6
 40
44.45
 49
12.7
 74
     0
 49
-6.35
 74
     0
 49
12.7
 74
     0
 49
-6.35
 74
     0
 49
0.0
 74
     0
 49
-6.35
 74
     0
  0
LTYPE
  5
449
330
3A4
100
AcDbSymbolTableRecord
100
AcDbLinetypeTableRecord
  2
BATTING
 70
     0
  3
Batting SSSSSSSSSSSSSSSSSSSSSSSSSSSSSSSSSSSSSSSSSSSSSSS
 72
    65
 73
     4
 40
10.16254
 49
0.00254
 74
     0
 49
-2.54
 74
     2
 75
     0
340
447
 46
2.54
 50
0.0
 44
-2.54
 45
0.0
  9
BAT
 49
-5.08
 74
     2
 75
     0
340
448
 46
2.54
 50
180.0
 44
2.54
 45
0.0
  9
BAT
 49
-2.54
 74
     0
  0
LTYPE
  5
44A
330
3A4
100
AcDbSymbolTableRecord
100
AcDbLinetypeTableRecord
  2
ACAD_ISO15W100
 70
     0
  3
ISO double-dash triple-dot __ __ . . . __ __ . .
 72
    65
 73
    10
 40
39.0
 49
12.0
 74
     0
 49
-3.0
 74
     0
 49
12.0
 74
     0
 49
-3.0
 74
     0
 49
0.0
 74
     0
 49
-3.0
 74
     0
 49
0.0
 74
     0
 49
-3.0
 74
     0
 49
0.0
 74
     0
 49
-3.0
 74
     0
  0
LTYPE
  5
44B
330
3A4
100
AcDbSymbolTableRecord
100
AcDbLinetypeTableRecord
  2
ACAD_ISO14W100
 70
     0
  3
ISO dash triple-dot __ . . . __ . . . __ . . . _
 72
    65
 73
     8
 40
24.0
 49
12.0
 74
     0
 49
-3.0
 74
     0
 49
0.0
 74
     0
 49
-3.0
 74
     0
 49
0.0
 74
     0
 49
-3.0
 74
     0
 49
0.0
 74
     0
 49
-3.0
 74
     0
  0
LTYPE
  5
44C
330
3A4
100
AcDbSymbolTableRecord
100
AcDbLinetypeTableRecord
  2
ACAD_ISO05W100
 70
     0
  3
ISO long-dash double-dot ____ .. ____ .. ____ . 
 72
    65
 73
     6
 40
33.0
 49
24.0
 74
     0
 49
-3.0
 74
     0
 49
0.0
 74
     0
 49
-3.0
 74
     0
 49
0.0
 74
     0
 49
-3.0
 74
     0
  0
LTYPE
  5
44D
330
3A4
100
AcDbSymbolTableRecord
100
AcDbLinetypeTableRecord
  2
ACAD_ISO04W100
 70
     0
  3
ISO long-dash dot ____ . ____ . ____ . ____ . _
 72
    65
 73
     4
 40
30.0
 49
24.0
 74
     0
 49
-3.0
 74
     0
 49
0.0
 74
     0
 49
-3.0
 74
     0
  0
LTYPE
  5
44E
330
3A4
100
AcDbSymbolTableRecord
100
AcDbLinetypeTableRecord
  2
ACAD_ISO03W100
 70
     0
  3
ISO dash space __    __    __    __    __    __
 72
    65
 73
     2
 40
30.0
 49
12.0
 74
     0
 49
-18.0
 74
     0
  0
LTYPE
  5
44F
330
3A4
100
AcDbSymbolTableRecord
100
AcDbLinetypeTableRecord
  2
ACAD_ISO02W100
 70
     0
  3
ISO dash __ __ __ __ __ __ __ __ __ __ __ __ __
 72
    65
 73
     2
 40
15.0
 49
12.0
 74
     0
 49
-3.0
 74
     0
  0
LTYPE
  5
450
330
3A4
100
AcDbSymbolTableRecord
100
AcDbLinetypeTableRecord
  2
ACAD_ISO09W100
 70
     0
  3
ISO long-dash double-short-dash ____ __ __ ____
 72
    65
 73
     6
 40
45.0
 49
24.0
 74
     0
 49
-3.0
 74
     0
 49
6.0
 74
     0
 49
-3.0
 74
     0
 49
6.0
 74
     0
 49
-3.0
 74
     0
  0
LTYPE
  5
451
330
3A4
100
AcDbSymbolTableRecord
100
AcDbLinetypeTableRecord
  2
ACAD_ISO08W100
 70
     0
  3
ISO long-dash short-dash ____ __ ____ __ ____ _
 72
    65
 73
     4
 40
36.0
 49
24.0
 74
     0
 49
-3.0
 74
     0
 49
6.0
 74
     0
 49
-3.0
 74
     0
  0
LTYPE
  5
452
330
3A4
100
AcDbSymbolTableRecord
100
AcDbLinetypeTableRecord
  2
ACAD_ISO07W100
 70
     0
  3
ISO dot . . . . . . . . . . . . . . . . . . . . 
 72
    65
 73
     2
 40
3.0
 49
0.0
 74
     0
 49
-3.0
 74
     0
  0
LTYPE
  5
453
330
3A4
100
AcDbSymbolTableRecord
100
AcDbLinetypeTableRecord
  2
ACAD_ISO06W100
 70
     0
  3
ISO long-dash triple-dot ____ ... ____ ... ____
 72
    65
 73
     8
 40
36.0
 49
24.0
 74
     0
 49
-3.0
 74
     0
 49
0.0
 74
     0
 49
-3.0
 74
     0
 49
0.0
 74
     0
 49
-3.0
 74
     0
 49
0.0
 74
     0
 49
-3.0
 74
     0
  0
LTYPE
  5
454
330
3A4
100
AcDbSymbolTableRecord
100
AcDbLinetypeTableRecord
  2
PHANTOM2
 70
     0
  3
Phantom (.5x) ___ _ _ ___ _ _ ___ _ _ ___ _ _
 72
    65
 73
     6
 40
31.75
 49
15.875
 74
     0
 49
-3.175
 74
     0
 49
3.175
 74
     0
 49
-3.175
 74
     0
 49
3.175
 74
     0
 49
-3.175
 74
     0
  0
LTYPE
  5
455
330
3A4
100
AcDbSymbolTableRecord
100
AcDbLinetypeTableRecord
  2
PHANTOM
 70
     0
  3
Phantom ______  __  __  ______  __  __  ______ 
 72
    65
 73
     6
 40
63.50000000000001
 49
31.75
 74
     0
 49
-6.35
 74
     0
 49
6.35
 74
     0
 49
-6.35
 74
     0
 49
6.35
 74
     0
 49
-6.35
 74
     0
  0
LTYPE
  5
457
330
3A4
100
AcDbSymbolTableRecord
100
AcDbLinetypeTableRecord
  2
HOT_WATER_SUPPLY
 70
     0
  3
Hot water supply ---- HW ---- HW ---- HW ----
 72
    65
 73
     3
 40
22.86
 49
12.7
 74
     0
 49
-5.08
 74
     2
 75
     0
340
456
 46
2.54
 50
0.0
 44
-2.54
 45
-1.27
  9
HW
 49
-5.08
 74
     0
  0
LTYPE
  5
458
330
3A4
100
AcDbSymbolTableRecord
100
AcDbLinetypeTableRecord
  2
HIDDENX2
 70
     0
  3
Hidden (2x) ____ ____ ____ ____ ____ ____ ____ 
 72
    65
 73
     2
 40
19.05
 49
12.7
 74
     0
 49
-6.35
 74
     0
  0
LTYPE
  5
45B
330
3A4
100
AcDbSymbolTableRecord
100
AcDbLinetypeTableRecord
  2
ZIGZAG
 70
     0
  3
Zig zag /\/\/\/\/\/\/\/\/\/\/\/\/\/\/\/\/\/\/\/\/\/\/\/
 72
    65
 73
     4
 40
20.32254
 49
0.00254
 74
     0
 49
-5.08
 74
     2
 75
     0
340
459
 46
5.08
 50
0.0
 44
-5.08
 45
0.0
  9
ZIG
 49
-10.16
 74
     2
 75
     0
340
45A
 46
5.08
 50
180.0
 44
5.08
 45
0.0
  9
ZIG
 49
-5.08
 74
     0
  0
LTYPE
  5
45D
330
3A4
100
AcDbSymbolTableRecord
100
AcDbLinetypeTableRecord
  2
TRACKS
 70
     0
  3
Tracks -|-|-|-|-|-|-|-|-|-|-|-|-|-|-|-|-|-|-|-|-|-|-|-|-
 72
    65
 73
     2
 40
7.62
 49
3.81
 74
     2
 75
     0
340
45C
 46
6.35
 50
0.0
 44
0.0
 45
0.0
  9
TRACK1
 49
3.81
 74
     0
  0
LTYPE
  5
45E
330
3A4
100
AcDbSymbolTableRecord
100
AcDbLinetypeTableRecord
  2
PHANTOMX2
 70
     0
  3
Phantom (2x) ____________    ____    ____   _
 72
    65
 73
     6
 40
127.0
 49
63.5
 74
     0
 49
-12.7
 74
     0
 49
12.7
 74
     0
 49
-12.7
 74
     0
 49
12.7
 74
     0
 49
-12.7
 74
     0
  0
LTYPE
  5
460
330
3A4
100
AcDbSymbolTableRecord
100
AcDbLinetypeTableRecord
  2
FENCELINE1
 70
     0
  3
Fenceline circle ----0-----0----0-----0----0-----0--
 72
    65
 73
     4
 40
36.83
 49
6.35
 74
     0
 49
-2.54
 74
     2
 75
     0
340
45F
 46
2.54
 50
0.0
 44
-2.54
 45
0.0
  9
CIRC1
 49
-2.54
 74
     0
 49
25.4
 74
     0
  0
LTYPE
  5
462
330
3A4
100
AcDbSymbolTableRecord
100
AcDbLinetypeTableRecord
  2
DRAINAGE2
 70
     0
  3
Drainage reversed----<----<----<----
 72
    65
 73
     2
 40
10.16
 49
5.08
 74
     2
 75
     0
340
461
 46
2.54
 50
0.0
 44
0.0
 45
0.0
  9
RIGHT_ARROW
 49
5.08
 74
     0
  0
LTYPE
  5
464
330
3A4
100
AcDbSymbolTableRecord
100
AcDbLinetypeTableRecord
  2
DRAINAGE
 70
     0
  3
Drainage ---->---->---->----
 72
    65
 73
     2
 40
10.16
 49
5.08
 74
     2
 75
     0
340
463
 46
2.54
 50
180.0
 44
0.0
 45
0.0
  9
RIGHT_ARROW
 49
5.08
 74
     0
  0
LTYPE
  5
465
330
3A4
100
AcDbSymbolTableRecord
100
AcDbLinetypeTableRecord
  2
DOTX2
 70
     0
  3
Dot (2x) .  .  .  .  .  .  .  .  .  .  .  .  .  .
 72
    65
 73
     2
 40
12.7
 49
0.0
 74
     0
 49
-12.7
 74
     0
  0
LTYPE
  5
466
330
3A4
100
AcDbSymbolTableRecord
100
AcDbLinetypeTableRecord
  2
HIDDEN2
 70
     0
  3
Hidden (.5x) _ _ _ _ _ _ _ _ _ _ _ _ _ _ _ _ _ 
 72
    65
 73
     2
 40
4.762499999999999
 49
3.175
 74
     0
 49
-1.5875
 74
     0
  0
LTYPE
  5
467
330
3A4
100
AcDbSymbolTableRecord
100
AcDbLinetypeTableRecord
  2
HIDDEN
 70
     0
  3
Hidden __ __ __ __ __ __ __ __ __ __ __ __ __ __
 72
    65
 73
     2
 40
9.524999999999999
 49
6.35
 74
     0
 49
-3.175
 74
     0
  0
LTYPE
  5
469
330
3A4
100
AcDbSymbolTableRecord
100
AcDbLinetypeTableRecord
  2
GAS_LINE
 70
     0
  3
Gas line ----GAS----GAS----GAS----GAS----GAS----GAS--
 72
    65
 73
     3
 40
24.13
 49
12.7
 74
     0
 49
-5.08
 74
     2
 75
     0
340
468
 46
2.54
 50
0.0
 44
-2.54
 45
-1.27
  9
GAS
 49
-6.35
 74
     0
  0
LTYPE
  5
46B
330
3A4
100
AcDbSymbolTableRecord
100
AcDbLinetypeTableRecord
  2
FENCELINE2
 70
     0
  3
Fenceline square ----[]-----[]----[]-----[]----[]---
 72
    65
 73
     4
 40
36.83
 49
6.35
 74
     0
 49
-2.54
 74
     2
 75
     0
340
46A
 46
2.54
 50
0.0
 44
-2.54
 45
0.0
  9
BOX
 49
-2.54
 74
     0
 49
25.4
 74
     0
  0
LTYPE
  5
46C
330
3A4
100
AcDbSymbolTableRecord
100
AcDbLinetypeTableRecord
  2
DIVIDE
 70
     0
  3
Divide ____ . . ____ . . ____ . . ____ . . ____
 72
    65
 73
     6
 40
31.75
 49
12.7
 74
     0
 49
-6.35
 74
     0
 49
0.0
 74
     0
 49
-6.35
 74
     0
 49
0.0
 74
     0
 49
-6.35
 74
     0
  0
LTYPE
  5
46D
330
3A4
100
AcDbSymbolTableRecord
100
AcDbLinetypeTableRecord
  2
DASHEDX2
 70
     0
  3
Dashed (2x) ____  ____  ____  ____  ____  ___
 72
    65
 73
     2
 40
38.09999999999999
 49
25.4
 74
     0
 49
-12.7
 74
     0
  0
LTYPE
  5
46E
330
3A4
100
AcDbSymbolTableRecord
100
AcDbLinetypeTableRecord
  2
DASHED2
 70
     0
  3
Dashed (.5x) _ _ _ _ _ _ _ _ _ _ _ _ _ _ _ _ _ 
 72
    65
 73
     2
 40
9.524999999999999
 49
6.35
 74
     0
 49
-3.175
 74
     0
  0
LTYPE
  5
46F
330
3A4
100
AcDbSymbolTableRecord
100
AcDbLinetypeTableRecord
  2
DASHED
 70
     0
  3
Dashed __ __ __ __ __ __ __ __ __ __ __ __ __ _
 72
    65
 73
     2
 40
19.05
 49
12.7
 74
     0
 49
-6.35
 74
     0
  0
LTYPE
  5
470
330
3A4
100
AcDbSymbolTableRecord
100
AcDbLinetypeTableRecord
  2
DOT2
 70
     0
  3
Dot (.5x) ........................................
 72
    65
 73
     2
 40
3.175
 49
0.0
 74
     0
 49
-3.175
 74
     0
  0
LTYPE
  5
471
330
3A4
100
AcDbSymbolTableRecord
100
AcDbLinetypeTableRecord
  2
DOT
 70
     0
  3
Dot . . . . . . . . . . . . . . . . . . . . . . . .
 72
    65
 73
     2
 40
6.35
 49
0.0
 74
     0
 49
-6.35
 74
     0
  0
LTYPE
  5
472
330
3A4
100
AcDbSymbolTableRecord
100
AcDbLinetypeTableRecord
  2
DIVIDEX2
 70
     0
  3
Divide (2x) ________  .  .  ________  .  .  _
 72
    65
 73
     6
 40
63.5
 49
25.4
 74
     0
 49
-12.7
 74
     0
 49
0.0
 74
     0
 49
-12.7
 74
     0
 49
0.0
 74
     0
 49
-12.7
 74
     0
  0
LTYPE
  5
473
330
3A4
100
AcDbSymbolTableRecord
100
AcDbLinetypeTableRecord
  2
DIVIDE2
 70
     0
  3
Divide (.5x) __..__..__..__..__..__..__..__.._
 72
    65
 73
     6
 40
15.875
 49
6.35
 74
     0
 49
-3.175
 74
     0
 49
0.0
 74
     0
 49
-3.175
 74
     0
 49
0.0
 74
     0
 49
-3.175
 74
     0
  0
LTYPE
  5
474
330
3A4
100
AcDbSymbolTableRecord
100
AcDbLinetypeTableRecord
  2
CENTER2
 70
     0
  3
Center (.5x) ___ _ ___ _ ___ _ ___ _ ___ _ ___
 72
    65
 73
     4
 40
28.575
 49
19.05
 74
     0
 49
-3.175
 74
     0
 49
3.175
 74
     0
 49
-3.175
 74
     0
  0
LTYPE
  5
475
330
3A4
100
AcDbSymbolTableRecord
100
AcDbLinetypeTableRecord
  2
CENTER
 70
     0
  3
Center ____ _ ____ _ ____ _ ____ _ ____ _ ____
 72
    65
 73
     4
 40
50.8
 49
31.75
 74
     0
 49
-6.35
 74
     0
 49
6.35
 74
     0
 49
-6.35
 74
     0
  0
LTYPE
  5
476
330
3A4
100
AcDbSymbolTableRecord
100
AcDbLinetypeTableRecord
  2
BORDERX2
 70
     0
  3
Border (2x) ____  ____  .  ____  ____  .  ___
 72
    65
 73
     6
 40
88.89999999999999
 49
25.4
 74
     0
 49
-12.7
 74
     0
 49
25.4
 74
     0
 49
-12.7
 74
     0
 49
0.0
 74
     0
 49
-12.7
 74
     0
  0
LTYPE
  5
477
330
3A4
100
AcDbSymbolTableRecord
100
AcDbLinetypeTableRecord
  2
BORDER2
 70
     0
  3
Border (.5x) __.__.__.__.__.__.__.__.__.__.__.
 72
    65
 73
     6
 40
22.225
 49
6.35
 74
     0
 49
-3.175
 74
     0
 49
6.35
 74
     0
 49
-3.175
 74
     0
 49
0.0
 74
     0
 49
-3.175
 74
     0
  0
LTYPE
  5
478
330
3A4
100
AcDbSymbolTableRecord
100
AcDbLinetypeTableRecord
  2
DASHDOTX2
 70
     0
  3
Dash dot (2x) ____  .  ____  .  ____  .  ___
 72
    65
 73
     4
 40
50.8
 49
25.4
 74
     0
 49
-12.7
 74
     0
 49
0.0
 74
     0
 49
-12.7
 74
     0
  0
LTYPE
  5
479
330
3A4
100
AcDbSymbolTableRecord
100
AcDbLinetypeTableRecord
  2
DASHDOT2
 70
     0
  3
Dash dot (.5x) _._._._._._._._._._._._._._._.
 72
    65
 73
     4
 40
12.7
 49
6.35
 74
     0
 49
-3.175
 74
     0
 49
0.0
 74
     0
 49
-3.175
 74
     0
  0
LTYPE
  5
47A
330
3A4
100
AcDbSymbolTableRecord
100
AcDbLinetypeTableRecord
  2
DASHDOT
 70
     0
  3
Dash dot __ . __ . __ . __ . __ . __ . __ . __
 72
    65
 73
     4
 40
25.4
 49
12.7
 74
     0
 49
-6.35
 74
     0
 49
0.0
 74
     0
 49
-6.35
 74
     0
  0
LTYPE
  5
47B
330
3A4
100
AcDbSymbolTableRecord
100
AcDbLinetypeTableRecord
  2
CENTERX2
 70
     0
  3
Center (2x) ________  __  ________  __  _____
 72
    65
 73
     4
 40
101.6
 49
63.5
 74
     0
 49
-12.7
 74
     0
 49
12.7
 74
     0
 49
-12.7
 74
     0
  0
ENDTAB
  0
TABLE
  2
LAYER
  5
3A2
330
0
100
AcDbSymbolTable
 70
     5
  0
LAYER
  5
3AF
330
3A2
100
AcDbSymbolTableRecord
100
AcDbLayerTableRecord
  2
0
 70
     0
 62
    18
420
        0
  6
Continuous
370
    25
390
3AE
347
3E4
348
0
  0
LAYER
  5
47C
330
3A2
100
AcDbSymbolTableRecord
100
AcDbLayerTableRecord
  2
CutFirst
 70
     0
 62
     1
420
 16711680
  6
Continuous
370
    25
390
3AE
347
3E4
348
0
  0
LAYER
  5
47D
330
3A2
100
AcDbSymbolTableRecord
100
AcDbLayerTableRecord
  2
CutSecond
 70
     0
 62
     5
420
      255
  6
Continuous
370
    25
390
3AE
347
3E4
348
0
  0
LAYER
  5
47E
330
3A2
100
AcDbSymbolTableRecord
100
AcDbLayerTableRecord
  2
Mark
 70
     0
 62
     3
420
    65280
  6
Continuous
370
    25
390
3AE
347
3E4
348
0
  0
LAYER
  5
47F
330
3A2
100
AcDbSymbolTableRecord
100
AcDbLayerTableRecord
  2
Defpoints
 70
     1
 62
    -7
420
 16777215
  6
Continuous
290
     0
370
    -3
390
3AE
347
3E4
348
0
  0
ENDTAB
  0
TABLE
  2
STYLE
  5
3A3
330
0
100
AcDbSymbolTable
 70
    13
  0
STYLE
  5
3B0
330
3A3
100
AcDbSymbolTableRecord
100
AcDbTextStyleTableRecord
  2
Standard
 70
     0
 40
0.0
 41
1.0
 50
0.0
 71
     0
 42
0.2
  3
txt
  4

  0
STYLE
  5
440
330
3A3
100
AcDbSymbolTableRecord
100
AcDbTextStyleTableRecord
  2
QCADDimTextStyle
 70
     0
 40
0.0
 41
1.0
 50
0.0
 71
     0
 42
0.2
  3
txt
  4

  0
STYLE
  5
447
330
3A3
100
AcDbSymbolTableRecord
100
AcDbTextStyleTableRecord
  2
textstyle0
 70
     0
 40
0.0
 41
1.0
 50
0.0
 71
     0
 42
0.2
  3
ltypeshp.shx
  4

  0
STYLE
  5
448
330
3A3
100
AcDbSymbolTableRecord
100
AcDbTextStyleTableRecord
  2
textstyle1
 70
     0
 40
0.0
 41
1.0
 50
0.0
 71
     0
 42
0.2
  3
ltypeshp.shx
  4

  0
STYLE
  5
456
330
3A3
100
AcDbSymbolTableRecord
100
AcDbTextStyleTableRecord
  2
textstyle2
 70
     0
 40
0.0
 41
1.0
 50
0.0
 71
     0
 42
0.2
  3
STANDARD
  4

  0
STYLE
  5
459
330
3A3
100
AcDbSymbolTableRecord
100
AcDbTextStyleTableRecord
  2
textstyle3
 70
     0
 40
0.0
 41
1.0
 50
0.0
 71
     0
 42
0.2
  3
ltypeshp.shx
  4

  0
STYLE
  5
45A
330
3A3
100
AcDbSymbolTableRecord
100
AcDbTextStyleTableRecord
  2
textstyle4
 70
     0
 40
0.0
 41
1.0
 50
0.0
 71
     0
 42
0.2
  3
ltypeshp.shx
  4

  0
STYLE
  5
45C
330
3A3
100
AcDbSymbolTableRecord
100
AcDbTextStyleTableRecord
  2
textstyle5
 70
     0
 40
0.0
 41
1.0
 50
0.0
 71
     0
 42
0.2
  3
ltypeshp.shx
  4

  0
STYLE
  5
45F
330
3A3
100
AcDbSymbolTableRecord
100
AcDbTextStyleTableRecord
  2
textstyle6
 70
     0
 40
0.0
 41
1.0
 50
0.0
 71
     0
 42
0.2
  3
ltypeshp.shx
  4

  0
STYLE
  5
461
330
3A3
100
AcDbSymbolTableRecord
100
AcDbTextStyleTableRecord
  2
textstyle7
 70
     0
 40
0.0
 41
1.0
 50
0.0
 71
     0
 42
0.2
  3
qcadshp.shx
  4

  0
STYLE
  5
463
330
3A3
100
AcDbSymbolTableRecord
100
AcDbTextStyleTableRecord
  2
textstyle8
 70
     0
 40
0.0
 41
1.0
 50
0.0
 71
     0
 42
0.2
  3
qcadshp.shx
  4

  0
STYLE
  5
468
330
3A3
100
AcDbSymbolTableRecord
100
AcDbTextStyleTableRecord
  2
textstyle9
 70
     0
 40
0.0
 41
1.0
 50
0.0
 71
     0
 42
0.2
  3
STANDARD
  4

  0
STYLE
  5
46A
330
3A3
100
AcDbSymbolTableRecord
100
AcDbTextStyleTableRecord
  2
textstyle10
 70
     0
 40
0.0
 41
1.0
 50
0.0
 71
     0
 42
0.2
  3
ltypeshp.shx
  4

  0
ENDTAB
  0
TABLE
  2
VIEW
  5
3A5
330
0
100
AcDbSymbolTable
 70
     0
  0
ENDTAB
  0
TABLE
  2
UCS
  5
3A6
330
0
100
AcDbSymbolTable
 70
     0
  0
ENDTAB
  0
TABLE
  2
APPID
  5
3A8
330
0
100
AcDbSymbolTable
 70
     2
  0
APPID
  5
3B1
330
3A8
100
AcDbSymbolTableRecord
100
AcDbRegAppTableRecord
  2
ACAD
 70
     0
  0
APPID
  5
40C
330
3A8
100
AcDbSymbolTableRecord
100
AcDbRegAppTableRecord
  2
QCAD
 70
     0
  0
ENDTAB
  0
TABLE
  2
DIMSTYLE
  5
3A9
330
0
100
AcDbSymbolTable
 70
     2
100
AcDbDimStyleTable
  0
DIMSTYLE
105
3C5
330
3A9
100
AcDbSymbolTableRecord
100
AcDbDimStyleTableRecord
  2
Standard
 70
     0
178
     0
340
3B0
  0
DIMSTYLE
105
441
330
3A9
100
AcDbSymbolTableRecord
100
AcDbDimStyleTableRecord
  2
QCADDimStyle
 70
     0
 41
2.5
 42
0.625
 44
1.25
 73
     0
 77
     1
140
2.5
147
0.625
178
     0
340
440
  0
ENDTAB
  0
TABLE
  2
BLOCK_RECORD
  5
3A1
330
0
100
AcDbSymbolTable
 70
     0
  0
BLOCK_RECORD
  5
3BD
330
3A1
100
AcDbSymbolTableRecord
100
AcDbBlockTableRecord
  2
*Model_Space
340
3C0
 70
     0
280
     1
281
     0
  0
BLOCK_RECORD
  5
3B9
330
3A1
100
AcDbSymbolTableRecord
100
AcDbBlockTableRecord
  2
*Paper_Space
340
3BC
 70
     0
280
     1
281
     0
  0
ENDTAB
  0
ENDSEC
  0
SECTION
  2
BLOCKS
  0
BLOCK
  5
3BE
330
3BD
100
AcDbEntity
  8
0
100
AcDbBlockBegin
  2
*Model_Space
 70
     0
 10
0.0
 20
0.0
 30
0.0
  3
*Model_Space
  1

  0
ENDBLK
  5
3BF
330
3BD
100
AcDbEntity
  8
0
100
AcDbBlockEnd
  0
BLOCK
  5
3BA
330
3B9
100
AcDbEntity
 67
     1
  8
0
100
AcDbBlockBegin
  2
*Paper_Space
 70
     0
 10
0.0
 20
0.0
 30
0.0
  3
*Paper_Space
  1

  0
ENDBLK
  5
3BB
330
3B9
100
AcDbEntity
 67
     1
  8
0
100
AcDbBlockEnd
  0
ENDSEC
  0
SECTION
  2
ENTITIES
  0
ARC
  5
39
330
3BD
100
AcDbEntity
  8
CutSecond
100
AcDbCircle
 10
83.78446092271724
 20
-38.33951921839959
 30
0.0
 40
3.0
100
AcDbArc
 50
270.0
 51
90.0
1001
QCAD
1000
reversed:1
  0
LINE
  5
3A
330
3BD
100
AcDbEntity
  8
CutSecond
100
AcDbLine
 10
75.28446092271724
 20
-43.40107203120841
 30
0.0
 11
75.28446092271724
 21
-38.98951921839959
 31
0.0
  0
LINE
  5
3B
330
3BD
100
AcDbEntity
  8
CutSecond
100
AcDbLine
 10
75.28446092271724
 20
-37.68951921839958
 30
0.0
 11
75.28446092271724
 21
-33.27796640559076
 31
0.0
  0
LINE
  5
3C
330
3BD
100
AcDbEntity
  8
CutSecond
100
AcDbLine
 10
75.28446092271724
 20
-37.68951921839958
 30
0.0
 11
79.0844609227172
 21
-37.68951921839958
 31
0.0
  0
LINE
  5
3D
330
3BD
100
AcDbEntity
  8
CutSecond
100
AcDbLine
 10
75.28446092271724
 20
-38.98951921839959
 30
0.0
 11
79.0844609227172
 21
-38.98951921839959
 31
0.0
  0
LINE
  5
3E
330
3BD
100
AcDbEntity
  8
CutSecond
100
AcDbLine
 10
79.0844609227172
 20
-38.98951921839959
 30
0.0
 11
79.0844609227172
 21
-37.68951921839958
 31
0.0
  0
LINE
  5
3F
330
3BD
100
AcDbEntity
  8
CutSecond
100
AcDbLine
 10
79.28446092271724
 20
-35.33951921839959
 30
0.0
 11
79.28446092271724
 21
-30.83951921839959
 31
0.0
  0
LINE
  5
40
330
3BD
100
AcDbEntity
  8
CutSecond
100
AcDbLine
 10
79.28446092271724
 20
-45.83951921839959
 30
0.0
 11
79.28446092271724
 21
-41.33951921839959
 31
0.0
  0
ARC
  5
41
330
3BD
100
AcDbEntity
  8
CutSecond
100
AcDbCircle
 10
79.28446092271724
 20
-35.33951921839959
 30
0.0
 40
4.5
100
AcDbArc
 50
90.0
 51
152.7339555492673
  0
ARC
  5
42
330
3BD
100
AcDbEntity
  8
CutSecond
100
AcDbCircle
 10
79.28446092271724
 20
-35.33951921839959
 30
0.0
 40
4.5
100
AcDbArc
 50
207.2660444507327
 51
211.4814321591689
  0
ARC
  5
43
330
3BD
100
AcDbEntity
  8
CutSecond
100
AcDbCircle
 10
79.28446092271724
 20
-41.33951921839959
 30
0.0
 40
4.5
100
AcDbArc
 50
207.2660444507327
 51
270.0
  0
ARC
  5
44
330
3BD
100
AcDbEntity
  8
CutSecond
100
AcDbCircle
 10
79.28446092271724
 20
-41.33951921839959
 30
0.0
 40
4.5
100
AcDbArc
 50
148.518567840831
 51
152.7339555492673
  0
LINE
  5
45
330
3BD
100
AcDbEntity
  8
CutSecond
100
AcDbLine
 10
79.28446092271724
 20
-41.33951921839959
 30
0.0
 11
83.78446092271724
 21
-41.33951921839959
 31
0.0
  0
LINE
  5
47
330
3BD
100
AcDbEntity
  8
Mark
100
AcDbLine
 10
28.74730871593442
 20
116.4096512768148
 30
0.0
 11
55.13961356134769
 21
116.4096512768148
 31
0.0
  0
LINE
  5
48
330
3BD
100
AcDbEntity
  8
Mark
100
AcDbLine
 10
55.13961356134769
 20
116.4096512768148
 30
0.0
 11
41.94346113864094
 21
139.2660577373658
 31
0.0
  0
LINE
  5
49
330
3BD
100
AcDbEntity
  8
CutSecond
100
AcDbLine
 10
79.28446092271724
 20
-35.33951921839959
 30
0.0
 11
83.78446092271724
 21
-35.33951921839959
 31
0.0
  0
LINE
  5
4A
330
3BD
100
AcDbEntity
  8
Mark
100
AcDbLine
 10
41.94346113864094
 20
139.2660577373658
 30
0.0
 11
28.74730871593442
 21
116.4096512768148
 31
0.0
  0
LINE
  5
4C
330
3BD
100
AcDbEntity
  8
CutSecond
100
AcDbLine
 10
47.94346113864094
 20
115.4096512768148
 30
0.0
 11
35.94346113864094
 21
115.4096512768148
 31
0.0
  0
LINE
  5
4D
330
3BD
100
AcDbEntity
  8
CutSecond
100
AcDbLine
 10
35.94346113864094
 20
115.4096512768148
 30
0.0
 11
35.94346113864094
 21
111.4096512768148
 31
0.0
  0
LINE
  5
4E
330
3BD
100
AcDbEntity
  8
CutSecond
100
AcDbLine
 10
35.94346113864094
 20
111.4096512768148
 30
0.0
 11
47.94346113864094
 21
111.4096512768148
 31
0.0
  0
LINE
  5
4F
330
3BD
100
AcDbEntity
  8
CutSecond
100
AcDbLine
 10
47.94346113864094
 20
111.4096512768148
 30
0.0
 11
47.94346113864094
 21
115.4096512768148
 31
0.0
  0
LINE
  5
50
330
3BD
100
AcDbEntity
  8
CutSecond
100
AcDbLine
 10
31.47935952350326
 20
123.1417020843837
 30
0.0
 11
37.47935952350326
 21
133.5340069297969
 31
0.0
  0
LINE
  5
51
330
3BD
100
AcDbEntity
  8
CutSecond
100
AcDbLine
 10
37.47935952350326
 20
133.5340069297969
 30
0.0
 11
34.01525790836558
 21
135.5340069297969
 31
0.0
  0
LINE
  5
52
330
3BD
100
AcDbEntity
  8
CutSecond
100
AcDbLine
 10
34.01525790836558
 20
135.5340069297969
 30
0.0
 11
28.01525790836558
 21
125.1417020843837
 31
0.0
  0
LINE
  5
53
330
3BD
100
AcDbEntity
  8
CutSecond
100
AcDbLine
 10
28.01525790836558
 20
125.1417020843837
 30
0.0
 11
31.47935952350326
 21
123.1417020843837
 31
0.0
  0
LINE
  5
54
330
3BD
100
AcDbEntity
  8
CutSecond
100
AcDbLine
 10
46.40756275377862
 20
133.5340069297969
 30
0.0
 11
52.40756275377862
 21
123.1417020843836
 31
0.0
  0
LINE
  5
55
330
3BD
100
AcDbEntity
  8
CutSecond
100
AcDbLine
 10
52.40756275377862
 20
123.1417020843836
 30
0.0
 11
55.87166436891653
 21
125.1417020843836
 31
0.0
  0
LINE
  5
56
330
3BD
100
AcDbEntity
  8
CutSecond
100
AcDbLine
 10
55.87166436891653
 20
125.1417020843836
 30
0.0
 11
49.87166436891653
 21
135.5340069297969
 31
0.0
  0
LINE
  5
57
330
3BD
100
AcDbEntity
  8
CutSecond
100
AcDbLine
 10
49.87166436891653
 20
135.5340069297969
 30
0.0
 11
46.40756275377862
 21
133.5340069297969
 31
0.0
  0
LINE
  5
58
330
3BD
100
AcDbEntity
  8
CutSecond
100
AcDbLine
 10
53.01452895050625
 20
80.68757333817264
 30
0.0
 11
30.87239332677518
 21
80.68757333817263
 31
0.0
  0
LINE
  5
59
330
3BD
100
AcDbEntity
  8
CutSecond
100
AcDbLine
 10
32.33183213090183
 20
24.20293852166182
 30
0.0
 11
54.47396775463289
 21
24.20293852166181
 31
0.0
  0
LINE
  5
5A
330
3BD
100
AcDbEntity
  8
CutSecond
100
AcDbLine
 10
56.46976701962876
 20
-33.23172921545689
 30
0.0
 11
34.3276313958977
 21
-33.23172921545691
 31
0.0
  0
LINE
  5
5B
330
3BD
100
AcDbEntity
  8
CutSecond
100
AcDbLine
 10
30.87239332677518
 20
80.68757333817263
 30
0.0
 11
15.21553907728298
 21
65.03071908868016
 31
0.0
  0
LINE
  5
5C
330
3BD
100
AcDbEntity
  8
CutSecond
100
AcDbLine
 10
54.47396775463289
 20
24.20293852166181
 30
0.0
 11
70.1308220041251
 21
8.546084272169324
 31
0.0
  0
LINE
  5
5D
330
3BD
100
AcDbEntity
  8
CutSecond
100
AcDbLine
 10
34.3276313958977
 20
-33.23172921545691
 30
0.0
 11
18.6707771464055
 21
-48.88858346494938
 31
0.0
  0
LINE
  5
5E
330
3BD
100
AcDbEntity
  8
CutSecond
100
AcDbLine
 10
15.21553907728298
 20
65.03071908868016
 30
0.0
 11
15.21553907728298
 21
42.88858346494924
 31
0.0
  0
LINE
  5
5F
330
3BD
100
AcDbEntity
  8
CutSecond
100
AcDbLine
 10
70.1308220041251
 20
8.546084272169324
 30
0.0
 11
70.1308220041251
 21
-13.59605135156158
 31
0.0
  0
LINE
  5
60
330
3BD
100
AcDbEntity
  8
CutSecond
100
AcDbLine
 10
18.6707771464055
 20
-48.88858346494938
 30
0.0
 11
18.6707771464055
 21
-71.0307190886803
 31
0.0
  0
LINE
  5
61
330
3BD
100
AcDbEntity
  8
CutSecond
100
AcDbLine
 10
15.21553907728298
 20
42.88858346494924
 30
0.0
 11
30.87239332677518
 21
27.23172921545697
 31
0.0
  0
LINE
  5
62
330
3BD
100
AcDbEntity
  8
CutSecond
100
AcDbLine
 10
70.1308220041251
 20
-13.59605135156158
 30
0.0
 11
54.47396775463289
 21
-29.25290560105385
 31
0.0
  0
LINE
  5
63
330
3BD
100
AcDbEntity
  8
CutSecond
100
AcDbLine
 10
18.6707771464055
 20
-71.0307190886803
 30
0.0
 11
34.3276313958977
 21
-86.68757333817258
 31
0.0
  0
LINE
  5
64
330
3BD
100
AcDbEntity
  8
CutSecond
100
AcDbLine
 10
30.87239332677518
 20
27.23172921545697
 30
0.0
 11
53.01452895050625
 21
27.2317292154569
 31
0.0
  0
LINE
  5
65
330
3BD
100
AcDbEntity
  8
CutSecond
100
AcDbLine
 10
54.47396775463289
 20
-29.25290560105385
 30
0.0
 11
32.33183213090183
 21
-29.25290560105393
 31
0.0
  0
LINE
  5
66
330
3BD
100
AcDbEntity
  8
CutSecond
100
AcDbLine
 10
34.3276313958977
 20
-86.68757333817258
 30
0.0
 11
56.46976701962876
 21
-86.68757333817264
 31
0.0
  0
LINE
  5
67
330
3BD
100
AcDbEntity
  8
CutSecond
100
AcDbLine
 10
53.01452895050625
 20
27.2317292154569
 30
0.0
 11
68.6713831999989
 21
42.88858346494944
 31
0.0
  0
LINE
  5
68
330
3BD
100
AcDbEntity
  8
CutSecond
100
AcDbLine
 10
32.33183213090183
 20
-29.25290560105393
 30
0.0
 11
16.67497788140918
 21
-13.5960513515614
 31
0.0
  0
LINE
  5
69
330
3BD
100
AcDbEntity
  8
CutSecond
100
AcDbLine
 10
56.46976701962876
 20
-86.68757333817264
 30
0.0
 11
72.12662126912142
 21
-71.0307190886801
 31
0.0
  0
LINE
  5
6A
330
3BD
100
AcDbEntity
  8
CutSecond
100
AcDbLine
 10
16.67497788140918
 20
-13.5960513515614
 30
0.0
 11
16.6749778814094
 21
8.54608427216904
 31
0.0
  0
LINE
  5
6B
330
3BD
100
AcDbEntity
  8
CutSecond
100
AcDbLine
 10
72.12662126912119
 20
-71.03071908864759
 30
0.0
 11
72.12662126912096
 21
-48.88858346491715
 31
0.0
  0
LINE
  5
6C
330
3BD
100
AcDbEntity
  8
CutSecond
100
AcDbLine
 10
68.6713831999989
 20
42.88858346494944
 30
0.0
 11
68.6713831999989
 21
49.65965126438195
 31
0.0
  0
LINE
  5
6D
330
3BD
100
AcDbEntity
  8
CutSecond
100
AcDbLine
 10
68.67138319999867
 20
58.25965126438201
 30
0.0
 11
68.67138319999867
 21
65.03071908867987
 31
0.0
  0
LINE
  5
6E
330
3BD
100
AcDbEntity
  8
CutSecond
100
AcDbLine
 10
68.67138319999867
 20
65.03071908867987
 30
0.0
 11
53.01452895050625
 21
80.68757333817264
 31
0.0
  0
LINE
  5
6F
330
3BD
100
AcDbEntity
  8
CutSecond
100
AcDbLine
 10
16.6749778814094
 20
8.54608427216904
 30
0.0
 11
32.33183213090183
 21
24.20293852166182
 31
0.0
  0
LINE
  5
70
330
3BD
100
AcDbEntity
  8
CutSecond
100
AcDbLine
 10
72.12662126912119
 20
-48.88858346494966
 30
0.0
 11
56.46976701962876
 21
-33.23172921545689
 31
0.0
  0
LINE
  5
71
330
3BD
100
AcDbEntity
  8
CutSecond
100
AcDbLine
 10
64.67138319999867
 20
114.5454377144417
 30
0.0
 11
64.67138319999867
 21
133.3738648391878
 31
0.0
  0
LINE
  5
72
330
3BD
100
AcDbEntity
  8
CutSecond
100
AcDbLine
 10
64.67138319999867
 20
133.3738648391878
 30
0.0
 11
51.35767470101405
 21
146.6875733381726
 31
0.0
  0
LINE
  5
73
330
3BD
100
AcDbEntity
  8
CutSecond
100
AcDbLine
 10
51.35767470101405
 20
146.6875733381726
 30
0.0
 11
32.52924757626784
 21
146.6875733381726
 31
0.0
  0
LINE
  5
74
330
3BD
100
AcDbEntity
  8
CutSecond
100
AcDbLine
 10
32.52924757626784
 20
146.6875733381726
 30
0.0
 11
19.21553907728321
 21
133.3738648391879
 31
0.0
  0
LINE
  5
75
330
3BD
100
AcDbEntity
  8
CutSecond
100
AcDbLine
 10
19.21553907728321
 20
133.3738648391879
 30
0.0
 11
19.21553907728321
 21
114.5454377144418
 31
0.0
  0
LINE
  5
76
330
3BD
100
AcDbEntity
  8
CutSecond
100
AcDbLine
 10
19.21553907728321
 20
114.5454377144418
 30
0.0
 11
32.52924757626784
 21
101.2317292154569
 31
0.0
  0
LINE
  5
77
330
3BD
100
AcDbEntity
  8
CutSecond
100
AcDbLine
 10
32.52924757626784
 20
101.2317292154569
 30
0.0
 11
51.35767470101405
 21
101.2317292154569
 31
0.0
  0
LINE
  5
78
330
3BD
100
AcDbEntity
  8
CutSecond
100
AcDbLine
 10
51.35767470101405
 20
101.2317292154569
 30
0.0
 11
64.67138319999867
 21
114.5454377144417
 31
0.0
  0
LWPOLYLINE
  5
79
330
3BD
100
AcDbEntity
  8
CutFirst
100
AcDbPolyline
 90
        3
 70
   128
 43
0.0
 10
29.09726706092852
 20
137.5558453545274
 42
0.9999999999999999
 10
27.59726706092852
 20
137.5558453545274
 42
0.9999999999999999
 10
29.09726706092852
 20
137.5558453545274
  0
LWPOLYLINE
  5
7A
330
3BD
100
AcDbEntity
  8
CutFirst
100
AcDbPolyline
 90
        3
 70
   128
 43
0.0
 10
56.28965521635337
 20
137.5558453545274
 42
0.9999999999999999
 10
54.78965521635337
 20
137.5558453545274
 42
0.9999999999999999
 10
56.28965521635337
 20
137.5558453545274
  0
LWPOLYLINE
  5
7B
330
3BD
100
AcDbEntity
  8
CutFirst
100
AcDbPolyline
 90
        3
 70
   128
 43
0.0
 10
56.28965521635359
 20
110.3634571991022
 42
0.9999999999999999
 10
54.78965521635359
 20
110.3634571991022
 42
0.9999999999999999
 10
56.28965521635359
 20
110.3634571991022
  0
LWPOLYLINE
  5
7C
330
3BD
100
AcDbEntity
  8
CutFirst
100
AcDbPolyline
 90
        3
 70
   128
 43
0.0
 10
29.09726706092852
 20
110.3634571991022
 42
0.9999999999999999
 10
27.59726706092852
 20
110.3634571991022
 42
0.9999999999999999
 10
29.09726706092852
 20
110.3634571991022
  0
LWPOLYLINE
  5
7D
330
3BD
100
AcDbEntity
  8
CutFirst
100
AcDbPolyline
 90
        3
 70
   128
 43
0.0
 10
27.70670586505435
 20
-16.12117761740872
 42
-0.9999999999999999
 10
31.90670586505462
 20
-16.12117761740872
 42
-0.9999999999999999
 10
27.70670586505435
 20
-16.12117761740872
  0
LWPOLYLINE
  5
7E
330
3BD
100
AcDbEntity
  8
CutFirst
100
AcDbPolyline
 90
        3
 70
   128
 43
0.0
 10
54.89909402047965
 20
-16.12117761740872
 42
-0.9999999999999999
 10
59.0990940204797
 20
-16.12117761740872
 42
-0.9999999999999999
 10
54.89909402047965
 20
-16.12117761740872
  0
LWPOLYLINE
  5
7F
330
3BD
100
AcDbEntity
  8
CutFirst
100
AcDbPolyline
 90
        3
 70
   128
 43
0.0
 10
27.70670586505457
 20
11.07121053801644
 42
-0.9999999999999999
 10
31.90670586505462
 20
11.07121053801644
 42
-0.9999999999999999
 10
27.70670586505457
 20
11.07121053801644
  0
LWPOLYLINE
  5
80
330
3BD
100
AcDbEntity
  8
CutFirst
100
AcDbPolyline
 90
        3
 70
   128
 43
0.0
 10
54.89909402047965
 20
11.07121053801649
 42
-0.9999999999999999
 10
59.09909402047947
 20
11.07121053801649
 42
-0.9999999999999999
 10
54.89909402047965
 20
11.07121053801649
  0
CIRCLE
  5
88
330
3BD
100
AcDbEntity
  8
CutFirst
100
AcDbCircle
 10
41.94346113864094
 20
133.2660577373658
 30
0.0
 40
2.450000000000045
  0
CIRCLE
  5
89
330
3BD
100
AcDbEntity
  8
CutFirst
100
AcDbCircle
 10
33.94346113864094
 20
119.4096512768148
 30
0.0
 40
2.450000000000045
  0
CIRCLE
  5
8A
330
3BD
100
AcDbEntity
  8
CutFirst
100
AcDbCircle
 10
49.94346113864094
 20
119.4096512768148
 30
0.0
 40
2.450000000000045
  0
CIRCLE
  5
8B
330
3BD
100
AcDbEntity
  8
CutFirst
100
AcDbCircle
 10
41.94346113864094
 20
126.3378545070903
 30
0.0
 40
2.450000000000045
  0
CIRCLE
  5
8C
330
3BD
100
AcDbEntity
  8
CutFirst
100
AcDbCircle
 10
36.94346113864094
 20
124.9596512768148
 30
0.0
 40
1.450000000000045
  0
CIRCLE
  5
8D
330
3BD
100
AcDbEntity
  8
CutFirst
100
AcDbCircle
 10
46.94346113864094
 20
124.9596512768148
 30
0.0
 40
1.450000000000045
  0
CIRCLE
  5
8E
330
3BD
100
AcDbEntity
  8
CutFirst
100
AcDbCircle
 10
41.94346113864094
 20
119.9596512768148
 30
0.0
 40
1.450000000000045
  0
CIRCLE
  5
8F
330
3BD
100
AcDbEntity
  8
CutFirst
100
AcDbCircle
 10
36.94346113864094
 20
53.95965127681477
 30
0.0
 40
10.0
  0
LINE
  5
90
330
3BD
100
AcDbEntity
  8
Mark
100
AcDbLine
 10
32.89869920776346
 20
-67.45965127681482
 30
0.0
 11
47.89869920776346
 21
-67.45965127681482
 31
0.0
  0
LINE
  5
91
330
3BD
100
AcDbEntity
  8
Mark
100
AcDbLine
 10
47.89869920776346
 20
-67.45965127681482
 30
0.0
 11
47.89869920776346
 21
-52.45965127681482
 31
0.0
  0
LINE
  5
92
330
3BD
100
AcDbEntity
  8
Mark
100
AcDbLine
 10
47.89869920776346
 20
-52.45965127681482
 30
0.0
 11
32.89869920776346
 21
-52.45965127681482
 31
0.0
  0
LINE
  5
93
330
3BD
100
AcDbEntity
  8
Mark
100
AcDbLine
 10
32.89869920776346
 20
-52.45965127681482
 30
0.0
 11
32.89869920776346
 21
-67.45965127681482
 31
0.0
  0
LINE
  5
94
330
3BD
100
AcDbEntity
  8
CutFirst
100
AcDbLine
 10
32.89869920776346
 20
-67.45965127681482
 30
0.0
 11
32.89869920776346
 21
-52.45965127681482
 31
0.0
  0
LINE
  5
95
330
3BD
100
AcDbEntity
  8
CutFirst
100
AcDbLine
 10
30.89869920776346
 20
-52.45965127681482
 30
0.0
 11
30.89869920776346
 21
-67.45965127681482
 31
0.0
  0
LINE
  5
96
330
3BD
100
AcDbEntity
  8
Mark
100
AcDbLine
 10
40.90289994276714
 20
-10.02498353969614
 30
0.0
 11
40.90289994276714
 21
4.975016460303863
 31
0.0
  0
LINE
  5
97
330
3BD
100
AcDbEntity
  8
Mark
100
AcDbLine
 10
55.90289994276714
 20
4.975016460303863
 30
0.0
 11
55.90289994276714
 21
-10.02498353969614
 31
0.0
  0
LINE
  5
98
330
3BD
100
AcDbEntity
  8
Mark
100
AcDbLine
 10
55.90289994276714
 20
-10.02498353969614
 30
0.0
 11
40.90289994276714
 21
-10.02498353969614
 31
0.0
  0
LINE
  5
99
330
3BD
100
AcDbEntity
  8
Mark
100
AcDbLine
 10
40.90289994276714
 20
4.975016460303877
 30
0.0
 11
40.90289994276714
 21
17.47501646030388
 31
0.0
  0
LINE
  5
9A
330
3BD
100
AcDbEntity
  8
Mark
100
AcDbLine
 10
40.90289994276714
 20
17.47501646030388
 30
0.0
 11
48.90289994276714
 21
17.47501646030388
 31
0.0
  0
LINE
  5
9B
330
3BD
100
AcDbEntity
  8
Mark
100
AcDbLine
 10
48.90289994276714
 20
17.47501646030388
 30
0.0
 11
48.90289994276714
 21
4.975016460303863
 31
0.0
  0
CIRCLE
  5
9C
330
3BD
100
AcDbEntity
  8
CutFirst
100
AcDbCircle
 10
45.94346113864094
 20
-41.04034872318523
 30
0.0
 40
4.0
  0
LINE
  5
9D
330
3BD
100
AcDbEntity
  8
CutSecond
100
AcDbLine
 10
50.71784408435519
 20
50.95965126438202
 30
0.0
 11
57.21784408435519
 21
50.95965126438193
 31
0.0
  0
LINE
  5
9F
330
3BD
100
AcDbEntity
  8
CutFirst
100
AcDbLine
 10
54.17308215347748
 20
-62.95965128921502
 30
0.0
 11
58.58892924953329
 21
-62.95965128921505
 31
0.0
  0
LINE
  5
A0
330
3BD
100
AcDbEntity
  8
CutSecond
100
AcDbLine
 10
50.71784408435542
 20
56.95965126438192
 30
0.0
 11
57.21784408435519
 21
56.95965126438196
 31
0.0
  0
LINE
  5
A1
330
3BD
100
AcDbEntity
  8
CutFirst
100
AcDbLine
 10
54.17308215347771
 20
-56.9596512892151
 30
0.0
 11
58.58892924953329
 21
-56.95965128921507
 31
0.0
  0
LINE
  5
A2
330
3BD
100
AcDbEntity
  8
CutSecond
100
AcDbLine
 10
57.21784408435519
 20
49.75965126438183
 30
0.0
 11
58.81784408435533
 21
49.75965126438199
 31
0.0
  0
LINE
  5
A3
330
3BD
100
AcDbEntity
  8
CutSecond
100
AcDbLine
 10
57.21784408435519
 20
58.15965126438206
 30
0.0
 11
58.8178440843551
 21
58.15965126438203
 31
0.0
  0
LINE
  5
A4
330
3BD
100
AcDbEntity
  8
CutSecond
100
AcDbLine
 10
50.71784408435542
 20
56.95965126438192
 30
0.0
 11
50.71784408435519
 21
50.95965126438202
 31
0.0
  0
LINE
  5
A5
330
3BD
100
AcDbEntity
  8
CutFirst
100
AcDbLine
 10
54.17308215347771
 20
-56.9596512892151
 30
0.0
 11
54.17308215347748
 21
-62.95965128921502
 31
0.0
  0
LINE
  5
A6
330
3BD
100
AcDbEntity
  8
CutSecond
100
AcDbLine
 10
57.21784408435519
 20
58.15965126438206
 30
0.0
 11
57.21784408435519
 21
56.95965126438196
 31
0.0
  0
LINE
  5
A7
330
3BD
100
AcDbEntity
  8
CutSecond
100
AcDbLine
 10
57.21784408435519
 20
50.95965126438193
 30
0.0
 11
57.21784408435519
 21
49.7596512643819
 31
0.0
  0
LINE
  5
A8
330
3BD
100
AcDbEntity
  8
CutSecond
100
AcDbLine
 10
60.81784408435533
 20
47.75965126438199
 30
0.0
 11
60.81784408435533
 21
45.15965126438198
 31
0.0
  0
LINE
  5
A9
330
3BD
100
AcDbEntity
  8
CutSecond
100
AcDbLine
 10
60.81784408435533
 20
62.75965126438199
 30
0.0
 11
60.81784408435533
 21
60.15965126438199
 31
0.0
  0
ARC
  5
AA
330
3BD
100
AcDbEntity
  8
CutSecond
100
AcDbCircle
 10
58.81784408435533
 20
47.75965126438197
 30
0.0
 40
2.0
100
AcDbArc
 50
0.0
 51
89.99999999999957
1001
QCAD
1000
reversed:1
  0
LINE
  5
1B7
330
3BD
100
AcDbEntity
  8
Mark
100
AcDbLine
 10
131.2424713654959
 20
-4.15715487241259
 30
0.0
 11
157.6347762109092
 21
-4.157154872412619
 31
0.0
  0
ARC
  5
AB
330
3BD
100
AcDbEntity
  8
CutSecond
100
AcDbCircle
 10
58.8178440843551
 20
60.15965126438201
 30
0.0
 40
2.0
100
AcDbArc
 50
269.999999999999
 51
0.0
1001
QCAD
1000
reversed:1
  0
SPLINE
  5
AC
330
3BD
100
AcDbEntity
  8
CutSecond
100
AcDbSpline
210
0.0
220
0.0
230
1.0
 70
     8
 71
     3
 72
     8
 73
     4
 74
     0
 42
0.000000001
 43
0.001
 40
0.5801086779198614
 40
0.5801086779198614
 40
0.5801086779198614
 40
0.5801086779198614
 40
1.0
 40
1.0
 40
1.0
 40
1.0
 10
68.65917717725142
 20
58.25965128924736
 30
0.0
 10
68.6295287497087
 20
58.50273628991066
 30
0.0
 10
68.59670648631686
 20
58.6748092119231
 30
0.0
 10
68.56538008417965
 20
58.7313235373791
 30
0.0
  0
LINE
  5
1B8
330
3BD
100
AcDbEntity
  8
Mark
100
AcDbLine
 10
157.6347762109092
 20
-4.157154872412619
 30
0.0
 11
144.4386237882024
 21
18.69925158813834
 31
0.0
  0
LINE
  5
AD
330
3BD
100
AcDbEntity
  8
CutSecond
100
AcDbLine
 10
60.81784408435533
 20
45.15965126438198
 30
0.0
 11
64.8178440843551
 21
45.15965126438198
 31
0.0
  0
LINE
  5
AE
330
3BD
100
AcDbEntity
  8
CutSecond
100
AcDbLine
 10
64.8178440843551
 20
45.15965126438198
 30
0.0
 11
64.81784408435533
 21
49.65965126438212
 31
0.0
  0
LINE
  5
AF
330
3BD
100
AcDbEntity
  8
CutSecond
100
AcDbLine
 10
64.81784408435533
 20
49.65965126438212
 30
0.0
 11
68.67138319999867
 21
49.65965126438195
 31
0.0
  0
LINE
  5
1B9
330
3BD
100
AcDbEntity
  8
Mark
100
AcDbLine
 10
144.4386237882024
 20
18.69925158813834
 30
0.0
 11
131.2424713654959
 21
-4.15715487241259
 31
0.0
  0
LINE
  5
B0
330
3BD
100
AcDbEntity
  8
CutSecond
100
AcDbLine
 10
68.67138319999867
 20
58.25965126438201
 30
0.0
 11
64.81784408435533
 21
58.25965126438198
 31
0.0
  0
LINE
  5
B1
330
3BD
100
AcDbEntity
  8
CutSecond
100
AcDbLine
 10
64.81784408435533
 20
58.25965126438198
 30
0.0
 11
64.81784408435533
 21
62.75965126438201
 31
0.0
  0
LINE
  5
B2
330
3BD
100
AcDbEntity
  8
CutSecond
100
AcDbLine
 10
64.81784408435533
 20
62.75965126438201
 30
0.0
 11
60.81784408435533
 21
62.75965126438199
 31
0.0
  0
LINE
  5
B3
330
3BD
100
AcDbEntity
  8
CutFirst
100
AcDbLine
 10
30.89869920776346
 20
-52.45965127681482
 30
0.0
 11
32.89869920776346
 21
-52.45965127681482
 31
0.0
  0
LINE
  5
B4
330
3BD
100
AcDbEntity
  8
CutFirst
100
AcDbLine
 10
30.89869920776346
 20
-67.45965127681482
 30
0.0
 11
32.89869920776346
 21
-67.45965127681482
 31
0.0
  0
LINE
  5
B5
330
3BD
100
AcDbEntity
  8
Mark
100
AcDbLine
 10
48.90289994276714
 20
4.975016460303863
 30
0.0
 11
55.90289994276714
 21
4.975016460303863
 31
0.0
  0
LINE
  5
B6
330
3BD
100
AcDbEntity
  8
CutFirst
100
AcDbLine
 10
58.58892924953329
 20
-62.95965128921505
 30
0.0
 11
58.58892924953329
 21
-56.95965128921507
 31
0.0
  0
LINE
  5
B7
330
3BD
100
AcDbEntity
  8
CutFirst
100
AcDbLine
 10
34.44346113864094
 20
67.95965127681477
 30
0.0
 11
49.44346113864094
 21
67.95965127681477
 31
0.0
  0
LINE
  5
B8
330
3BD
100
AcDbEntity
  8
CutFirst
100
AcDbLine
 10
49.44346113864094
 20
67.95965127681477
 30
0.0
 11
49.44346113864094
 21
77.95965127681477
 31
0.0
  0
LINE
  5
B9
330
3BD
100
AcDbEntity
  8
CutFirst
100
AcDbLine
 10
49.44346113864094
 20
77.95965127681477
 30
0.0
 11
34.44346113864094
 21
77.95965127681477
 31
0.0
  0
LINE
  5
BA
330
3BD
100
AcDbEntity
  8
CutFirst
100
AcDbLine
 10
34.44346113864094
 20
77.95965127681477
 30
0.0
 11
34.44346113864094
 21
67.95965127681477
 31
0.0
  0
LINE
  5
2F8
330
3BD
100
AcDbEntity
  8
CutFirst
100
AcDbLine
 10
-31.27532226819049
 20
-3.764661351314246
 30
0.0
 11
-27.8112206530527
 21
-1.764661351314246
 31
0.0
  0
CIRCLE
  5
BB
330
3BD
100
AcDbEntity
  8
CutFirst
100
AcDbCircle
 10
28.34726706092852
 20
67.5558453545273
 30
0.0
 40
0.75
  0
CIRCLE
  5
BC
330
3BD
100
AcDbEntity
  8
CutFirst
100
AcDbCircle
 10
55.53965521635337
 20
67.55584535452726
 30
0.0
 40
0.75
  0
LINE
  5
2F9
330
3BD
100
AcDbEntity
  8
CutFirst
100
AcDbLine
 10
-16.34711903791502
 20
-29.62106781186512
 30
0.0
 11
-12.88301742277723
 21
-27.62106781186512
 31
0.0
  0
CIRCLE
  5
BD
330
3BD
100
AcDbEntity
  8
CutFirst
100
AcDbCircle
 10
55.53965521635359
 20
40.36345719910211
 30
0.0
 40
0.75
  0
CIRCLE
  5
BE
330
3BD
100
AcDbEntity
  8
CutFirst
100
AcDbCircle
 10
28.34726706092852
 20
40.36345719910211
 30
0.0
 40
0.75
  0
LINE
  5
2FA
330
3BD
100
AcDbEntity
  8
CutFirst
100
AcDbLine
 10
-31.27532226819049
 20
-3.764661351314246
 30
0.0
 11
-34.73942388332817
 21
-1.764661351314246
 31
0.0
  0
CIRCLE
  5
BF
330
3BD
100
AcDbEntity
  8
CutFirst
100
AcDbCircle
 10
31.8025051300508
 20
-46.3634571991022
 30
0.0
 40
0.75
  0
CIRCLE
  5
C0
330
3BD
100
AcDbEntity
  8
CutFirst
100
AcDbCircle
 10
58.99489328547588
 20
-46.36345719910214
 30
0.0
 40
0.75
  0
LINE
  5
2FB
330
3BD
100
AcDbEntity
  8
CutFirst
100
AcDbLine
 10
-46.20352549846585
 20
-29.62106781186507
 30
0.0
 11
-49.66762711360353
 21
-27.62106781186507
 31
0.0
  0
CIRCLE
  5
C1
330
3BD
100
AcDbEntity
  8
CutFirst
100
AcDbCircle
 10
58.99489328547611
 20
-73.55584535452736
 30
0.0
 40
0.75
  0
CIRCLE
  5
C2
330
3BD
100
AcDbEntity
  8
CutFirst
100
AcDbCircle
 10
31.8025051300508
 20
-73.55584535452736
 30
0.0
 40
0.75
  0
LINE
  5
2FC
330
3BD
100
AcDbEntity
  8
CutFirst
100
AcDbLine
 10
-46.20352549846585
 20
-33.62106781186507
 30
0.0
 11
-46.20352549846585
 21
-29.62106781186507
 31
0.0
  0
LINE
  5
1BA
330
3BD
100
AcDbEntity
  8
CutSecond
100
AcDbLine
 10
150.4386237882025
 20
-5.157154872412612
 30
0.0
 11
138.4386237882025
 21
-5.157154872412612
 31
0.0
  0
LINE
  5
1BB
330
3BD
100
AcDbEntity
  8
CutSecond
100
AcDbLine
 10
138.4386237882025
 20
-5.157154872412612
 30
0.0
 11
138.4386237882025
 21
-9.157154872412598
 31
0.0
  0
LINE
  5
2FD
330
3BD
100
AcDbEntity
  8
CutFirst
100
AcDbLine
 10
-16.34711903791514
 20
-33.62106781186512
 30
0.0
 11
-16.34711903791514
 21
-29.62106781186512
 31
0.0
  0
LINE
  5
1BC
330
3BD
100
AcDbEntity
  8
CutSecond
100
AcDbLine
 10
138.4386237882025
 20
-9.157154872412598
 30
0.0
 11
150.4386237882025
 21
-9.157154872412598
 31
0.0
  0
LINE
  5
1BD
330
3BD
100
AcDbEntity
  8
CutSecond
100
AcDbLine
 10
150.4386237882025
 20
-9.157154872412598
 30
0.0
 11
150.4386237882025
 21
-5.157154872412612
 31
0.0
  0
LINE
  5
2FE
330
3BD
100
AcDbEntity
  8
CutFirst
100
AcDbLine
 10
-34.73942388332817
 20
-1.764661351314246
 30
0.0
 11
-49.66762711360353
 21
-27.62106781186507
 31
0.0
  0
LINE
  5
1BE
330
3BD
100
AcDbEntity
  8
CutSecond
100
AcDbLine
 10
133.9745221730647
 20
2.574895935156221
 30
0.0
 11
139.9745221730647
 21
12.96720078056948
 31
0.0
  0
LINE
  5
1BF
330
3BD
100
AcDbEntity
  8
CutSecond
100
AcDbLine
 10
139.9745221730647
 20
12.96720078056948
 30
0.0
 11
136.5104205579269
 21
14.96720078056948
 31
0.0
  0
LINE
  5
2FF
330
3BD
100
AcDbEntity
  8
CutFirst
100
AcDbLine
 10
-46.20352549846585
 20
-33.62106781186507
 30
0.0
 11
-16.34711903791514
 21
-33.62106781186512
 31
0.0
  0
LINE
  5
1C0
330
3BD
100
AcDbEntity
  8
CutSecond
100
AcDbLine
 10
136.5104205579269
 20
14.96720078056948
 30
0.0
 11
130.5104205579269
 21
4.574895935156221
 31
0.0
  0
LINE
  5
1C1
330
3BD
100
AcDbEntity
  8
CutSecond
100
AcDbLine
 10
130.5104205579269
 20
4.574895935156221
 30
0.0
 11
133.9745221730647
 21
2.574895935156221
 31
0.0
  0
LINE
  5
300
330
3BD
100
AcDbEntity
  8
CutFirst
100
AcDbLine
 10
-12.88301742277723
 20
-27.62106781186512
 30
0.0
 11
-27.8112206530527
 21
-1.764661351314246
 31
0.0
  0
LINE
  5
1C2
330
3BD
100
AcDbEntity
  8
CutSecond
100
AcDbLine
 10
148.9027254033402
 20
12.96720078056946
 30
0.0
 11
154.9027254033402
 21
2.574895935156192
 31
0.0
  0
LINE
  5
1C3
330
3BD
100
AcDbEntity
  8
CutSecond
100
AcDbLine
 10
154.9027254033402
 20
2.574895935156192
 30
0.0
 11
158.366827018478
 21
4.574895935156192
 31
0.0
  0
LINE
  5
1C4
330
3BD
100
AcDbEntity
  8
CutSecond
100
AcDbLine
 10
158.366827018478
 20
4.574895935156192
 30
0.0
 11
152.366827018478
 21
14.96720078056946
 31
0.0
  0
LINE
  5
1C5
330
3BD
100
AcDbEntity
  8
CutSecond
100
AcDbLine
 10
152.366827018478
 20
14.96720078056946
 30
0.0
 11
148.9027254033402
 21
12.96720078056946
 31
0.0
  0
ARC
  5
1C6
330
3BD
100
AcDbEntity
  8
CutFirst
100
AcDbCircle
 10
144.4386237882024
 20
3.392845127587407
 30
0.0
 40
6.0
100
AcDbArc
 50
0.0
 51
180.0
  0
ARC
  5
1C7
330
3BD
100
AcDbEntity
  8
CutFirst
100
AcDbCircle
 10
144.4386237882024
 20
3.392845127587407
 30
0.0
 40
6.0
100
AcDbArc
 50
180.0
 51
0.0
  0
ARC
  5
1A5
330
3BD
100
AcDbEntity
  8
Mark
100
AcDbCircle
 10
136.7731068605942
 20
69.99999999999996
 30
0.0
 40
12.5
100
AcDbArc
 50
0.0
 51
180.0
  0
ARC
  5
1A6
330
3BD
100
AcDbEntity
  8
Mark
100
AcDbCircle
 10
136.7731068605942
 20
69.99999999999996
 30
0.0
 40
12.5
100
AcDbArc
 50
180.0
 51
0.0
  0
ARC
  5
1A7
330
3BD
100
AcDbEntity
  8
CutSecond
100
AcDbCircle
 10
197.4548152007637
 20
72.67192432714295
 30
0.0
 40
12.5
100
AcDbArc
 50
0.0
 51
180.0
  0
ARC
  5
1A8
330
3BD
100
AcDbEntity
  8
CutSecond
100
AcDbCircle
 10
197.4548152007637
 20
72.67192432714295
 30
0.0
 40
12.5
100
AcDbArc
 50
180.0
 51
0.0
  0
LINE
  5
1AB
330
3BD
100
AcDbEntity
  8
CutSecond
100
AcDbLine
 10
125.7020390487287
 20
96.72792206135787
 30
0.0
 11
110.0451847992364
 21
81.07106781186539
 31
0.0
  0
LINE
  5
1AC
330
3BD
100
AcDbEntity
  8
CutSecond
100
AcDbLine
 10
110.0451847992364
 20
81.07106781186539
 30
0.0
 11
110.0451847992364
 21
58.92893218813453
 31
0.0
  0
LINE
  5
1AD
330
3BD
100
AcDbEntity
  8
CutSecond
100
AcDbLine
 10
110.0451847992364
 20
58.92893218813453
 30
0.0
 11
125.7020390487286
 21
43.27207793864221
 31
0.0
  0
LINE
  5
1AE
330
3BD
100
AcDbEntity
  8
CutSecond
100
AcDbLine
 10
125.7020390487286
 20
43.27207793864221
 30
0.0
 11
147.8441746724594
 21
43.27207793864213
 31
0.0
  0
LINE
  5
1AF
330
3BD
100
AcDbEntity
  8
CutSecond
100
AcDbLine
 10
147.8441746724594
 20
43.27207793864213
 30
0.0
 11
163.5010289219521
 21
58.92893218813464
 31
0.0
  0
LINE
  5
1B0
330
3BD
100
AcDbEntity
  8
CutSecond
100
AcDbLine
 10
163.5010289219521
 20
58.92893218813464
 30
0.0
 11
163.5010289219521
 21
81.07106781186523
 31
0.0
  0
LINE
  5
1B1
330
3BD
100
AcDbEntity
  8
CutSecond
100
AcDbLine
 10
163.5010289219521
 20
81.07106781186523
 30
0.0
 11
147.8441746724595
 21
96.72792206135782
 31
0.0
  0
LINE
  5
1B2
330
3BD
100
AcDbEntity
  8
CutSecond
100
AcDbLine
 10
147.8441746724595
 20
96.72792206135782
 30
0.0
 11
125.7020390487287
 21
96.72792206135787
 31
0.0
  0
LINE
  5
1C8
330
3BD
100
AcDbEntity
  8
CutSecond
100
AcDbLine
 10
167.1665458495603
 20
8.392845127587364
 30
0.0
 11
167.1665458495603
 21
12.80705868996034
 31
0.0
  0
LINE
  5
1C9
330
3BD
100
AcDbEntity
  8
CutSecond
100
AcDbLine
 10
167.1665458495603
 20
12.80705868996034
 30
0.0
 11
153.8528373505755
 21
26.12076718894517
 31
0.0
  0
LINE
  5
1CA
330
3BD
100
AcDbEntity
  8
CutSecond
100
AcDbLine
 10
153.8528373505755
 20
26.12076718894517
 30
0.0
 11
149.4386237882024
 21
26.12076718894517
 31
0.0
  0
LINE
  5
1CB
330
3BD
100
AcDbEntity
  8
CutSecond
100
AcDbLine
 10
121.7107017268447
 20
-1.607154872412579
 30
0.0
 11
121.7107017268448
 21
-6.021368434785593
 31
0.0
  0
LINE
  5
1CC
330
3BD
100
AcDbEntity
  8
CutSecond
100
AcDbLine
 10
121.7107017268448
 20
-6.021368434785593
 30
0.0
 11
135.0244102258293
 21
-19.33507693377032
 31
0.0
  0
LINE
  5
1CD
330
3BD
100
AcDbEntity
  8
CutSecond
100
AcDbLine
 10
135.0244102258293
 20
-19.33507693377032
 30
0.0
 11
139.4386237882023
 21
-19.33507693377038
 31
0.0
  0
LINE
  5
1CE
330
3BD
100
AcDbEntity
  8
CutSecond
100
AcDbLine
 10
139.4386237882023
 20
26.12076718894519
 30
0.0
 11
135.0244102258293
 21
26.12076718894521
 31
0.0
  0
LINE
  5
1CF
330
3BD
100
AcDbEntity
  8
CutSecond
100
AcDbLine
 10
135.0244102258293
 20
26.12076718894521
 30
0.0
 11
121.7107017268446
 21
12.80705868996046
 31
0.0
  0
LINE
  5
1D0
330
3BD
100
AcDbEntity
  8
CutSecond
100
AcDbLine
 10
121.7107017268446
 20
12.80705868996046
 30
0.0
 11
121.7107017268446
 21
8.39284512758745
 31
0.0
  0
LINE
  5
1D1
330
3BD
100
AcDbEntity
  8
CutSecond
100
AcDbLine
 10
149.4386237882025
 20
-19.33507693377046
 30
0.0
 11
153.8528373505755
 21
-19.3350769337705
 31
0.0
  0
LINE
  5
1D2
330
3BD
100
AcDbEntity
  8
CutSecond
100
AcDbLine
 10
153.8528373505755
 20
-19.3350769337705
 30
0.0
 11
167.1665458495603
 21
-6.021368434785742
 31
0.0
  0
LINE
  5
1D3
330
3BD
100
AcDbEntity
  8
CutSecond
100
AcDbLine
 10
167.1665458495603
 20
-6.021368434785742
 30
0.0
 11
167.1665458495603
 21
-1.607154872412643
 31
0.0
  0
LWPOLYLINE
  5
1D4
330
3BD
100
AcDbEntity
  8
CutFirst
100
AcDbPolyline
 90
        3
 70
   128
 43
0.0
 10
131.59242971049
 20
16.98903920529999
 42
0.9999999999999999
 10
130.09242971049
 20
16.98903920529999
 42
0.9999999999999999
 10
131.59242971049
 20
16.98903920529999
  0
LWPOLYLINE
  5
1D5
330
3BD
100
AcDbEntity
  8
CutFirst
100
AcDbPolyline
 90
        3
 70
   128
 43
0.0
 10
158.784817865915
 20
16.98903920529995
 42
0.9999999999999999
 10
157.284817865915
 20
16.98903920529995
 42
0.9999999999999999
 10
158.784817865915
 20
16.98903920529995
  0
LWPOLYLINE
  5
1D6
330
3BD
100
AcDbEntity
  8
CutFirst
100
AcDbPolyline
 90
        3
 70
   128
 43
0.0
 10
158.7848178659151
 20
-10.20334895012522
 42
0.9999999999999999
 10
157.2848178659151
 20
-10.20334895012522
 42
0.9999999999999999
 10
158.7848178659151
 20
-10.20334895012522
  0
LWPOLYLINE
  5
1D7
330
3BD
100
AcDbEntity
  8
CutFirst
100
AcDbPolyline
 90
        3
 70
   128
 43
0.0
 10
131.5924297104899
 20
-10.20334895012522
 42
0.9999999999999999
 10
130.0924297104899
 20
-10.20334895012522
 42
0.9999999999999999
 10
131.5924297104899
 20
-10.20334895012522
  0
LINE
  5
1D8
330
3BD
100
AcDbEntity
  8
CutSecond
100
AcDbLine
 10
121.7107017268447
 20
8.392845127587506
 30
0.0
 11
117.7107017268447
 21
8.392845127587478
 31
0.0
  0
LINE
  5
1D9
330
3BD
100
AcDbEntity
  8
CutSecond
100
AcDbLine
 10
117.7107017268447
 20
8.392845127587478
 30
0.0
 11
117.7107017268447
 21
-1.607154872412558
 31
0.0
  0
LINE
  5
1DA
330
3BD
100
AcDbEntity
  8
CutSecond
100
AcDbLine
 10
117.7107017268447
 20
-1.607154872412558
 30
0.0
 11
121.7107017268447
 21
-1.607154872412544
 31
0.0
  0
LINE
  5
1DB
330
3BD
100
AcDbEntity
  8
CutSecond
100
AcDbLine
 10
139.4386237882024
 20
-19.33507693377044
 30
0.0
 11
139.4386237882024
 21
-23.33507693377045
 31
0.0
  0
LINE
  5
1DC
330
3BD
100
AcDbEntity
  8
CutSecond
100
AcDbLine
 10
139.4386237882024
 20
-23.33507693377045
 30
0.0
 11
149.4386237882024
 21
-23.33507693377042
 31
0.0
  0
LINE
  5
1DD
330
3BD
100
AcDbEntity
  8
CutSecond
100
AcDbLine
 10
149.4386237882024
 20
-23.33507693377042
 30
0.0
 11
149.4386237882024
 21
-19.3350769337704
 31
0.0
  0
LINE
  5
1DE
330
3BD
100
AcDbEntity
  8
CutSecond
100
AcDbLine
 10
167.1665458495603
 20
-1.607154872412728
 30
0.0
 11
171.1665458495603
 21
-1.607154872412707
 31
0.0
  0
LINE
  5
1DF
330
3BD
100
AcDbEntity
  8
CutSecond
100
AcDbLine
 10
171.1665458495603
 20
-1.607154872412707
 30
0.0
 11
171.1665458495603
 21
8.392845127587336
 31
0.0
  0
LINE
  5
1E0
330
3BD
100
AcDbEntity
  8
CutSecond
100
AcDbLine
 10
171.1665458495603
 20
8.392845127587336
 30
0.0
 11
167.1665458495603
 21
8.392845127587321
 31
0.0
  0
LINE
  5
1E1
330
3BD
100
AcDbEntity
  8
CutSecond
100
AcDbLine
 10
149.4386237882025
 20
26.12076718894525
 30
0.0
 11
149.4386237882025
 21
30.12076718894527
 31
0.0
  0
LINE
  5
1E2
330
3BD
100
AcDbEntity
  8
CutSecond
100
AcDbLine
 10
149.4386237882025
 20
30.12076718894527
 30
0.0
 11
139.4386237882025
 21
30.12076718894522
 31
0.0
  0
LINE
  5
1E3
330
3BD
100
AcDbEntity
  8
CutSecond
100
AcDbLine
 10
139.4386237882025
 20
30.12076718894522
 30
0.0
 11
139.4386237882024
 21
26.12076718894521
 31
0.0
  0
LWPOLYLINE
  5
1B3
330
3BD
100
AcDbEntity
  8
CutFirst
100
AcDbPolyline
 90
        3
 70
   128
 43
0.0
 10
125.2769127828818
 20
83.59619407771257
 42
0.9999999999999999
 10
121.0769127828818
 20
83.59619407771257
 42
0.9999999999999999
 10
125.2769127828818
 20
83.59619407771257
  0
LWPOLYLINE
  5
1B4
330
3BD
100
AcDbEntity
  8
CutFirst
100
AcDbPolyline
 90
        3
 70
   128
 43
0.0
 10
152.4693009383068
 20
83.59619407771252
 42
0.9999999999999999
 10
148.2693009383067
 20
83.59619407771252
 42
0.9999999999999999
 10
152.4693009383068
 20
83.59619407771252
  0
LWPOLYLINE
  5
1B5
330
3BD
100
AcDbEntity
  8
CutFirst
100
AcDbPolyline
 90
        3
 70
   128
 43
0.0
 10
152.4693009383069
 20
56.40380592228736
 42
0.9999999999999999
 10
148.2693009383069
 20
56.40380592228736
 42
0.9999999999999999
 10
152.4693009383069
 20
56.40380592228736
  0
LWPOLYLINE
  5
1B6
330
3BD
100
AcDbEntity
  8
CutFirst
100
AcDbPolyline
 90
        3
 70
   128
 43
0.0
 10
125.2769127828817
 20
56.40380592228736
 42
0.9999999999999999
 10
121.0769127828817
 20
56.40380592228736
 42
0.9999999999999999
 10
125.2769127828817
 20
56.40380592228736
  0
CIRCLE
  5
1E5
330
3BD
100
AcDbEntity
  8
CutFirst
100
AcDbCircle
 10
136.7731068605942
 20
69.99999999999996
 30
0.0
 40
7.0
  0
CIRCLE
  5
1E6
330
3BD
100
AcDbEntity
  8
CutFirst
100
AcDbCircle
 10
197.4548152007637
 20
72.67192432714295
 30
0.0
 40
6.0
  0
CIRCLE
  5
1EA
330
3BD
100
AcDbEntity
  8
CutSecond
100
AcDbCircle
 10
100.0
 20
-40.0
 30
0.0
 40
7.0
  0
LINE
  5
30D
330
3BD
100
AcDbEntity
  8
CutFirst
100
AcDbLine
 10
-117.0032443295482
 20
-27.58578643762642
 30
0.0
 11
-107.7900408939519
 21
-36.7989898732229
 31
0.0
  0
LINE
  5
30E
330
3BD
100
AcDbEntity
  8
CutFirst
100
AcDbLine
 10
-117.0032443295482
 20
42.41421356237358
 30
0.0
 11
-107.7900408939519
 21
33.2010101267771
 31
0.0
  0
LINE
  5
30F
330
3BD
100
AcDbEntity
  8
CutFirst
100
AcDbLine
 10
-107.7900408939519
 20
-36.7989898732229
 30
0.0
 11
-94.76060364242913
 21
-36.79898987322296
 31
0.0
  0
LINE
  5
310
330
3BD
100
AcDbEntity
  8
CutFirst
100
AcDbLine
 10
-107.7900408939519
 20
33.2010101267771
 30
0.0
 11
-94.76060364242913
 21
33.20101012677705
 31
0.0
  0
LINE
  5
311
330
3BD
100
AcDbEntity
  8
CutFirst
100
AcDbLine
 10
-94.76060364242913
 20
-36.79898987322296
 30
0.0
 11
-85.54740020683265
 21
-27.5857864376265
 31
0.0
  0
LINE
  5
312
330
3BD
100
AcDbEntity
  8
CutFirst
100
AcDbLine
 10
-94.76060364242913
 20
33.20101012677705
 30
0.0
 11
-85.54740020683265
 21
42.4142135623735
 31
0.0
  0
LINE
  5
313
330
3BD
100
AcDbEntity
  8
CutFirst
100
AcDbLine
 10
-85.54740020683265
 20
-27.5857864376265
 30
0.0
 11
-85.54740020683265
 21
-14.55634918610374
 31
0.0
  0
LINE
  5
314
330
3BD
100
AcDbEntity
  8
CutFirst
100
AcDbLine
 10
-85.54740020683265
 20
42.4142135623735
 30
0.0
 11
-85.54740020683265
 21
55.44365081389627
 31
0.0
  0
LINE
  5
315
330
3BD
100
AcDbEntity
  8
CutFirst
100
AcDbLine
 10
-85.54740020683265
 20
-14.55634918610374
 30
0.0
 11
-94.76060364242925
 21
-5.34314575050724
 31
0.0
  0
LINE
  5
316
330
3BD
100
AcDbEntity
  8
CutFirst
100
AcDbLine
 10
-85.54740020683265
 20
55.44365081389627
 30
0.0
 11
-94.76060364242925
 21
64.65685424949277
 31
0.0
  0
LINE
  5
317
330
3BD
100
AcDbEntity
  8
CutFirst
100
AcDbLine
 10
-94.76060364242925
 20
-5.34314575050724
 30
0.0
 11
-107.7900408939519
 21
-5.343145750507261
 31
0.0
  0
LINE
  5
318
330
3BD
100
AcDbEntity
  8
CutFirst
100
AcDbLine
 10
-94.76060364242925
 20
64.65685424949277
 30
0.0
 11
-107.7900408939519
 21
64.65685424949274
 31
0.0
  0
LINE
  5
319
330
3BD
100
AcDbEntity
  8
CutFirst
100
AcDbLine
 10
-107.7900408939519
 20
-5.343145750507261
 30
0.0
 11
-117.0032443295482
 21
-14.55634918610375
 31
0.0
  0
LINE
  5
31A
330
3BD
100
AcDbEntity
  8
CutFirst
100
AcDbLine
 10
-107.7900408939519
 20
64.65685424949274
 30
0.0
 11
-117.0032443295482
 21
55.44365081389625
 31
0.0
  0
LINE
  5
31B
330
3BD
100
AcDbEntity
  8
CutFirst
100
AcDbLine
 10
-117.0032443295482
 20
-14.55634918610375
 30
0.0
 11
-117.0032443295482
 21
-27.58578643762642
 31
0.0
  0
LINE
  5
31C
330
3BD
100
AcDbEntity
  8
CutFirst
100
AcDbLine
 10
-117.0032443295482
 20
55.44365081389625
 30
0.0
 11
-117.0032443295482
 21
42.41421356237358
 31
0.0
  0
LINE
  5
31D
330
3BD
100
AcDbEntity
  8
CutSecond
100
AcDbLine
 10
-351.2753222681905
 20
104.1789321881349
 30
0.0
 11
-172.2753222681905
 21
104.1789321881349
 31
0.0
  0
LINE
  5
31E
330
3BD
100
AcDbEntity
  8
CutSecond
100
AcDbLine
 10
-172.2753222681905
 20
104.1789321881349
 30
0.0
 11
-172.2753222681905
 21
112.9289321881349
 31
0.0
  0
LINE
  5
31F
330
3BD
100
AcDbEntity
  8
CutSecond
100
AcDbLine
 10
-172.2753222681905
 20
124.9289321881349
 30
0.0
 11
-172.2753222681905
 21
133.6789321881349
 31
0.0
  0
LINE
  5
320
330
3BD
100
AcDbEntity
  8
CutSecond
100
AcDbLine
 10
-172.2753222681905
 20
133.6789321881349
 30
0.0
 11
-351.2753222681905
 21
133.6789321881349
 31
0.0
  0
LINE
  5
321
330
3BD
100
AcDbEntity
  8
CutSecond
100
AcDbLine
 10
-351.2753222681905
 20
133.6789321881349
 30
0.0
 11
-351.2753222681905
 21
124.9289321881349
 31
0.0
  0
LINE
  5
322
330
3BD
100
AcDbEntity
  8
CutSecond
100
AcDbLine
 10
-351.2753222681905
 20
112.9289321881349
 30
0.0
 11
-351.2753222681905
 21
104.1789321881349
 31
0.0
  0
LINE
  5
323
330
3BD
100
AcDbEntity
  8
CutFirst
100
AcDbLine
 10
-223.5374398456581
 20
69.66984268192058
 30
0.0
 11
-219.5374398456581
 21
69.66984268192058
 31
0.0
  0
LINE
  5
324
330
3BD
100
AcDbEntity
  8
CutFirst
100
AcDbLine
 10
-219.5374398456581
 20
69.66984268192058
 30
0.0
 11
-219.5374398456581
 21
79.66984268192058
 31
0.0
  0
LINE
  5
325
330
3BD
100
AcDbEntity
  8
CutFirst
100
AcDbLine
 10
-219.5374398456581
 20
79.66984268192058
 30
0.0
 11
-223.5374398456581
 21
79.66984268192058
 31
0.0
  0
LINE
  5
326
330
3BD
100
AcDbEntity
  8
CutFirst
100
AcDbLine
 10
-223.5374398456581
 20
79.66984268192058
 30
0.0
 11
-223.5374398456581
 21
69.66984268192058
 31
0.0
  0
LINE
  5
327
330
3BD
100
AcDbEntity
  8
CutFirst
100
AcDbLine
 10
-294.5374398456581
 20
69.66984268192058
 30
0.0
 11
-290.5374398456581
 21
69.66984268192058
 31
0.0
  0
LINE
  5
328
330
3BD
100
AcDbEntity
  8
CutFirst
100
AcDbLine
 10
-290.5374398456581
 20
69.66984268192058
 30
0.0
 11
-290.5374398456581
 21
79.66984268192058
 31
0.0
  0
LINE
  5
329
330
3BD
100
AcDbEntity
  8
CutFirst
100
AcDbLine
 10
-290.5374398456581
 20
79.66984268192058
 30
0.0
 11
-294.5374398456581
 21
79.66984268192058
 31
0.0
  0
LINE
  5
32A
330
3BD
100
AcDbEntity
  8
CutFirst
100
AcDbLine
 10
-294.5374398456581
 20
79.66984268192058
 30
0.0
 11
-294.5374398456581
 21
69.66984268192058
 31
0.0
  0
LINE
  5
32B
330
3BD
100
AcDbEntity
  8
CutSecond
100
AcDbLine
 10
-172.2753222681905
 20
112.9289321881349
 30
0.0
 11
-168.7753222681905
 21
112.9289321881349
 31
0.0
  0
LINE
  5
32C
330
3BD
100
AcDbEntity
  8
CutSecond
100
AcDbLine
 10
-168.7753222681905
 20
112.9289321881349
 30
0.0
 11
-168.7753222681905
 21
124.9289321881349
 31
0.0
  0
LINE
  5
32D
330
3BD
100
AcDbEntity
  8
CutSecond
100
AcDbLine
 10
-168.7753222681905
 20
124.9289321881349
 30
0.0
 11
-172.2753222681905
 21
124.9289321881349
 31
0.0
  0
LINE
  5
32E
330
3BD
100
AcDbEntity
  8
CutSecond
100
AcDbLine
 10
-354.7753222681905
 20
112.9289321881349
 30
0.0
 11
-351.2753222681905
 21
112.9289321881349
 31
0.0
  0
LINE
  5
32F
330
3BD
100
AcDbEntity
  8
CutSecond
100
AcDbLine
 10
-351.2753222681905
 20
124.9289321881349
 30
0.0
 11
-354.7753222681905
 21
124.9289321881349
 31
0.0
  0
LINE
  5
330
330
3BD
100
AcDbEntity
  8
CutSecond
100
AcDbLine
 10
-354.7753222681905
 20
124.9289321881349
 30
0.0
 11
-354.7753222681905
 21
112.9289321881349
 31
0.0
  0
LINE
  5
331
330
3BD
100
AcDbEntity
  8
CutSecond
100
AcDbLine
 10
-25.65685424949253
 20
75.65685424949277
 30
0.0
 11
-47.79898987322359
 21
75.65685424949274
 31
0.0
  0
LINE
  5
332
330
3BD
100
AcDbEntity
  8
CutSecond
100
AcDbLine
 10
-47.79898987322359
 20
75.65685424949274
 30
0.0
 11
-63.45584412271579
 21
60.00000000000028
 31
0.0
  0
LINE
  5
333
330
3BD
100
AcDbEntity
  8
CutSecond
100
AcDbLine
 10
-63.45584412271579
 20
60.00000000000028
 30
0.0
 11
-63.45584412271579
 21
37.85786437626937
 31
0.0
  0
LINE
  5
334
330
3BD
100
AcDbEntity
  8
CutSecond
100
AcDbLine
 10
-63.45584412271579
 20
37.85786437626937
 30
0.0
 11
-47.79898987322359
 21
22.2010101267771
 31
0.0
  0
LINE
  5
335
330
3BD
100
AcDbEntity
  8
CutSecond
100
AcDbLine
 10
-47.79898987322359
 20
22.2010101267771
 30
0.0
 11
-25.65685424949253
 21
22.20101012677703
 31
0.0
  0
LINE
  5
336
330
3BD
100
AcDbEntity
  8
CutSecond
100
AcDbLine
 10
-25.65685424949253
 20
22.20101012677703
 30
0.0
 11
-9.999999999999872
 21
37.85786437626957
 31
0.0
  0
LINE
  5
337
330
3BD
100
AcDbEntity
  8
CutSecond
100
AcDbLine
 10
-9.999999999999872
 20
37.85786437626957
 30
0.0
 11
-9.999999999999986
 21
59.99999999999999
 31
0.0
  0
LINE
  5
338
330
3BD
100
AcDbEntity
  8
CutSecond
100
AcDbLine
 10
-9.999999999999986
 20
59.99999999999999
 30
0.0
 11
-25.65685424949253
 21
75.65685424949277
 31
0.0
  0
LINE
  5
339
330
3BD
100
AcDbEntity
  8
CutSecond
100
AcDbLine
 10
-78.54740020683265
 20
53.92893218813484
 30
0.0
 11
-78.54740020683268
 21
58.34314575050784
 31
0.0
  0
LINE
  5
33A
330
3BD
100
AcDbEntity
  8
CutSecond
100
AcDbLine
 10
-78.54740020683268
 20
58.34314575050784
 30
0.0
 11
-91.86110870581733
 21
71.65685424949265
 31
0.0
  0
LINE
  5
33B
330
3BD
100
AcDbEntity
  8
CutSecond
100
AcDbLine
 10
-91.86110870581733
 20
71.65685424949265
 30
0.0
 11
-96.27532226819046
 21
71.65685424949265
 31
0.0
  0
LINE
  5
33C
330
3BD
100
AcDbEntity
  8
CutSecond
100
AcDbLine
 10
-106.2753222681905
 20
71.65685424949268
 30
0.0
 11
-110.6895358305635
 21
71.65685424949271
 31
0.0
  0
LINE
  5
33D
330
3BD
100
AcDbEntity
  8
CutSecond
100
AcDbLine
 10
-110.6895358305635
 20
71.65685424949271
 30
0.0
 11
-124.0032443295483
 21
58.34314575050794
 31
0.0
  0
LINE
  5
33E
330
3BD
100
AcDbEntity
  8
CutSecond
100
AcDbLine
 10
-124.0032443295483
 20
58.34314575050794
 30
0.0
 11
-124.0032443295483
 21
53.92893218813494
 31
0.0
  0
LINE
  5
33F
330
3BD
100
AcDbEntity
  8
CutSecond
100
AcDbLine
 10
-124.0032443295482
 20
43.92893218813493
 30
0.0
 11
-124.0032443295481
 21
39.51471862576192
 31
0.0
  0
LINE
  5
340
330
3BD
100
AcDbEntity
  8
CutSecond
100
AcDbLine
 10
-124.0032443295481
 20
39.51471862576192
 30
0.0
 11
-110.6895358305636
 21
26.20101012677717
 31
0.0
  0
LINE
  5
341
330
3BD
100
AcDbEntity
  8
CutSecond
100
AcDbLine
 10
-110.6895358305636
 20
26.20101012677717
 30
0.0
 11
-106.2753222681905
 21
26.20101012677712
 31
0.0
  0
LINE
  5
342
330
3BD
100
AcDbEntity
  8
CutSecond
100
AcDbLine
 10
-96.27532226819041
 20
26.20101012677704
 30
0.0
 11
-91.86110870581739
 21
26.201010126777
 31
0.0
  0
LINE
  5
343
330
3BD
100
AcDbEntity
  8
CutSecond
100
AcDbLine
 10
-91.86110870581739
 20
26.201010126777
 30
0.0
 11
-78.54740020683259
 21
39.51471862576174
 31
0.0
  0
LINE
  5
344
330
3BD
100
AcDbEntity
  8
CutSecond
100
AcDbLine
 10
-78.54740020683259
 20
39.51471862576174
 30
0.0
 11
-78.54740020683259
 21
43.92893218813487
 31
0.0
  0
LINE
  5
345
330
3BD
100
AcDbEntity
  8
CutSecond
100
AcDbLine
 10
-78.54740020683276
 20
-30.48528137423822
 30
0.0
 11
-78.54740020683265
 21
-11.65685424949208
 31
0.0
  0
LINE
  5
346
330
3BD
100
AcDbEntity
  8
CutSecond
100
AcDbLine
 10
-78.54740020683265
 20
-11.65685424949208
 30
0.0
 11
-91.86110870581739
 21
1.656854249492724
 31
0.0
  0
LINE
  5
347
330
3BD
100
AcDbEntity
  8
CutSecond
100
AcDbLine
 10
-91.86110870581739
 20
1.656854249492724
 30
0.0
 11
-110.6895358305636
 21
1.656854249492746
 31
0.0
  0
LINE
  5
348
330
3BD
100
AcDbEntity
  8
CutSecond
100
AcDbLine
 10
-110.6895358305636
 20
1.656854249492746
 30
0.0
 11
-124.0032443295481
 21
-11.65685424949202
 31
0.0
  0
LINE
  5
349
330
3BD
100
AcDbEntity
  8
CutSecond
100
AcDbLine
 10
-124.0032443295481
 20
-11.65685424949202
 30
0.0
 11
-124.0032443295482
 21
-30.48528137423809
 31
0.0
  0
LINE
  5
34A
330
3BD
100
AcDbEntity
  8
CutSecond
100
AcDbLine
 10
-124.0032443295482
 20
-30.48528137423809
 30
0.0
 11
-110.6895358305636
 21
-43.79898987322296
 31
0.0
  0
LINE
  5
34B
330
3BD
100
AcDbEntity
  8
CutSecond
100
AcDbLine
 10
-110.6895358305636
 20
-43.79898987322296
 30
0.0
 11
-91.86110870581739
 21
-43.79898987322299
 31
0.0
  0
LINE
  5
34C
330
3BD
100
AcDbEntity
  8
CutSecond
100
AcDbLine
 10
-91.86110870581739
 20
-43.79898987322299
 30
0.0
 11
-78.54740020683276
 21
-30.48528137423822
 31
0.0
  0
LINE
  5
34D
330
3BD
100
AcDbEntity
  8
CutSecond
100
AcDbLine
 10
-36.27532226819058
 20
1.656854249492689
 30
0.0
 11
-40.68953583056354
 21
1.656854249492699
 31
0.0
  0
LINE
  5
34E
330
3BD
100
AcDbEntity
  8
CutSecond
100
AcDbLine
 10
-40.68953583056354
 20
1.656854249492699
 30
0.0
 11
-54.00324432954834
 21
-11.65685424949206
 31
0.0
  0
LINE
  5
34F
330
3BD
100
AcDbEntity
  8
CutSecond
100
AcDbLine
 10
-54.00324432954834
 20
-11.65685424949206
 30
0.0
 11
-54.00324432954831
 21
-16.07106781186506
 31
0.0
  0
LINE
  5
350
330
3BD
100
AcDbEntity
  8
CutSecond
100
AcDbLine
 10
-8.547400206832648
 20
-16.07106781186516
 30
0.0
 11
-8.547400206832691
 21
-11.65685424949216
 31
0.0
  0
LINE
  5
351
330
3BD
100
AcDbEntity
  8
CutSecond
100
AcDbLine
 10
-8.547400206832691
 20
-11.65685424949216
 30
0.0
 11
-21.86110870581734
 21
1.656854249492667
 31
0.0
  0
LINE
  5
352
330
3BD
100
AcDbEntity
  8
CutSecond
100
AcDbLine
 10
-21.86110870581734
 20
1.656854249492667
 30
0.0
 11
-26.27532226819046
 21
1.65685424949266
 31
0.0
  0
LINE
  5
353
330
3BD
100
AcDbEntity
  8
CutSecond
100
AcDbLine
 10
-54.0032443295482
 20
-26.07106781186507
 30
0.0
 11
-54.00324432954814
 21
-30.48528137423808
 31
0.0
  0
LINE
  5
354
330
3BD
100
AcDbEntity
  8
CutSecond
100
AcDbLine
 10
-54.00324432954814
 20
-30.48528137423808
 30
0.0
 11
-40.68953583056357
 21
-43.79898987322283
 31
0.0
  0
LINE
  5
355
330
3BD
100
AcDbEntity
  8
CutSecond
100
AcDbLine
 10
-40.68953583056357
 20
-43.79898987322283
 30
0.0
 11
-36.27532226819055
 21
-43.79898987322288
 31
0.0
  0
LINE
  5
356
330
3BD
100
AcDbEntity
  8
CutSecond
100
AcDbLine
 10
-26.27532226819039
 20
-43.79898987322297
 30
0.0
 11
-21.86110870581739
 21
-43.798989873223
 31
0.0
  0
LINE
  5
357
330
3BD
100
AcDbEntity
  8
CutSecond
100
AcDbLine
 10
-21.86110870581739
 20
-43.798989873223
 30
0.0
 11
-8.547400206832592
 21
-30.48528137423826
 31
0.0
  0
LINE
  5
358
330
3BD
100
AcDbEntity
  8
CutSecond
100
AcDbLine
 10
-8.547400206832592
 20
-30.48528137423826
 30
0.0
 11
-8.547400206832592
 21
-26.07106781186513
 31
0.0
  0
LWPOLYLINE
  5
361
330
3BD
100
AcDbEntity
  8
CutFirst
100
AcDbPolyline
 90
        3
 70
   128
 43
0.0
 10
-114.1215163459029
 20
62.52512626584753
 42
0.9999999999999999
 10
-115.6215163459029
 20
62.52512626584753
 42
0.9999999999999999
 10
-114.1215163459029
 20
62.52512626584753
  0
LWPOLYLINE
  5
362
330
3BD
100
AcDbEntity
  8
CutFirst
100
AcDbPolyline
 90
        3
 70
   128
 43
0.0
 10
-114.1215163459029
 20
-7.474873734152474
 42
0.9999999999999999
 10
-115.6215163459029
 20
-7.474873734152474
 42
0.9999999999999999
 10
-114.1215163459029
 20
-7.474873734152474
  0
LWPOLYLINE
  5
364
330
3BD
100
AcDbEntity
  8
CutFirst
100
AcDbPolyline
 90
        3
 70
   128
 43
0.0
 10
-86.92912819047795
 20
62.52512626584748
 42
0.9999999999999999
 10
-88.42912819047795
 20
62.52512626584748
 42
0.9999999999999999
 10
-86.92912819047795
 20
62.52512626584748
  0
LWPOLYLINE
  5
365
330
3BD
100
AcDbEntity
  8
CutFirst
100
AcDbPolyline
 90
        3
 70
   128
 43
0.0
 10
-86.92912819047795
 20
-7.47487373415251
 42
0.9999999999999999
 10
-88.42912819047795
 20
-7.47487373415251
 42
0.9999999999999999
 10
-86.92912819047795
 20
-7.47487373415251
  0
LWPOLYLINE
  5
367
330
3BD
100
AcDbEntity
  8
CutFirst
100
AcDbPolyline
 90
        3
 70
   128
 43
0.0
 10
-86.92912819047784
 20
-34.66726188957768
 42
0.9999999999999999
 10
-88.42912819047784
 20
-34.66726188957768
 42
0.9999999999999999
 10
-86.92912819047784
 20
-34.66726188957768
  0
LWPOLYLINE
  5
368
330
3BD
100
AcDbEntity
  8
CutFirst
100
AcDbPolyline
 90
        3
 70
   128
 43
0.0
 10
-86.92912819047784
 20
35.33273811042232
 42
0.9999999999999999
 10
-88.42912819047784
 20
35.33273811042232
 42
0.9999999999999999
 10
-86.92912819047784
 20
35.33273811042232
  0
LWPOLYLINE
  5
36A
330
3BD
100
AcDbEntity
  8
CutFirst
100
AcDbPolyline
 90
        3
 70
   128
 43
0.0
 10
-114.121516345903
 20
-34.66726188957768
 42
0.9999999999999999
 10
-115.621516345903
 20
-34.66726188957768
 42
0.9999999999999999
 10
-114.121516345903
 20
-34.66726188957768
  0
LWPOLYLINE
  5
36B
330
3BD
100
AcDbEntity
  8
CutFirst
100
AcDbPolyline
 90
        3
 70
   128
 43
0.0
 10
-114.121516345903
 20
35.33273811042232
 42
0.9999999999999999
 10
-115.621516345903
 20
35.33273811042232
 42
0.9999999999999999
 10
-114.121516345903
 20
35.33273811042232
  0
LINE
  5
36D
330
3BD
100
AcDbEntity
  8
CutSecond
100
AcDbLine
 10
-124.0032443295482
 20
53.92893218813499
 30
0.0
 11
-128.0032443295482
 21
53.92893218813498
 31
0.0
  0
LINE
  5
36E
330
3BD
100
AcDbEntity
  8
CutSecond
100
AcDbLine
 10
-54.00324432954817
 20
-16.07106781186501
 30
0.0
 11
-58.0032443295482
 21
-16.07106781186502
 31
0.0
  0
LINE
  5
36F
330
3BD
100
AcDbEntity
  8
CutSecond
100
AcDbLine
 10
-128.0032443295482
 20
53.92893218813498
 30
0.0
 11
-128.0032443295482
 21
43.92893218813494
 31
0.0
  0
LINE
  5
370
330
3BD
100
AcDbEntity
  8
CutSecond
100
AcDbLine
 10
-58.0032443295482
 20
-16.07106781186502
 30
0.0
 11
-58.00324432954822
 21
-26.07106781186506
 31
0.0
  0
LINE
  5
371
330
3BD
100
AcDbEntity
  8
CutSecond
100
AcDbLine
 10
-128.0032443295482
 20
43.92893218813494
 30
0.0
 11
-124.0032443295482
 21
43.92893218813494
 31
0.0
  0
LINE
  5
372
330
3BD
100
AcDbEntity
  8
CutSecond
100
AcDbLine
 10
-58.00324432954822
 20
-26.07106781186506
 30
0.0
 11
-54.00324432954822
 21
-26.07106781186506
 31
0.0
  0
LINE
  5
373
330
3BD
100
AcDbEntity
  8
CutSecond
100
AcDbLine
 10
-106.2753222681905
 20
26.20101012677707
 30
0.0
 11
-106.2753222681905
 21
22.20101012677705
 31
0.0
  0
LINE
  5
374
330
3BD
100
AcDbEntity
  8
CutSecond
100
AcDbLine
 10
-36.27532226819049
 20
-43.79898987322294
 30
0.0
 11
-36.27532226819052
 21
-47.79898987322296
 31
0.0
  0
LINE
  5
375
330
3BD
100
AcDbEntity
  8
CutSecond
100
AcDbLine
 10
-106.2753222681905
 20
22.20101012677705
 30
0.0
 11
-96.2753222681905
 21
22.20101012677708
 31
0.0
  0
LINE
  5
376
330
3BD
100
AcDbEntity
  8
CutSecond
100
AcDbLine
 10
-36.27532226819052
 20
-47.79898987322296
 30
0.0
 11
-26.27532226819049
 21
-47.79898987322292
 31
0.0
  0
LINE
  5
377
330
3BD
100
AcDbEntity
  8
CutSecond
100
AcDbLine
 10
-96.2753222681905
 20
22.20101012677708
 30
0.0
 11
-96.27532226819046
 21
26.2010101267771
 31
0.0
  0
LINE
  5
378
330
3BD
100
AcDbEntity
  8
CutSecond
100
AcDbLine
 10
-26.27532226819049
 20
-47.79898987322292
 30
0.0
 11
-26.27532226819046
 21
-43.79898987322291
 31
0.0
  0
LINE
  5
379
330
3BD
100
AcDbEntity
  8
CutSecond
100
AcDbLine
 10
-78.54740020683265
 20
43.92893218813476
 30
0.0
 11
-74.54740020683265
 21
43.92893218813478
 31
0.0
  0
LINE
  5
37A
330
3BD
100
AcDbEntity
  8
CutSecond
100
AcDbLine
 10
-8.547400206832663
 20
-26.07106781186522
 30
0.0
 11
-4.547400206832648
 21
-26.07106781186522
 31
0.0
  0
LINE
  5
37B
330
3BD
100
AcDbEntity
  8
CutSecond
100
AcDbLine
 10
-74.54740020683265
 20
43.92893218813478
 30
0.0
 11
-74.54740020683259
 21
53.92893218813482
 31
0.0
  0
LINE
  5
37C
330
3BD
100
AcDbEntity
  8
CutSecond
100
AcDbLine
 10
-4.547400206832648
 20
-26.07106781186522
 30
0.0
 11
-4.547400206832592
 21
-16.07106781186518
 31
0.0
  0
LINE
  5
37D
330
3BD
100
AcDbEntity
  8
CutSecond
100
AcDbLine
 10
-74.54740020683259
 20
53.92893218813482
 30
0.0
 11
-78.54740020683262
 21
53.92893218813481
 31
0.0
  0
LINE
  5
37E
330
3BD
100
AcDbEntity
  8
CutSecond
100
AcDbLine
 10
-4.547400206832592
 20
-16.07106781186518
 30
0.0
 11
-8.54740020683262
 21
-16.07106781186519
 31
0.0
  0
LINE
  5
37F
330
3BD
100
AcDbEntity
  8
CutSecond
100
AcDbLine
 10
-96.27532226819038
 20
71.65685424949274
 30
0.0
 11
-96.27532226819038
 21
75.65685424949277
 31
0.0
  0
LINE
  5
380
330
3BD
100
AcDbEntity
  8
CutSecond
100
AcDbLine
 10
-26.27532226819038
 20
1.656854249492746
 30
0.0
 11
-26.27532226819037
 21
5.656854249492756
 31
0.0
  0
LINE
  5
381
330
3BD
100
AcDbEntity
  8
CutSecond
100
AcDbLine
 10
-96.27532226819038
 20
75.65685424949277
 30
0.0
 11
-106.2753222681904
 21
75.65685424949271
 31
0.0
  0
LINE
  5
382
330
3BD
100
AcDbEntity
  8
CutSecond
100
AcDbLine
 10
-26.27532226819037
 20
5.656854249492756
 30
0.0
 11
-36.27532226819041
 21
5.656854249492717
 31
0.0
  0
LINE
  5
383
330
3BD
100
AcDbEntity
  8
CutSecond
100
AcDbLine
 10
-106.2753222681904
 20
75.65685424949271
 30
0.0
 11
-106.2753222681904
 21
71.65685424949271
 31
0.0
  0
LINE
  5
384
330
3BD
100
AcDbEntity
  8
CutSecond
100
AcDbLine
 10
-36.27532226819041
 20
5.656854249492717
 30
0.0
 11
-36.27532226819041
 21
1.656854249492703
 31
0.0
  0
LWPOLYLINE
  5
385
330
3BD
100
AcDbEntity
  8
CutFirst
100
AcDbPolyline
 90
        3
 70
   128
 43
0.0
 10
-21.03172798364515
 20
35.33273811042221
 42
0.9999999999999999
 10
-25.2317279836452
 20
35.33273811042221
 42
0.9999999999999999
 10
-21.03172798364515
 20
35.33273811042221
  0
LWPOLYLINE
  5
386
330
3BD
100
AcDbEntity
  8
CutFirst
100
AcDbPolyline
 90
        3
 70
   128
 43
0.0
 10
-48.22411613907035
 20
35.33273811042221
 42
0.9999999999999999
 10
-52.42411613907039
 20
35.33273811042221
 42
0.9999999999999999
 10
-48.22411613907035
 20
35.33273811042221
  0
LWPOLYLINE
  5
387
330
3BD
100
AcDbEntity
  8
CutFirst
100
AcDbPolyline
 90
        3
 70
   128
 43
0.0
 10
-21.03172798364527
 20
62.52512626584738
 42
0.9999999999999999
 10
-25.23172798364531
 20
62.52512626584738
 42
0.9999999999999999
 10
-21.03172798364527
 20
62.52512626584738
  0
LWPOLYLINE
  5
388
330
3BD
100
AcDbEntity
  8
CutFirst
100
AcDbPolyline
 90
        3
 70
   128
 43
0.0
 10
-48.22411613907023
 20
62.52512626584743
 42
0.9999999999999999
 10
-52.42411613907028
 20
62.52512626584743
 42
0.9999999999999999
 10
-48.22411613907023
 20
62.52512626584743
  0
LINE
  5
389
330
3BD
100
AcDbEntity
  8
CutSecond
100
AcDbLine
 10
-354.5374398456581
 20
65.25984268192059
 30
0.0
 11
-159.5374398456581
 21
65.25984268192059
 31
0.0
  0
LINE
  5
38A
330
3BD
100
AcDbEntity
  8
CutSecond
100
AcDbLine
 10
-357.5920206197335
 20
4.439346912326229
 30
0.0
 11
-162.5920206197335
 21
4.439346912326229
 31
0.0
  0
LINE
  5
38B
330
3BD
100
AcDbEntity
  8
CutSecond
100
AcDbLine
 10
-159.5374398456581
 20
65.25984268192059
 30
0.0
 11
-159.5374398456581
 21
69.66984268192058
 31
0.0
  0
LINE
  5
38C
330
3BD
100
AcDbEntity
  8
CutSecond
100
AcDbLine
 10
-159.5374398456581
 20
79.66984268192058
 30
0.0
 11
-159.5374398456581
 21
84.07984268192058
 31
0.0
  0
LINE
  5
38D
330
3BD
100
AcDbEntity
  8
CutSecond
100
AcDbLine
 10
-162.5920206197335
 20
4.439346912326229
 30
0.0
 11
-162.5920206197335
 21
8.849346912326219
 31
0.0
  0
LINE
  5
38E
330
3BD
100
AcDbEntity
  8
CutSecond
100
AcDbLine
 10
-162.5920206197335
 20
18.84934691232622
 30
0.0
 11
-162.5920206197335
 21
23.25934691232622
 31
0.0
  0
LINE
  5
38F
330
3BD
100
AcDbEntity
  8
CutSecond
100
AcDbLine
 10
-159.5374398456581
 20
84.07984268192058
 30
0.0
 11
-354.5374398456581
 21
84.07984268192058
 31
0.0
  0
LINE
  5
390
330
3BD
100
AcDbEntity
  8
CutSecond
100
AcDbLine
 10
-162.5920206197335
 20
23.25934691232622
 30
0.0
 11
-357.5920206197335
 21
23.25934691232622
 31
0.0
  0
LINE
  5
391
330
3BD
100
AcDbEntity
  8
CutSecond
100
AcDbLine
 10
-354.5374398456581
 20
84.07984268192058
 30
0.0
 11
-354.5374398456581
 21
79.66984268192058
 31
0.0
  0
LINE
  5
392
330
3BD
100
AcDbEntity
  8
CutSecond
100
AcDbLine
 10
-354.5374398456581
 20
69.66984268192058
 30
0.0
 11
-354.5374398456581
 21
65.25984268192059
 31
0.0
  0
LINE
  5
393
330
3BD
100
AcDbEntity
  8
CutSecond
100
AcDbLine
 10
-357.5920206197335
 20
23.25934691232622
 30
0.0
 11
-357.5920206197335
 21
18.84934691232623
 31
0.0
  0
LINE
  5
394
330
3BD
100
AcDbEntity
  8
CutSecond
100
AcDbLine
 10
-357.5920206197335
 20
8.849346912326219
 30
0.0
 11
-357.5920206197335
 21
4.439346912326229
 31
0.0
  0
LINE
  5
395
330
3BD
100
AcDbEntity
  8
CutSecond
100
AcDbLine
 10
-159.5374398456581
 20
79.66984268192058
 30
0.0
 11
-163.5374398456581
 21
79.66984268192058
 31
0.0
  0
LINE
  5
396
330
3BD
100
AcDbEntity
  8
CutSecond
100
AcDbLine
 10
-163.5374398456581
 20
79.66984268192058
 30
0.0
 11
-163.5374398456581
 21
69.66984268192058
 31
0.0
  0
LINE
  5
397
330
3BD
100
AcDbEntity
  8
CutSecond
100
AcDbLine
 10
-163.5374398456581
 20
69.66984268192058
 30
0.0
 11
-159.5374398456581
 21
69.66984268192058
 31
0.0
  0
LINE
  5
398
330
3BD
100
AcDbEntity
  8
CutSecond
100
AcDbLine
 10
-354.5374398456581
 20
79.66984268192058
 30
0.0
 11
-350.5374398456581
 21
79.66984268192058
 31
0.0
  0
LINE
  5
399
330
3BD
100
AcDbEntity
  8
CutSecond
100
AcDbLine
 10
-350.5374398456581
 20
79.66984268192058
 30
0.0
 11
-350.5374398456581
 21
69.66984268192058
 31
0.0
  0
LINE
  5
39A
330
3BD
100
AcDbEntity
  8
CutSecond
100
AcDbLine
 10
-350.5374398456581
 20
69.66984268192058
 30
0.0
 11
-354.5374398456581
 21
69.66984268192058
 31
0.0
  0
LINE
  5
39B
330
3BD
100
AcDbEntity
  8
CutSecond
100
AcDbLine
 10
-357.5920206197335
 20
18.84934691232622
 30
0.0
 11
-357.5920206197335
 21
8.849346912326219
 31
0.0
  0
LINE
  5
39C
330
3BD
100
AcDbEntity
  8
CutSecond
100
AcDbLine
 10
-162.5920206197335
 20
18.84934691232622
 30
0.0
 11
-162.5920206197335
 21
8.849346912326219
 31
0.0
  0
VIEWPORT
  5
480
330
3B9
100
AcDbEntity
 67
     1
  8
0
 62
    18
420
        0
100
AcDbViewport
 10
128.5
 20
97.5
 30
0.0
 40
314.226
 41
222.18
 68
     1
 69
     1
 12
128.5
 22
97.5
 13
0.0
 23
0.0
 14
10.0
 24
10.0
 15
10.0
 25
10.0
 16
0.0
 26
0.0
 36
1.0
 17
0.0
 27
0.0
 37
0.0
 42
50.0
 43
0.0
 44
0.0
 45
222.18
 50
0.0
 51
0.0
 72
   100
 90
   557152
  1

281
     0
 71
     1
 74
     0
110
0.0
120
0.0
130
0.0
111
1.0
121
0.0
131
0.0
112
0.0
122
1.0
132
0.0
 79
     0
146
0.0
170
     0
 61
     5
348
3CD
292
     1
282
     1
141
0.0
142
0.0
 63
   256
361
481
  0
ENDSEC
  0
SECTION
  2
OBJECTS
  0
DICTIONARY
  5
3AB
330
0
100
AcDbDictionary
281
     1
  3
ACAD_DETAILVIEWSTYLE
350
489
  3
ACAD_GROUP
350
3AC
  3
ACAD_LAYOUT
350
3B8
  3
ACAD_MATERIAL
350
3E1
  3
ACAD_MLEADERSTYLE
350
409
  3
ACAD_MLINESTYLE
350
3B5
  3
ACAD_PLOTSETTINGS
350
3B7
  3
ACAD_PLOTSTYLENAME
350
3AD
  3
ACAD_SCALELIST
350
3E5
  3
ACAD_SECTIONVIEWSTYLE
350
48A
  3
ACAD_TABLESTYLE
350
407
  3
ACAD_VISUALSTYLE
350
3C8
  3
ACDB_RECOMPOSE_DATA
350
486
  3
AcDbVariableDictionary
350
482
  3
QCAD_OBJECTS
350
40D
  0
SUN
  5
40B
330
3C7
100
AcDbSun
 90
        1
290
     0
 63
     7
421
 16777215
 40
1.0
291
     1
 91
  2455826
 92
 54000000
292
     0
 70
     2
 71
   256
280
     1
  0
SUN
  5
481
330
480
100
AcDbSun
 90
        1
290
     0
 63
     7
421
 16777215
 40
1.0
291
     1
 91
  2455826
 92
 54000000
292
     0
 70
     2
 71
   256
280
     1
  0
DICTIONARY
  5
489
102
{ACAD_REACTORS
330
3AB
102
}
330
3AB
100
AcDbDictionary
281
     1
  0
DICTIONARY
  5
3AC
102
{ACAD_REACTORS
330
3AB
102
}
330
3AB
100
AcDbDictionary
281
     1
  0
DICTIONARY
  5
3B8
102
{ACAD_REACTORS
330
3AB
102
}
330
3AB
100
AcDbDictionary
281
     1
  3
Layout1
350
3BC
  3
Model
350
3C0
  0
DICTIONARY
  5
3E1
102
{ACAD_REACTORS
330
3AB
102
}
330
3AB
100
AcDbDictionary
281
     1
  3
ByBlock
350
3E3
  3
ByLayer
350
3E2
  3
Global
350
3E4
  0
DICTIONARY
  5
409
102
{ACAD_REACTORS
330
3AB
102
}
330
3AB
100
AcDbDictionary
281
     1
  3
Standard
350
40A
  0
DICTIONARY
  5
3B5
102
{ACAD_REACTORS
330
3AB
102
}
330
3AB
100
AcDbDictionary
281
     1
  3
Standard
350
3B6
  0
DICTIONARY
  5
3B7
102
{ACAD_REACTORS
330
3AB
102
}
330
3AB
100
AcDbDictionary
281
     1
  0
ACDBDICTIONARYWDFLT
  5
3AD
102
{ACAD_REACTORS
330
3AB
102
}
330
3AB
100
AcDbDictionary
281
     1
  3
Normal
350
3AE
100
AcDbDictionaryWithDefault
340
3AE
  0
DICTIONARY
  5
3E5
102
{ACAD_REACTORS
330
3AB
102
}
330
3AB
100
AcDbDictionary
281
     1
  3
A0
350
3E6
  3
A1
350
3E7
  3
A2
350
3E8
  3
A3
350
3E9
  3
A4
350
3EA
  3
A5
350
3EB
  3
A6
350
3EC
  3
A7
350
3ED
  3
A8
350
3EE
  3
A9
350
3EF
  3
B0
350
3F0
  3
B1
350
3F1
  3
B2
350
3F2
  3
B3
350
3F3
  3
B4
350
3F4
  3
B5
350
3F5
  3
B6
350
3F6
  3
B7
350
3F7
  3
B8
350
3F8
  3
B9
350
3F9
  3
C0
350
3FA
  3
C1
350
3FB
  3
C2
350
3FC
  3
C3
350
3FD
  3
C4
350
3FE
  3
C5
350
3FF
  3
C6
350
400
  3
C7
350
401
  3
C8
350
402
  3
C9
350
403
  3
D0
350
404
  3
D1
350
405
  3
D2
350
406
  0
DICTIONARY
  5
48A
102
{ACAD_REACTORS
330
3AB
102
}
330
3AB
100
AcDbDictionary
281
     1
  0
DICTIONARY
  5
407
102
{ACAD_REACTORS
330
3AB
102
}
330
3AB
100
AcDbDictionary
281
     1
  3
Standard
350
408
  0
DICTIONARY
  5
3C8
102
{ACAD_REACTORS
330
3AB
102
}
330
3AB
100
AcDbDictionary
281
     1
  3
2dWireframe
350
3CD
  3
Basic
350
3D0
  3
Brighten
350
3D4
  3
ColorChange
350
3D8
  3
Conceptual
350
3D2
  3
Dim
350
3D3
  3
EdgeColorOff
350
3DB
  3
Facepattern
350
3D7
  3
Flat
350
3C9
  3
FlatWithEdges
350
3CA
  3
Gouraud
350
3CB
  3
GouraudWithEdges
350
3CC
  3
Hidden
350
3CF
  3
JitterOff
350
3D9
  3
Linepattern
350
3D6
  3
OverhangOff
350
3DA
  3
Realistic
350
3D1
  3
Shaded
350
3E0
  3
Shaded with edges
350
3DF
  3
Shades of Gray
350
3DC
  3
Sketchy
350
3DD
  3
Thicken
350
3D5
  3
Wireframe
350
3CE
  3
X-Ray
350
3DE
  0
XRECORD
  5
486
102
{ACAD_REACTORS
330
3AB
102
}
330
3AB
100
AcDbXrecord
280
     1
 90
        1
330
408
  0
DICTIONARY
  5
482
102
{ACAD_REACTORS
330
3AB
102
}
330
3AB
100
AcDbDictionary
281
     1
  3
CANNOSCALE
350
483
  3
CMLEADERSTYLE
350
488
  3
CTABLESTYLE
350
487
  0
DICTIONARY
  5
40D
102
{ACAD_REACTORS
330
3AB
102
}
330
3AB
100
AcDbDictionary
281
     1
  3
ColorSettings/BackgroundColor
350
40F
  3
ColorSettings/ColorMode
350
410
  3
Grid/DisplayGrid00
350
411
  3
Grid/DisplayGrid01
350
412
  3
Grid/DisplayGrid02
350
413
  3
Grid/DisplayGrid03
350
414
  3
Grid/GridSpacingX00
350
415
  3
Grid/GridSpacingX01
350
416
  3
Grid/GridSpacingX02
350
417
  3
Grid/GridSpacingX03
350
418
  3
Grid/GridSpacingY00
350
419
  3
Grid/GridSpacingY01
350
41A
  3
Grid/GridSpacingY02
350
41B
  3
Grid/GridSpacingY03
350
41C
  3
Grid/IsometricGrid00
350
41D
  3
Grid/IsometricGrid01
350
41E
  3
Grid/IsometricGrid02
350
41F
  3
Grid/IsometricGrid03
350
420
  3
Grid/IsometricProjection00
350
421
  3
Grid/IsometricProjection01
350
422
  3
Grid/IsometricProjection02
350
423
  3
Grid/IsometricProjection03
350
424
  3
Grid/MetaGridSpacingX00
350
425
  3
Grid/MetaGridSpacingX01
350
426
  3
Grid/MetaGridSpacingX02
350
427
  3
Grid/MetaGridSpacingX03
350
428
  3
Grid/MetaGridSpacingY00
350
429
  3
Grid/MetaGridSpacingY01
350
42A
  3
Grid/MetaGridSpacingY02
350
42B
  3
Grid/MetaGridSpacingY03
350
42C
  3
MultiPageSettings/Columns
350
42D
  3
MultiPageSettings/GlueMarginsBottom
350
42E
  3
MultiPageSettings/GlueMarginsLeft
350
42F
  3
MultiPageSettings/GlueMarginsRight
350
430
  3
MultiPageSettings/GlueMarginsTop
350
431
  3
MultiPageSettings/PrintCropMarks
350
432
  3
MultiPageSettings/Rows
350
433
  3
PageSettings/OffsetX
350
434
  3
PageSettings/OffsetY
350
435
  3
PageSettings/PageOrientation
350
436
  3
PageSettings/PaperHeight
350
437
  3
PageSettings/PaperWidth
350
438
  3
PageSettings/Scale
350
439
  3
PageSettings/ShowPaperBorders
350
43A
  3
QCADVersion
350
43B
  3
UnitSettings/PaperUnit
350
43C
  3
ViewportCenter
350
43D
  3
ViewportHeight
350
43E
  3
ViewportWidth
350
43F
  0
LAYOUT
  5
3BC
102
{ACAD_REACTORS
330
3B8
102
}
330
3B8
100
AcDbPlotSettings
  1

  2
none_device
  4
ISO_A4_(210.00_x_297.00_MM)
  6

 40
7.5
 41
20.0
 42
7.5
 43
20.0
 44
210.0
 45
297.0
 46
0.0
 47
0.0
 48
0.0
 49
0.0
140
0.0
141
0.0
142
1.0
143
1.0
 70
   688
 72
     1
 73
     1
 74
     5
  7

 75
    16
 76
     0
 77
     2
 78
   300
147
1.0
148
0.0
149
0.0
100
AcDbLayout
  1
Layout1
 70
     1
 71
     0
 10
-20.0
 20
-7.5
 11
277.0
 21
202.5
 12
0.0
 22
0.0
 32
0.0
 14
0.0
 24
0.0
 34
0.0
 15
0.0
 25
0.0
 35
0.0
146
0.0
 13
0.0
 23
0.0
 33
0.0
 16
1.0
 26
0.0
 36
0.0
 17
0.0
 27
1.0
 37
0.0
 76
     0
330
3B9
331
480
  0
LAYOUT
  5
3C0
102
{ACAD_REACTORS
330
3B8
102
}
330
3B8
100
AcDbPlotSettings
  1

  2
none_device
  4
Letter_(8.50_x_11.00_Inches)
  6

 40
6.35
 41
6.35
 42
6.35000508
 43
6.35000508
 44
215.9
 45
279.4
 46
0.0
 47
0.0
 48
0.0
 49
0.0
140
0.0
141
0.0
142
1.0
143
1.0
 70
  1712
 72
     0
 73
     0
 74
     0
  7

 75
     0
 76
     0
 77
     2
 78
   300
147
1.0
148
0.0
149
0.0
100
AcDbLayout
  1
Model
 70
     1
 71
     0
 10
0.0
 20
0.0
 11
12.0
 21
9.0
 12
0.0
 22
0.0
 32
0.0
 14
1.000000000000000E+20
 24
1.000000000000000E+20
 34
1.000000000000000E+20
 15
-1.000000000000000E+20
 25
-1.000000000000000E+20
 35
-1.000000000000000E+20
146
0.0
 13
0.0
 23
0.0
 33
0.0
 16
1.0
 26
0.0
 36
0.0
 17
0.0
 27
1.0
 37
0.0
 76
     0
330
3BD
331
3C7
  0
MATERIAL
  5
3E3
102
{ACAD_REACTORS
330
3E1
102
}
330
3E1
100
AcDbMaterial
  1
ByBlock
 72
     1
 94
      127
  0
MATERIAL
  5
3E2
102
{ACAD_REACTORS
330
3E1
102
}
330
3E1
100
AcDbMaterial
  1
ByLayer
 72
     1
 94
      127
  0
MATERIAL
  5
3E4
102
{ACAD_REACTORS
330
3E1
102
}
330
3E1
100
AcDbMaterial
  1
Global
 72
     1
 94
      127
  0
MLEADERSTYLE
  5
40A
102
{ACAD_REACTORS
330
409
102
}
330
409
100
AcDbMLeaderStyle
179
     2
170
     2
171
     1
172
     0
 90
        2
 40
0.0
 41
0.0
173
     1
 91
-1056964608
340
3B2
 92
       -2
290
     1
 42
0.09
291
     1
 43
0.36
  3
Standard
341
0
 44
0.18
300

342
3B0
174
     1
178
     6
175
     1
176
     0
 93
-1056964608
 45
0.18
292
     0
297
     0
 46
0.18
343
0
 94
-1056964608
 47
1.0
 49
1.0
140
1.0
293
     1
141
0.0
294
     1
177
     0
142
1.0
295
     0
296
     0
143
0.125
271
     0
272
     9
273
     9
298
     0
  0
MLINESTYLE
  5
3B6
102
{ACAD_REACTORS
330
3B5
102
}
330
3B5
100
AcDbMlineStyle
  2
Standard
 70
     0
  3

 62
   256
 51
90.0
 52
90.0
 71
     2
 49
0.5
 62
   256
  6
BYLAYER
 49
-0.5
 62
   256
  6
BYLAYER
  0
ACDBPLACEHOLDER
  5
3AE
102
{ACAD_REACTORS
330
3AD
102
}
330
3AD
  0
SCALE
  5
3E6
102
{ACAD_REACTORS
330
3E5
102
}
330
3E5
100
AcDbScale
 70
     0
300
1:1
140
1.0
141
1.0
290
     1
  0
SCALE
  5
3E7
102
{ACAD_REACTORS
330
3E5
102
}
330
3E5
100
AcDbScale
 70
     0
300
1:2
140
1.0
141
2.0
290
     0
  0
SCALE
  5
3E8
102
{ACAD_REACTORS
330
3E5
102
}
330
3E5
100
AcDbScale
 70
     0
300
1:4
140
1.0
141
4.0
290
     0
  0
SCALE
  5
3E9
102
{ACAD_REACTORS
330
3E5
102
}
330
3E5
100
AcDbScale
 70
     0
300
1:5
140
1.0
141
5.0
290
     0
  0
SCALE
  5
3EA
102
{ACAD_REACTORS
330
3E5
102
}
330
3E5
100
AcDbScale
 70
     0
300
1:8
140
1.0
141
8.0
290
     0
  0
SCALE
  5
3EB
102
{ACAD_REACTORS
330
3E5
102
}
330
3E5
100
AcDbScale
 70
     0
300
1:10
140
1.0
141
10.0
290
     0
  0
SCALE
  5
3EC
102
{ACAD_REACTORS
330
3E5
102
}
330
3E5
100
AcDbScale
 70
     0
300
1:16
140
1.0
141
16.0
290
     0
  0
SCALE
  5
3ED
102
{ACAD_REACTORS
330
3E5
102
}
330
3E5
100
AcDbScale
 70
     0
300
1:20
140
1.0
141
20.0
290
     0
  0
SCALE
  5
3EE
102
{ACAD_REACTORS
330
3E5
102
}
330
3E5
100
AcDbScale
 70
     0
300
1:30
140
1.0
141
30.0
290
     0
  0
SCALE
  5
3EF
102
{ACAD_REACTORS
330
3E5
102
}
330
3E5
100
AcDbScale
 70
     0
300
1:40
140
1.0
141
40.0
290
     0
  0
SCALE
  5
3F0
102
{ACAD_REACTORS
330
3E5
102
}
330
3E5
100
AcDbScale
 70
     0
300
1:50
140
1.0
141
50.0
290
     0
  0
SCALE
  5
3F1
102
{ACAD_REACTORS
330
3E5
102
}
330
3E5
100
AcDbScale
 70
     0
300
1:100
140
1.0
141
100.0
290
     0
  0
SCALE
  5
3F2
102
{ACAD_REACTORS
330
3E5
102
}
330
3E5
100
AcDbScale
 70
     0
300
2:1
140
2.0
141
1.0
290
     0
  0
SCALE
  5
3F3
102
{ACAD_REACTORS
330
3E5
102
}
330
3E5
100
AcDbScale
 70
     0
300
4:1
140
4.0
141
1.0
290
     0
  0
SCALE
  5
3F4
102
{ACAD_REACTORS
330
3E5
102
}
330
3E5
100
AcDbScale
 70
     0
300
8:1
140
8.0
141
1.0
290
     0
  0
SCALE
  5
3F5
102
{ACAD_REACTORS
330
3E5
102
}
330
3E5
100
AcDbScale
 70
     0
300
10:1
140
10.0
141
1.0
290
     0
  0
SCALE
  5
3F6
102
{ACAD_REACTORS
330
3E5
102
}
330
3E5
100
AcDbScale
 70
     0
300
100:1
140
100.0
141
1.0
290
     0
  0
SCALE
  5
3F7
102
{ACAD_REACTORS
330
3E5
102
}
330
3E5
100
AcDbScale
 70
     0
300
1/128" = 1'-0"
140
0.0078125
141
12.0
290
     0
  0
SCALE
  5
3F8
102
{ACAD_REACTORS
330
3E5
102
}
330
3E5
100
AcDbScale
 70
     0
300
1/64" = 1'-0"
140
0.015625
141
12.0
290
     0
  0
SCALE
  5
3F9
102
{ACAD_REACTORS
330
3E5
102
}
330
3E5
100
AcDbScale
 70
     0
300
1/32" = 1'-0"
140
0.03125
141
12.0
290
     0
  0
SCALE
  5
3FA
102
{ACAD_REACTORS
330
3E5
102
}
330
3E5
100
AcDbScale
 70
     0
300
1/16" = 1'-0"
140
0.0625
141
12.0
290
     0
  0
SCALE
  5
3FB
102
{ACAD_REACTORS
330
3E5
102
}
330
3E5
100
AcDbScale
 70
     0
300
3/32" = 1'-0"
140
0.09375
141
12.0
290
     0
  0
SCALE
  5
3FC
102
{ACAD_REACTORS
330
3E5
102
}
330
3E5
100
AcDbScale
 70
     0
300
1/8" = 1'-0"
140
0.125
141
12.0
290
     0
  0
SCALE
  5
3FD
102
{ACAD_REACTORS
330
3E5
102
}
330
3E5
100
AcDbScale
 70
     0
300
3/16" = 1'-0"
140
0.1875
141
12.0
290
     0
  0
SCALE
  5
3FE
102
{ACAD_REACTORS
330
3E5
102
}
330
3E5
100
AcDbScale
 70
     0
300
1/4" = 1'-0"
140
0.25
141
12.0
290
     0
  0
SCALE
  5
3FF
102
{ACAD_REACTORS
330
3E5
102
}
330
3E5
100
AcDbScale
 70
     0
300
3/8" = 1'-0"
140
0.375
141
12.0
290
     0
  0
SCALE
  5
400
102
{ACAD_REACTORS
330
3E5
102
}
330
3E5
100
AcDbScale
 70
     0
300
1/2" = 1'-0"
140
0.5
141
12.0
290
     0
  0
SCALE
  5
401
102
{ACAD_REACTORS
330
3E5
102
}
330
3E5
100
AcDbScale
 70
     0
300
3/4" = 1'-0"
140
0.75
141
12.0
290
     0
  0
SCALE
  5
402
102
{ACAD_REACTORS
330
3E5
102
}
330
3E5
100
AcDbScale
 70
     0
300
1" = 1'-0"
140
1.0
141
12.0
290
     0
  0
SCALE
  5
403
102
{ACAD_REACTORS
330
3E5
102
}
330
3E5
100
AcDbScale
 70
     0
300
1-1/2" = 1'-0"
140
1.5
141
12.0
290
     0
  0
SCALE
  5
404
102
{ACAD_REACTORS
330
3E5
102
}
330
3E5
100
AcDbScale
 70
     0
300
3" = 1'-0"
140
3.0
141
12.0
290
     0
  0
SCALE
  5
405
102
{ACAD_REACTORS
330
3E5
102
}
330
3E5
100
AcDbScale
 70
     0
300
6" = 1'-0"
140
6.0
141
12.0
290
     0
  0
SCALE
  5
406
102
{ACAD_REACTORS
330
3E5
102
}
330
3E5
100
AcDbScale
 70
     0
300
1'-0" = 1'-0"
140
12.0
141
12.0
290
     0
  0
TABLESTYLE
  5
408
102
{ACAD_REACTORS
330
407
102
}
102
{ACAD_XDICTIONARY
360
484
102
}
330
407
100
AcDbTableStyle
  3
Standard
 70
     0
 71
     0
 40
0.06
 41
0.06
280
     0
281
     0
  7
Standard
140
0.18
170
     2
 62
     0
 63
   257
283
     0
 90
        4
 91
        0
  1

274
    -2
284
     1
 64
     0
275
    -2
285
     1
 65
     0
276
    -2
286
     1
 66
     0
277
    -2
287
     1
 67
     0
278
    -2
288
     1
 68
     0
279
    -2
289
     1
 69
     0
  7
Standard
140
0.25
170
     5
 62
     0
 63
   257
283
     0
 90
        4
 91
        0
  1

274
    -2
284
     1
 64
     0
275
    -2
285
     1
 65
     0
276
    -2
286
     1
 66
     0
277
    -2
287
     1
 67
     0
278
    -2
288
     1
 68
     0
279
    -2
289
     1
 69
     0
  7
Standard
140
0.18
170
     5
 62
     0
 63
   257
283
     0
 90
        4
 91
        0
  1

274
    -2
284
     1
 64
     0
275
    -2
285
     1
 65
     0
276
    -2
286
     1
 66
     0
277
    -2
287
     1
 67
     0
278
    -2
288
     1
 68
     0
279
    -2
289
     1
 69
     0
  0
VISUALSTYLE
  5
3CD
102
{ACAD_REACTORS
330
3C8
102
}
330
3C8
100
AcDbVisualStyle
  2
2dWireframe
 70
     4
177
     3
291
     0
 70
    58
 90
        0
176
     1
 90
        2
176
     1
 90
        0
176
     1
 90
        0
176
     1
 40
0.6
176
     1
 40
30.0
176
     1
 62
     7
420
 16777215
176
     1
 90
        1
176
     1
 90
        4
176
     1
 62
     7
176
     1
 62
   257
176
     1
 90
        1
176
     1
 90
        1
176
     1
 40
1.0
176
     1
 90
        0
176
     1
 62
   257
176
     1
 40
1.0
176
     1
 90
        1
176
     1
 90
        6
176
     1
 90
        2
176
     1
 62
     7
176
     1
 90
        5
176
     1
 90
        0
176
     1
 90
        0
176
     1
290
     0
176
     1
 90
        1
176
     1
 40
0.0
176
     1
 90
        0
176
     1
290
     1
176
     1
290
     1
176
     1
290
     0
176
     1
290
     0
176
     1
290
     0
176
     1
290
     0
176
     1
290
     0
176
     1
290
     0
176
     1
290
     0
176
     1
 90
       50
176
     1
 40
0.0
176
     1
 40
1.0
176
     1
 90
        0
176
     1
 62
    18
420
        0
176
     1
 90
       50
176
     1
 90
        3
176
     1
 62
     5
420
      255
176
     1
290
     0
176
     1
 90
       50
176
     1
 90
       50
176
     1
 90
       50
176
     1
290
     0
176
     1
 90
       50
176
     1
 62
   256
176
     0
 40
1.0
176
     0
 90
        2
176
     1
  1
strokes_ogs.tif
176
     1
290
     0
176
     1
 40
1.0
176
     1
 40
1.0
176
     1
  0
VISUALSTYLE
  5
3D0
102
{ACAD_REACTORS
330
3C8
102
}
330
3C8
100
AcDbVisualStyle
  2
Basic
 70
     7
177
     3
291
     1
 70
    58
 90
        1
176
     1
 90
        0
176
     1
 90
        1
176
     1
 90
        0
176
     1
 40
0.6
176
     1
 40
30.0
176
     1
 62
     7
420
 16777215
176
     1
 90
        0
176
     1
 90
        4
176
     1
 62
     7
176
     1
 62
   257
176
     1
 90
        1
176
     1
 90
        1
176
     1
 40
1.0
176
     1
 90
        8
176
     1
 62
     7
176
     1
 40
1.0
176
     1
 90
        1
176
     1
 90
        6
176
     1
 90
        2
176
     1
 62
     7
176
     1
 90
        5
176
     1
 90
        0
176
     1
 90
        0
176
     1
290
     0
176
     1
 90
        1
176
     1
 40
0.0
176
     1
 90
        0
176
     1
290
     0
176
     1
290
     1
176
     1
290
     1
176
     1
290
     0
176
     1
290
     0
176
     1
290
     0
176
     1
290
     0
176
     1
290
     0
176
     1
290
     0
176
     1
 90
       50
176
     1
 40
0.0
176
     1
 40
1.0
176
     1
 90
        0
176
     1
 62
    18
420
        0
176
     1
 90
       50
176
     1
 90
        3
176
     1
 62
     5
420
      255
176
     1
290
     0
176
     1
 90
       50
176
     1
 90
       50
176
     1
 90
       50
176
     1
290
     0
176
     1
 90
       50
176
     1
 62
   256
176
     0
 40
1.0
176
     0
 90
        2
176
     1
  1
strokes_ogs.tif
176
     1
290
     0
176
     1
 40
1.0
176
     1
 40
1.0
176
     1
  0
VISUALSTYLE
  5
3D4
102
{ACAD_REACTORS
330
3C8
102
}
330
3C8
100
AcDbVisualStyle
  2
Brighten
 70
    12
177
     3
291
     1
 70
    58
 90
        2
176
     1
 90
        2
176
     1
 90
        0
176
     1
 90
        0
176
     1
 40
0.6
176
     1
 40
30.0
176
     1
 62
     7
420
 16777215
176
     1
 90
        1
176
     1
 90
        4
176
     1
 62
     7
176
     1
 62
   257
176
     1
 90
        1
176
     1
 90
        1
176
     1
 40
1.0
176
     1
 90
        8
176
     1
 62
     7
176
     1
 40
1.0
176
     1
 90
        1
176
     1
 90
        6
176
     1
 90
        2
176
     1
 62
     7
176
     1
 90
        5
176
     1
 90
        0
176
     1
 90
        0
176
     1
290
     0
176
     1
 90
        1
176
     1
 40
50.0
176
     1
 90
        0
176
     1
290
     0
176
     1
290
     1
176
     1
290
     1
176
     1
290
     0
176
     1
290
     0
176
     1
290
     0
176
     1
290
     0
176
     1
290
     0
176
     1
290
     0
176
     1
 90
       50
176
     1
 40
0.0
176
     1
 40
1.0
176
     1
 90
        0
176
     1
 62
    18
420
        0
176
     1
 90
       50
176
     1
 90
        3
176
     1
 62
     5
420
      255
176
     1
290
     0
176
     1
 90
       50
176
     1
 90
       50
176
     1
 90
       50
176
     1
290
     0
176
     1
 90
       50
176
     1
 62
   256
176
     0
 40
1.0
176
     0
 90
        2
176
     1
  1
strokes_ogs.tif
176
     1
290
     0
176
     1
 40
1.0
176
     1
 40
1.0
176
     1
  0
VISUALSTYLE
  5
3D8
102
{ACAD_REACTORS
330
3C8
102
}
330
3C8
100
AcDbVisualStyle
  2
ColorChange
 70
    16
177
     3
291
     1
 70
    58
 90
        2
176
     1
 90
        2
176
     1
 90
        3
176
     1
 90
        0
176
     1
 40
0.6
176
     1
 40
30.0
176
     1
 62
     8
420
  8421504
176
     1
 90
        1
176
     1
 90
        4
176
     1
 62
     7
176
     1
 62
   257
176
     1
 90
        1
176
     1
 90
        1
176
     1
 40
1.0
176
     1
 90
        8
176
     1
 62
     8
420
  8421504
176
     1
 40
1.0
176
     1
 90
        1
176
     1
 90
        6
176
     1
 90
        2
176
     1
 62
     7
176
     1
 90
        5
176
     1
 90
        0
176
     1
 90
        0
176
     1
290
     0
176
     1
 90
        1
176
     1
 40
0.0
176
     1
 90
        0
176
     1
290
     0
176
     1
290
     1
176
     1
290
     1
176
     1
290
     0
176
     1
290
     0
176
     1
290
     0
176
     1
290
     0
176
     1
290
     0
176
     1
290
     0
176
     1
 90
       50
176
     1
 40
0.0
176
     1
 40
1.0
176
     1
 90
        0
176
     1
 62
    18
420
        0
176
     1
 90
       50
176
     1
 90
        3
176
     1
 62
     5
420
      255
176
     1
290
     0
176
     1
 90
       50
176
     1
 90
       50
176
     1
 90
       50
176
     1
290
     0
176
     1
 90
       50
176
     1
 62
   256
176
     0
 40
1.0
176
     0
 90
        2
176
     1
  1
strokes_ogs.tif
176
     1
290
     0
176
     1
 40
1.0
176
     1
 40
1.0
176
     1
  0
VISUALSTYLE
  5
3D2
102
{ACAD_REACTORS
330
3C8
102
}
330
3C8
100
AcDbVisualStyle
  2
Conceptual
 70
     9
177
     3
291
     0
 70
    58
 90
        3
176
     1
 90
        2
176
     1
 90
        0
176
     1
 90
        0
176
     1
 40
0.6
176
     1
 40
30.0
176
     1
 62
     7
420
 16777215
176
     1
 90
        2
176
     1
 90
        2
176
     1
 62
     7
176
     1
 62
   257
176
     1
 90
        1
176
     1
 90
        1
176
     1
 40
179.0
176
     1
 90
        8
176
     1
 62
     7
176
     1
 40
1.0
176
     1
 90
        1
176
     1
 90
        6
176
     1
 90
        2
176
     1
 62
     7
176
     1
 90
        3
176
     1
 90
        0
176
     1
 90
        0
176
     1
290
     0
176
     1
 90
        1
176
     1
 40
0.0
176
     1
 90
        0
176
     1
290
     0
176
     1
290
     1
176
     1
290
     1
176
     1
290
     0
176
     1
290
     0
176
     1
290
     0
176
     1
290
     0
176
     1
290
     0
176
     1
290
     0
176
     1
 90
       50
176
     1
 40
0.0
176
     1
 40
1.0
176
     1
 90
        0
176
     1
 62
    18
420
        0
176
     1
 90
       50
176
     1
 90
        3
176
     1
 62
     5
420
      255
176
     1
290
     0
176
     1
 90
       50
176
     1
 90
       50
176
     1
 90
       50
176
     1
290
     0
176
     1
 90
       50
176
     1
 62
   256
176
     0
 40
1.0
176
     0
 90
        2
176
     1
  1
strokes_ogs.tif
176
     1
290
     0
176
     1
 40
1.0
176
     1
 40
1.0
176
     1
  0
VISUALSTYLE
  5
3D3
102
{ACAD_REACTORS
330
3C8
102
}
330
3C8
100
AcDbVisualStyle
  2
Dim
 70
    11
177
     3
291
     1
 70
    58
 90
        2
176
     1
 90
        2
176
     1
 90
        0
176
     1
 90
        0
176
     1
 40
0.6
176
     1
 40
30.0
176
     1
 62
     7
420
 16777215
176
     1
 90
        1
176
     1
 90
        4
176
     1
 62
     7
176
     1
 62
   257
176
     1
 90
        1
176
     1
 90
        1
176
     1
 40
1.0
176
     1
 90
        8
176
     1
 62
     7
176
     1
 40
1.0
176
     1
 90
        1
176
     1
 90
        6
176
     1
 90
        2
176
     1
 62
     7
176
     1
 90
        5
176
     1
 90
        0
176
     1
 90
        0
176
     1
290
     0
176
     1
 90
        1
176
     1
 40
-50.0
176
     1
 90
        0
176
     1
290
     0
176
     1
290
     1
176
     1
290
     1
176
     1
290
     0
176
     1
290
     0
176
     1
290
     0
176
     1
290
     0
176
     1
290
     0
176
     1
290
     0
176
     1
 90
       50
176
     1
 40
0.0
176
     1
 40
1.0
176
     1
 90
        0
176
     1
 62
    18
420
        0
176
     1
 90
       50
176
     1
 90
        3
176
     1
 62
     5
420
      255
176
     1
290
     0
176
     1
 90
       50
176
     1
 90
       50
176
     1
 90
       50
176
     1
290
     0
176
     1
 90
       50
176
     1
 62
   256
176
     0
 40
1.0
176
     0
 90
        2
176
     1
  1
strokes_ogs.tif
176
     1
290
     0
176
     1
 40
1.0
176
     1
 40
1.0
176
     1
  0
VISUALSTYLE
  5
3DB
102
{ACAD_REACTORS
330
3C8
102
}
330
3C8
100
AcDbVisualStyle
  2
EdgeColorOff
 70
    22
177
     3
291
     1
 70
    58
 90
        2
176
     0
 90
        2
176
     0
 90
        0
176
     0
 90
        0
176
     0
 40
0.6
176
     0
 40
30.0
176
     0
 62
     7
420
 16777215
176
     0
 90
        1
176
     0
 90
        4
176
     0
 62
     7
176
     0
 62
   257
176
     0
 90
        1
176
     0
 90
        1
176
     0
 40
1.0
176
     0
 90
        8
176
     2
 62
     7
176
     0
 40
1.0
176
     0
 90
        1
176
     0
 90
        6
176
     0
 90
        2
176
     0
 62
     7
176
     0
 90
        5
176
     0
 90
        0
176
     0
 90
        0
176
     0
290
     0
176
     0
 90
        1
176
     0
 40
0.0
176
     0
 90
        0
176
     0
290
     0
176
     0
290
     1
176
     0
290
     1
176
     0
290
     0
176
     0
290
     0
176
     0
290
     0
176
     0
290
     0
176
     0
290
     0
176
     0
290
     0
176
     0
 90
       50
176
     0
 40
0.0
176
     0
 40
1.0
176
     0
 90
        0
176
     0
 62
    18
420
        0
176
     0
 90
       50
176
     0
 90
        3
176
     0
 62
     5
420
      255
176
     0
290
     0
176
     0
 90
       50
176
     0
 90
       50
176
     0
 90
       50
176
     0
290
     0
176
     0
 90
       50
176
     0
 62
   256
176
     0
 40
1.0
176
     0
 90
        2
176
     0
  1
strokes_ogs.tif
176
     0
290
     0
176
     0
 40
1.0
176
     0
 40
1.0
176
     0
  0
VISUALSTYLE
  5
3D7
102
{ACAD_REACTORS
330
3C8
102
}
330
3C8
100
AcDbVisualStyle
  2
Facepattern
 70
    15
177
     3
291
     1
 70
    58
 90
        2
176
     1
 90
        2
176
     1
 90
        0
176
     1
 90
        0
176
     1
 40
0.6
176
     1
 40
30.0
176
     1
 62
     7
420
 16777215
176
     1
 90
        1
176
     1
 90
        4
176
     1
 62
     7
176
     1
 62
   257
176
     1
 90
        1
176
     1
 90
        1
176
     1
 40
1.0
176
     1
 90
        8
176
     1
 62
     7
176
     1
 40
1.0
176
     1
 90
        1
176
     1
 90
        6
176
     1
 90
        2
176
     1
 62
     7
176
     1
 90
        5
176
     1
 90
        0
176
     1
 90
        0
176
     1
290
     0
176
     1
 90
        1
176
     1
 40
0.0
176
     1
 90
        0
176
     1
290
     0
176
     1
290
     1
176
     1
290
     1
176
     1
290
     0
176
     1
290
     0
176
     1
290
     0
176
     1
290
     0
176
     1
290
     0
176
     1
290
     0
176
     1
 90
       50
176
     1
 40
0.0
176
     1
 40
1.0
176
     1
 90
        0
176
     1
 62
    18
420
        0
176
     1
 90
       50
176
     1
 90
        3
176
     1
 62
     5
420
      255
176
     1
290
     0
176
     1
 90
       50
176
     1
 90
       50
176
     1
 90
       50
176
     1
290
     0
176
     1
 90
       50
176
     1
 62
   256
176
     0
 40
1.0
176
     0
 90
        2
176
     1
  1
strokes_ogs.tif
176
     1
290
     0
176
     1
 40
1.0
176
     1
 40
1.0
176
     1
  0
VISUALSTYLE
  5
3C9
102
{ACAD_REACTORS
330
3C8
102
}
330
3C8
100
AcDbVisualStyle
  2
Flat
 70
     0
177
     3
291
     1
 70
    58
 90
        2
176
     1
 90
        1
176
     1
 90
        1
176
     1
 90
        2
176
     1
 40
0.6
176
     1
 40
30.0
176
     1
 62
     7
420
 16777215
176
     1
 90
        0
176
     1
 90
        0
176
     1
 62
     7
176
     1
 62
   257
176
     1
 90
        1
176
     1
 90
        1
176
     1
 40
1.0
176
     1
 90
        8
176
     1
 62
     7
176
     1
 40
1.0
176
     1
 90
        1
176
     1
 90
        6
176
     1
 90
        2
176
     1
 62
     7
176
     1
 90
        5
176
     1
 90
        0
176
     1
 90
        0
176
     1
290
     0
176
     1
 90
       13
176
     1
 40
0.0
176
     1
 90
        0
176
     1
290
     0
176
     1
290
     1
176
     1
290
     1
176
     1
290
     0
176
     1
290
     0
176
     1
290
     0
176
     1
290
     0
176
     1
290
     0
176
     1
290
     0
176
     1
 90
       50
176
     1
 40
0.0
176
     1
 40
1.0
176
     1
 90
        0
176
     1
 62
    18
420
        0
176
     1
 90
       50
176
     1
 90
        3
176
     1
 62
     5
420
      255
176
     1
290
     0
176
     1
 90
       50
176
     1
 90
       50
176
     1
 90
       50
176
     1
290
     0
176
     1
 90
       50
176
     1
 62
   256
176
     0
 40
1.0
176
     0
 90
        2
176
     1
  1
strokes_ogs.tif
176
     1
290
     0
176
     1
 40
1.0
176
     1
 40
1.0
176
     1
  0
VISUALSTYLE
  5
3CA
102
{ACAD_REACTORS
330
3C8
102
}
330
3C8
100
AcDbVisualStyle
  2
FlatWithEdges
 70
     1
177
     3
291
     1
 70
    58
 90
        2
176
     1
 90
        1
176
     1
 90
        1
176
     1
 90
        2
176
     1
 40
0.6
176
     1
 40
30.0
176
     1
 62
     7
420
 16777215
176
     1
 90
        1
176
     1
 90
        0
176
     1
 62
     7
176
     1
 62
   257
176
     1
 90
        1
176
     1
 90
        1
176
     1
 40
1.0
176
     1
 90
        0
176
     1
 62
   257
176
     1
 40
1.0
176
     1
 90
        1
176
     1
 90
        6
176
     1
 90
        2
176
     1
 62
     7
176
     1
 90
        5
176
     1
 90
        0
176
     1
 90
        0
176
     1
290
     0
176
     1
 90
       13
176
     1
 40
0.0
176
     1
 90
        0
176
     1
290
     0
176
     1
290
     1
176
     1
290
     1
176
     1
290
     0
176
     1
290
     0
176
     1
290
     0
176
     1
290
     0
176
     1
290
     0
176
     1
290
     0
176
     1
 90
       50
176
     1
 40
0.0
176
     1
 40
1.0
176
     1
 90
        0
176
     1
 62
    18
420
        0
176
     1
 90
       50
176
     1
 90
        3
176
     1
 62
     5
420
      255
176
     1
290
     0
176
     1
 90
       50
176
     1
 90
       50
176
     1
 90
       50
176
     1
290
     0
176
     1
 90
       50
176
     1
 62
   256
176
     0
 40
1.0
176
     0
 90
        2
176
     1
  1
strokes_ogs.tif
176
     1
290
     0
176
     1
 40
1.0
176
     1
 40
1.0
176
     1
  0
VISUALSTYLE
  5
3CB
102
{ACAD_REACTORS
330
3C8
102
}
330
3C8
100
AcDbVisualStyle
  2
Gouraud
 70
     2
177
     3
291
     1
 70
    58
 90
        2
176
     1
 90
        2
176
     1
 90
        1
176
     1
 90
        2
176
     1
 40
0.6
176
     1
 40
30.0
176
     1
 62
     7
420
 16777215
176
     1
 90
        0
176
     1
 90
        0
176
     1
 62
     7
176
     1
 62
   257
176
     1
 90
        1
176
     1
 90
        1
176
     1
 40
1.0
176
     1
 90
        0
176
     1
 62
     7
176
     1
 40
1.0
176
     1
 90
        1
176
     1
 90
        6
176
     1
 90
        2
176
     1
 62
     7
176
     1
 90
        5
176
     1
 90
        0
176
     1
 90
        0
176
     1
290
     0
176
     1
 90
       13
176
     1
 40
0.0
176
     1
 90
        0
176
     1
290
     0
176
     1
290
     1
176
     1
290
     1
176
     1
290
     0
176
     1
290
     0
176
     1
290
     0
176
     1
290
     0
176
     1
290
     0
176
     1
290
     0
176
     1
 90
       50
176
     1
 40
0.0
176
     1
 40
1.0
176
     1
 90
        0
176
     1
 62
    18
420
        0
176
     1
 90
       50
176
     1
 90
        3
176
     1
 62
     5
420
      255
176
     1
290
     0
176
     1
 90
       50
176
     1
 90
       50
176
     1
 90
       50
176
     1
290
     0
176
     1
 90
       50
176
     1
 62
   256
176
     0
 40
1.0
176
     0
 90
        2
176
     1
  1
strokes_ogs.tif
176
     1
290
     0
176
     1
 40
1.0
176
     1
 40
1.0
176
     1
  0
VISUALSTYLE
  5
3CC
102
{ACAD_REACTORS
330
3C8
102
}
330
3C8
100
AcDbVisualStyle
  2
GouraudWithEdges
 70
     3
177
     3
291
     1
 70
    58
 90
        2
176
     1
 90
        2
176
     1
 90
        1
176
     1
 90
        2
176
     1
 40
0.6
176
     1
 40
30.0
176
     1
 62
     7
420
 16777215
176
     1
 90
        1
176
     1
 90
        0
176
     1
 62
     7
176
     1
 62
   257
176
     1
 90
        1
176
     1
 90
        1
176
     1
 40
1.0
176
     1
 90
        0
176
     1
 62
   257
176
     1
 40
1.0
176
     1
 90
        1
176
     1
 90
        6
176
     1
 90
        2
176
     1
 62
     7
176
     1
 90
        5
176
     1
 90
        0
176
     1
 90
        0
176
     1
290
     0
176
     1
 90
       13
176
     1
 40
0.0
176
     1
 90
        0
176
     1
290
     0
176
     1
290
     1
176
     1
290
     1
176
     1
290
     0
176
     1
290
     0
176
     1
290
     0
176
     1
290
     0
176
     1
290
     0
176
     1
290
     0
176
     1
 90
       50
176
     1
 40
0.0
176
     1
 40
1.0
176
     1
 90
        0
176
     1
 62
    18
420
        0
176
     1
 90
       50
176
     1
 90
        3
176
     1
 62
     5
420
      255
176
     1
290
     0
176
     1
 90
       50
176
     1
 90
       50
176
     1
 90
       50
176
     1
290
     0
176
     1
 90
       50
176
     1
 62
   256
176
     0
 40
1.0
176
     0
 90
        2
176
     1
  1
strokes_ogs.tif
176
     1
290
     0
176
     1
 40
1.0
176
     1
 40
1.0
176
     1
  0
VISUALSTYLE
  5
3CF
102
{ACAD_REACTORS
330
3C8
102
}
330
3C8
100
AcDbVisualStyle
  2
Hidden
 70
     6
177
     3
291
     0
 70
    58
 90
        1
176
     1
 90
        2
176
     1
 90
        2
176
     1
 90
        0
176
     1
 40
0.6
176
     1
 40
30.0
176
     1
 62
     7
420
 16777215
176
     1
 90
        2
176
     1
 90
        2
176
     1
 62
     7
176
     1
 62
   257
176
     1
 90
        2
176
     1
 90
        1
176
     1
 40
40.0
176
     1
 90
        0
176
     1
 62
   257
176
     1
 40
1.0
176
     1
 90
        1
176
     1
 90
        6
176
     1
 90
        2
176
     1
 62
     7
176
     1
 90
        3
176
     1
 90
        0
176
     1
 90
        0
176
     1
290
     0
176
     1
 90
        1
176
     1
 40
0.0
176
     1
 90
        0
176
     1
290
     0
176
     1
290
     1
176
     1
290
     1
176
     1
290
     0
176
     1
290
     0
176
     1
290
     0
176
     1
290
     0
176
     1
290
     0
176
     1
290
     0
176
     1
 90
       50
176
     1
 40
0.0
176
     1
 40
1.0
176
     1
 90
        0
176
     1
 62
    18
420
        0
176
     1
 90
       50
176
     1
 90
        3
176
     1
 62
     5
420
      255
176
     1
290
     0
176
     1
 90
       50
176
     1
 90
       50
176
     1
 90
       50
176
     1
290
     0
176
     1
 90
       50
176
     1
 62
   256
176
     0
 40
1.0
176
     0
 90
        2
176
     1
  1
strokes_ogs.tif
176
     1
290
     0
176
     1
 40
1.0
176
     1
 40
1.0
176
     1
  0
VISUALSTYLE
  5
3D9
102
{ACAD_REACTORS
330
3C8
102
}
330
3C8
100
AcDbVisualStyle
  2
JitterOff
 70
    20
177
     3
291
     1
 70
    58
 90
        2
176
     0
 90
        2
176
     0
 90
        0
176
     0
 90
        0
176
     0
 40
0.6
176
     0
 40
30.0
176
     0
 62
     7
420
 16777215
176
     0
 90
        1
176
     0
 90
        4
176
     0
 62
     7
176
     0
 62
   257
176
     0
 90
        1
176
     0
 90
        1
176
     0
 40
1.0
176
     0
 90
       10
176
     2
 62
     7
176
     0
 40
1.0
176
     0
 90
        1
176
     0
 90
        6
176
     0
 90
        2
176
     0
 62
     7
176
     0
 90
        5
176
     0
 90
        0
176
     0
 90
        0
176
     0
290
     0
176
     0
 90
        1
176
     0
 40
0.0
176
     0
 90
        0
176
     0
290
     0
176
     0
290
     1
176
     0
290
     1
176
     0
290
     0
176
     0
290
     0
176
     0
290
     0
176
     0
290
     0
176
     0
290
     0
176
     0
290
     0
176
     0
 90
       50
176
     0
 40
0.0
176
     0
 40
1.0
176
     0
 90
        0
176
     0
 62
    18
420
        0
176
     0
 90
       50
176
     0
 90
        3
176
     0
 62
     5
420
      255
176
     0
290
     0
176
     0
 90
       50
176
     0
 90
       50
176
     0
 90
       50
176
     0
290
     0
176
     0
 90
       50
176
     0
 62
   256
176
     0
 40
1.0
176
     0
 90
        2
176
     0
  1
strokes_ogs.tif
176
     0
290
     0
176
     0
 40
1.0
176
     0
 40
1.0
176
     0
  0
VISUALSTYLE
  5
3D6
102
{ACAD_REACTORS
330
3C8
102
}
330
3C8
100
AcDbVisualStyle
  2
Linepattern
 70
    14
177
     3
291
     1
 70
    58
 90
        2
176
     1
 90
        2
176
     1
 90
        0
176
     1
 90
        0
176
     1
 40
0.6
176
     1
 40
30.0
176
     1
 62
     7
420
 16777215
176
     1
 90
        1
176
     1
 90
        4
176
     1
 62
     7
176
     1
 62
   257
176
     1
 90
        7
176
     1
 90
        7
176
     1
 40
1.0
176
     1
 90
        8
176
     1
 62
     7
176
     1
 40
1.0
176
     1
 90
        1
176
     1
 90
        6
176
     1
 90
        2
176
     1
 62
     7
176
     1
 90
        5
176
     1
 90
        0
176
     1
 90
        0
176
     1
290
     0
176
     1
 90
        1
176
     1
 40
0.0
176
     1
 90
        0
176
     1
290
     0
176
     1
290
     1
176
     1
290
     1
176
     1
290
     0
176
     1
290
     0
176
     1
290
     0
176
     1
290
     0
176
     1
290
     0
176
     1
290
     0
176
     1
 90
       50
176
     1
 40
0.0
176
     1
 40
1.0
176
     1
 90
        0
176
     1
 62
    18
420
        0
176
     1
 90
       50
176
     1
 90
        3
176
     1
 62
     5
420
      255
176
     1
290
     0
176
     1
 90
       50
176
     1
 90
       50
176
     1
 90
       50
176
     1
290
     0
176
     1
 90
       50
176
     1
 62
   256
176
     0
 40
1.0
176
     0
 90
        2
176
     1
  1
strokes_ogs.tif
176
     1
290
     0
176
     1
 40
1.0
176
     1
 40
1.0
176
     1
  0
VISUALSTYLE
  5
3DA
102
{ACAD_REACTORS
330
3C8
102
}
330
3C8
100
AcDbVisualStyle
  2
OverhangOff
 70
    21
177
     3
291
     1
 70
    58
 90
        2
176
     0
 90
        2
176
     0
 90
        0
176
     0
 90
        0
176
     0
 40
0.6
176
     0
 40
30.0
176
     0
 62
     7
420
 16777215
176
     0
 90
        1
176
     0
 90
        4
176
     0
 62
     7
176
     0
 62
   257
176
     0
 90
        1
176
     0
 90
        1
176
     0
 40
1.0
176
     0
 90
        9
176
     2
 62
     7
176
     0
 40
1.0
176
     0
 90
        1
176
     0
 90
        6
176
     0
 90
        2
176
     0
 62
     7
176
     0
 90
        5
176
     0
 90
        0
176
     0
 90
        0
176
     0
290
     0
176
     0
 90
        1
176
     0
 40
0.0
176
     0
 90
        0
176
     0
290
     0
176
     0
290
     1
176
     0
290
     1
176
     0
290
     0
176
     0
290
     0
176
     0
290
     0
176
     0
290
     0
176
     0
290
     0
176
     0
290
     0
176
     0
 90
       50
176
     0
 40
0.0
176
     0
 40
1.0
176
     0
 90
        0
176
     0
 62
    18
420
        0
176
     0
 90
       50
176
     0
 90
        3
176
     0
 62
     5
420
      255
176
     0
290
     0
176
     0
 90
       50
176
     0
 90
       50
176
     0
 90
       50
176
     0
290
     0
176
     0
 90
       50
176
     0
 62
   256
176
     0
 40
1.0
176
     0
 90
        2
176
     0
  1
strokes_ogs.tif
176
     0
290
     0
176
     0
 40
1.0
176
     0
 40
1.0
176
     0
  0
VISUALSTYLE
  5
3D1
102
{ACAD_REACTORS
330
3C8
102
}
330
3C8
100
AcDbVisualStyle
  2
Realistic
 70
     8
177
     3
291
     0
 70
    58
 90
        2
176
     1
 90
        3
176
     1
 90
        0
176
     1
 90
        2
176
     1
 40
0.6
176
     1
 40
30.0
176
     1
 62
     7
420
 16777215
176
     1
 90
        0
176
     1
 90
        0
176
     1
 62
     7
176
     1
 62
   257
176
     1
 90
        1
176
     1
 90
        1
176
     1
 40
1.0
176
     1
 90
        8
176
     1
 62
   257
176
     1
 40
1.0
176
     1
 90
        1
176
     1
 90
        6
176
     1
 90
        2
176
     1
 62
     7
176
     1
 90
        3
176
     1
 90
        0
176
     1
 90
        0
176
     1
290
     0
176
     1
 90
       13
176
     1
 40
0.0
176
     1
 90
        0
176
     1
290
     0
176
     1
290
     1
176
     1
290
     1
176
     1
290
     0
176
     1
290
     0
176
     1
290
     0
176
     1
290
     0
176
     1
290
     0
176
     1
290
     0
176
     1
 90
       50
176
     1
 40
0.0
176
     1
 40
1.0
176
     1
 90
        0
176
     1
 62
    18
420
        0
176
     1
 90
       50
176
     1
 90
        3
176
     1
 62
     5
420
      255
176
     1
290
     0
176
     1
 90
       50
176
     1
 90
       50
176
     1
 90
       50
176
     1
290
     0
176
     1
 90
       50
176
     1
 62
   256
176
     0
 40
1.0
176
     0
 90
        2
176
     1
  1
strokes_ogs.tif
176
     1
290
     0
176
     1
 40
1.0
176
     1
 40
1.0
176
     1
  0
VISUALSTYLE
  5
3E0
102
{ACAD_REACTORS
330
3C8
102
}
330
3C8
100
AcDbVisualStyle
  2
Shaded
 70
    27
177
     3
291
     0
 70
    58
 90
        2
176
     1
 90
        2
176
     1
 90
        1
176
     1
 90
        2
176
     1
 40
0.6
176
     1
 40
30.0
176
     1
 62
     7
420
 16777215
176
     1
 90
        0
176
     1
 90
        4
176
     1
 62
     7
176
     1
 62
   257
176
     1
 90
        1
176
     1
 90
        1
176
     1
 40
1.0
176
     1
 90
        8
176
     1
 62
   257
176
     1
 40
1.0
176
     1
 90
        1
176
     1
 90
        6
176
     1
 90
        2
176
     1
 62
     8
420
  7895160
176
     1
 90
        3
176
     1
 90
        0
176
     1
 90
        0
176
     1
290
     0
176
     1
 90
        5
176
     1
 40
0.0
176
     1
 90
        0
176
     1
290
     0
176
     1
290
     1
176
     1
290
     1
176
     1
290
     0
176
     1
290
     0
176
     1
290
     0
176
     1
290
     0
176
     1
290
     0
176
     1
290
     0
176
     1
 90
       50
176
     1
 40
0.0
176
     1
 40
1.0
176
     1
 90
        0
176
     1
 62
    18
420
        0
176
     1
 90
       50
176
     1
 90
        3
176
     1
 62
     5
420
      255
176
     1
290
     0
176
     1
 90
       50
176
     1
 90
       50
176
     1
 90
       50
176
     1
290
     0
176
     1
 90
       50
176
     1
 62
   256
176
     0
 40
1.0
176
     0
 90
        2
176
     1
  1
strokes_ogs.tif
176
     1
290
     0
176
     1
 40
1.0
176
     1
 40
1.0
176
     1
  0
VISUALSTYLE
  5
3DF
102
{ACAD_REACTORS
330
3C8
102
}
330
3C8
100
AcDbVisualStyle
  2
Shaded with edges
 70
    26
177
     3
291
     0
 70
    58
 90
        2
176
     1
 90
        2
176
     1
 90
        1
176
     1
 90
        2
176
     1
 40
0.6
176
     1
 40
30.0
176
     1
 62
     7
420
 16777215
176
     1
 90
        1
176
     1
 90
       10
176
     1
 62
     7
176
     1
 62
   257
176
     1
 90
        2
176
     1
 90
        1
176
     1
 40
1.0
176
     1
 90
        8
176
     1
 62
   257
176
     1
 40
1.0
176
     1
 90
        1
176
     1
 90
        6
176
     1
 90
        2
176
     1
 62
     7
176
     1
 90
        3
176
     1
 90
        0
176
     1
 90
        0
176
     1
290
     0
176
     1
 90
        5
176
     1
 40
0.0
176
     1
 90
        0
176
     1
290
     0
176
     1
290
     1
176
     1
290
     1
176
     1
290
     0
176
     1
290
     0
176
     1
290
     0
176
     1
290
     0
176
     1
290
     0
176
     1
290
     0
176
     1
 90
       50
176
     1
 40
0.0
176
     1
 40
1.0
176
     1
 90
        0
176
     1
 62
    18
420
        0
176
     1
 90
       50
176
     1
 90
        3
176
     1
 62
     5
420
      255
176
     1
290
     0
176
     1
 90
       50
176
     1
 90
       50
176
     1
 90
       50
176
     1
290
     0
176
     1
 90
       50
176
     1
 62
   256
176
     0
 40
1.0
176
     0
 90
        2
176
     1
  1
strokes_ogs.tif
176
     1
290
     0
176
     1
 40
1.0
176
     1
 40
1.0
176
     1
  0
VISUALSTYLE
  5
3DC
102
{ACAD_REACTORS
330
3C8
102
}
330
3C8
100
AcDbVisualStyle
  2
Shades of Gray
 70
    23
177
     3
291
     0
 70
    58
 90
        2
176
     1
 90
        2
176
     1
 90
        3
176
     1
 90
        0
176
     1
 40
0.6
176
     1
 40
30.0
176
     1
 62
     7
420
 16777215
176
     1
 90
        2
176
     1
 90
        2
176
     1
 62
     7
176
     1
 62
     7
176
     1
 90
        1
176
     1
 90
        1
176
     1
 40
40.0
176
     1
 90
        8
176
     1
 62
     7
176
     1
 40
1.0
176
     1
 90
        1
176
     1
 90
        6
176
     1
 90
        2
176
     1
 62
     7
176
     1
 90
        3
176
     1
 90
        0
176
     1
 90
        0
176
     1
290
     0
176
     1
 90
        1
176
     1
 40
0.0
176
     1
 90
        0
176
     1
290
     0
176
     1
290
     1
176
     1
290
     1
176
     1
290
     0
176
     1
290
     0
176
     1
290
     0
176
     1
290
     0
176
     1
290
     0
176
     1
290
     0
176
     1
 90
       50
176
     1
 40
0.0
176
     1
 40
1.0
176
     1
 90
        0
176
     1
 62
    18
420
        0
176
     1
 90
       50
176
     1
 90
        3
176
     1
 62
     5
420
      255
176
     1
290
     0
176
     1
 90
       50
176
     1
 90
       50
176
     1
 90
       50
176
     1
290
     0
176
     1
 90
       50
176
     1
 62
   256
176
     0
 40
1.0
176
     0
 90
        2
176
     1
  1
strokes_ogs.tif
176
     1
290
     0
176
     1
 40
1.0
176
     1
 40
1.0
176
     1
  0
VISUALSTYLE
  5
3DD
102
{ACAD_REACTORS
330
3C8
102
}
330
3C8
100
AcDbVisualStyle
  2
Sketchy
 70
    24
177
     3
291
     0
 70
    58
 90
        1
176
     1
 90
        2
176
     1
 90
        2
176
     1
 90
        0
176
     1
 40
0.6
176
     1
 40
30.0
176
     1
 62
     7
420
 16777215
176
     1
 90
        2
176
     1
 90
        2
176
     1
 62
     7
176
     1
 62
     7
176
     1
 90
        1
176
     1
 90
        1
176
     1
 40
40.0
176
     1
 90
       11
176
     1
 62
     7
176
     1
 40
1.0
176
     1
 90
        1
176
     1
 90
        6
176
     1
 90
        2
176
     1
 62
     7
176
     1
 90
        6
176
     1
 90
        0
176
     1
 90
        0
176
     1
290
     0
176
     1
 90
        1
176
     1
 40
0.0
176
     1
 90
        0
176
     1
290
     0
176
     1
290
     1
176
     1
290
     1
176
     1
290
     0
176
     1
290
     0
176
     1
290
     0
176
     1
290
     0
176
     1
290
     0
176
     1
290
     0
176
     1
 90
       50
176
     1
 40
0.0
176
     1
 40
1.0
176
     1
 90
        0
176
     1
 62
    18
420
        0
176
     1
 90
       50
176
     1
 90
        3
176
     1
 62
     5
420
      255
176
     1
290
     0
176
     1
 90
       50
176
     1
 90
       50
176
     1
 90
       50
176
     1
290
     0
176
     1
 90
       50
176
     1
 62
   256
176
     0
 40
1.0
176
     0
 90
        2
176
     1
  1
strokes_ogs.tif
176
     1
290
     0
176
     1
 40
1.0
176
     1
 40
1.0
176
     1
  0
VISUALSTYLE
  5
3D5
102
{ACAD_REACTORS
330
3C8
102
}
330
3C8
100
AcDbVisualStyle
  2
Thicken
 70
    13
177
     3
291
     1
 70
    58
 90
        2
176
     1
 90
        2
176
     1
 90
        0
176
     1
 90
        0
176
     1
 40
0.6
176
     1
 40
30.0
176
     1
 62
     7
420
 16777215
176
     1
 90
        1
176
     1
 90
        4
176
     1
 62
     7
176
     1
 62
   257
176
     1
 90
        1
176
     1
 90
        1
176
     1
 40
1.0
176
     1
 90
       12
176
     1
 62
     7
176
     1
 40
1.0
176
     1
 90
        1
176
     1
 90
        6
176
     1
 90
        2
176
     1
 62
     7
176
     1
 90
        5
176
     1
 90
        0
176
     1
 90
        0
176
     1
290
     0
176
     1
 90
        1
176
     1
 40
0.0
176
     1
 90
        0
176
     1
290
     0
176
     1
290
     1
176
     1
290
     1
176
     1
290
     0
176
     1
290
     0
176
     1
290
     0
176
     1
290
     0
176
     1
290
     0
176
     1
290
     0
176
     1
 90
       50
176
     1
 40
0.0
176
     1
 40
1.0
176
     1
 90
        0
176
     1
 62
    18
420
        0
176
     1
 90
       50
176
     1
 90
        3
176
     1
 62
     5
420
      255
176
     1
290
     0
176
     1
 90
       50
176
     1
 90
       50
176
     1
 90
       50
176
     1
290
     0
176
     1
 90
       50
176
     1
 62
   256
176
     0
 40
1.0
176
     0
 90
        2
176
     1
  1
strokes_ogs.tif
176
     1
290
     0
176
     1
 40
1.0
176
     1
 40
1.0
176
     1
  0
VISUALSTYLE
  5
3CE
102
{ACAD_REACTORS
330
3C8
102
}
330
3C8
100
AcDbVisualStyle
  2
Wireframe
 70
     5
177
     3
291
     0
 70
    58
 90
        0
176
     1
 90
        2
176
     1
 90
        0
176
     1
 90
        0
176
     1
 40
0.6
176
     1
 40
30.0
176
     1
 62
     7
420
 16777215
176
     1
 90
        1
176
     1
 90
        4
176
     1
 62
     7
176
     1
 62
   257
176
     1
 90
        1
176
     1
 90
        1
176
     1
 40
1.0
176
     1
 90
        0
176
     1
 62
   257
176
     1
 40
1.0
176
     1
 90
        1
176
     1
 90
        6
176
     1
 90
        2
176
     1
 62
     7
176
     1
 90
        3
176
     1
 90
        0
176
     1
 90
        0
176
     1
290
     0
176
     1
 90
        1
176
     1
 40
0.0
176
     1
 90
        0
176
     1
290
     0
176
     1
290
     1
176
     1
290
     1
176
     1
290
     0
176
     1
290
     0
176
     1
290
     0
176
     1
290
     0
176
     1
290
     0
176
     1
290
     0
176
     1
 90
       50
176
     1
 40
0.0
176
     1
 40
1.0
176
     1
 90
        0
176
     1
 62
    18
420
        0
176
     1
 90
       50
176
     1
 90
        3
176
     1
 62
     5
420
      255
176
     1
290
     0
176
     1
 90
       50
176
     1
 90
       50
176
     1
 90
       50
176
     1
290
     0
176
     1
 90
       50
176
     1
 62
   256
176
     0
 40
1.0
176
     0
 90
        2
176
     1
  1
strokes_ogs.tif
176
     1
290
     0
176
     1
 40
1.0
176
     1
 40
1.0
176
     1
  0
VISUALSTYLE
  5
3DE
102
{ACAD_REACTORS
330
3C8
102
}
330
3C8
100
AcDbVisualStyle
  2
X-Ray
 70
    25
177
     3
291
     0
 70
    58
 90
        2
176
     1
 90
        2
176
     1
 90
        1
176
     1
 90
        1
176
     1
 40
0.5
176
     1
 40
30.0
176
     1
 62
     7
420
 16777215
176
     1
 90
        1
176
     1
 90
        0
176
     1
 62
     7
176
     1
 62
   257
176
     1
 90
        1
176
     1
 90
        1
176
     1
 40
1.0
176
     1
 90
        8
176
     1
 62
     7
176
     1
 40
1.0
176
     1
 90
        1
176
     1
 90
        6
176
     1
 90
        2
176
     1
 62
     7
176
     1
 90
        3
176
     1
 90
        0
176
     1
 90
        0
176
     1
290
     0
176
     1
 90
       13
176
     1
 40
0.0
176
     1
 90
        0
176
     1
290
     0
176
     1
290
     1
176
     1
290
     1
176
     1
290
     0
176
     1
290
     0
176
     1
290
     0
176
     1
290
     0
176
     1
290
     0
176
     1
290
     0
176
     1
 90
       50
176
     1
 40
0.0
176
     1
 40
1.0
176
     1
 90
        0
176
     1
 62
    18
420
        0
176
     1
 90
       50
176
     1
 90
        3
176
     1
 62
     5
420
      255
176
     1
290
     0
176
     1
 90
       50
176
     1
 90
       50
176
     1
 90
       50
176
     1
290
     0
176
     1
 90
       50
176
     1
 62
   256
176
     0
 40
1.0
176
     0
 90
        2
176
     1
  1
strokes_ogs.tif
176
     1
290
     0
176
     1
 40
1.0
176
     1
 40
1.0
176
     1
  0
DICTIONARYVAR
  5
483
102
{ACAD_REACTORS
330
482
102
}
330
482
100
DictionaryVariables
280
     0
  1
1:1
  0
DICTIONARYVAR
  5
488
102
{ACAD_REACTORS
330
482
102
}
330
482
100
DictionaryVariables
280
     0
  1
Standard
  0
DICTIONARYVAR
  5
487
102
{ACAD_REACTORS
330
482
102
}
330
482
100
DictionaryVariables
280
     0
  1
Standard
  0
XRECORD
  5
40F
102
{ACAD_REACTORS
330
40D
102
}
330
40D
100
AcDbXrecord
280
     1
1000
#ffffff
  0
XRECORD
  5
410
102
{ACAD_REACTORS
330
40D
102
}
330
40D
100
AcDbXrecord
280
     1
1000
FullColor
  0
XRECORD
  5
411
102
{ACAD_REACTORS
330
40D
102
}
330
40D
100
AcDbXrecord
280
     1
290
     1
  0
XRECORD
  5
412
102
{ACAD_REACTORS
330
40D
102
}
330
40D
100
AcDbXrecord
280
     1
290
     1
  0
XRECORD
  5
413
102
{ACAD_REACTORS
330
40D
102
}
330
40D
100
AcDbXrecord
280
     1
290
     1
  0
XRECORD
  5
414
102
{ACAD_REACTORS
330
40D
102
}
330
40D
100
AcDbXrecord
280
     1
290
     1
  0
XRECORD
  5
415
102
{ACAD_REACTORS
330
40D
102
}
330
40D
100
AcDbXrecord
280
     1
1000
auto
  0
XRECORD
  5
416
102
{ACAD_REACTORS
330
40D
102
}
330
40D
100
AcDbXrecord
280
     1
1000
auto
  0
XRECORD
  5
417
102
{ACAD_REACTORS
330
40D
102
}
330
40D
100
AcDbXrecord
280
     1
1000
auto
  0
XRECORD
  5
418
102
{ACAD_REACTORS
330
40D
102
}
330
40D
100
AcDbXrecord
280
     1
1000
auto
  0
XRECORD
  5
419
102
{ACAD_REACTORS
330
40D
102
}
330
40D
100
AcDbXrecord
280
     1
1000
auto
  0
XRECORD
  5
41A
102
{ACAD_REACTORS
330
40D
102
}
330
40D
100
AcDbXrecord
280
     1
1000
auto
  0
XRECORD
  5
41B
102
{ACAD_REACTORS
330
40D
102
}
330
40D
100
AcDbXrecord
280
     1
1000
auto
  0
XRECORD
  5
41C
102
{ACAD_REACTORS
330
40D
102
}
330
40D
100
AcDbXrecord
280
     1
1000
auto
  0
XRECORD
  5
41D
102
{ACAD_REACTORS
330
40D
102
}
330
40D
100
AcDbXrecord
280
     1
290
     0
  0
XRECORD
  5
41E
102
{ACAD_REACTORS
330
40D
102
}
330
40D
100
AcDbXrecord
280
     1
290
     0
  0
XRECORD
  5
41F
102
{ACAD_REACTORS
330
40D
102
}
330
40D
100
AcDbXrecord
280
     1
290
     0
  0
XRECORD
  5
420
102
{ACAD_REACTORS
330
40D
102
}
330
40D
100
AcDbXrecord
280
     1
290
     0
  0
XRECORD
  5
421
102
{ACAD_REACTORS
330
40D
102
}
330
40D
100
AcDbXrecord
280
     1
 90
    65537
  0
XRECORD
  5
422
102
{ACAD_REACTORS
330
40D
102
}
330
40D
100
AcDbXrecord
280
     1
 90
    65537
  0
XRECORD
  5
423
102
{ACAD_REACTORS
330
40D
102
}
330
40D
100
AcDbXrecord
280
     1
 90
    65537
  0
XRECORD
  5
424
102
{ACAD_REACTORS
330
40D
102
}
330
40D
100
AcDbXrecord
280
     1
 90
    65537
  0
XRECORD
  5
425
102
{ACAD_REACTORS
330
40D
102
}
330
40D
100
AcDbXrecord
280
     1
1000
auto
  0
XRECORD
  5
426
102
{ACAD_REACTORS
330
40D
102
}
330
40D
100
AcDbXrecord
280
     1
1000
auto
  0
XRECORD
  5
427
102
{ACAD_REACTORS
330
40D
102
}
330
40D
100
AcDbXrecord
280
     1
1000
auto
  0
XRECORD
  5
428
102
{ACAD_REACTORS
330
40D
102
}
330
40D
100
AcDbXrecord
280
     1
1000
auto
  0
XRECORD
  5
429
102
{ACAD_REACTORS
330
40D
102
}
330
40D
100
AcDbXrecord
280
     1
1000
auto
  0
XRECORD
  5
42A
102
{ACAD_REACTORS
330
40D
102
}
330
40D
100
AcDbXrecord
280
     1
1000
auto
  0
XRECORD
  5
42B
102
{ACAD_REACTORS
330
40D
102
}
330
40D
100
AcDbXrecord
280
     1
1000
auto
  0
XRECORD
  5
42C
102
{ACAD_REACTORS
330
40D
102
}
330
40D
100
AcDbXrecord
280
     1
1000
auto
  0
XRECORD
  5
42D
102
{ACAD_REACTORS
330
40D
102
}
330
40D
100
AcDbXrecord
280
     1
 90
        1
  0
XRECORD
  5
42E
102
{ACAD_REACTORS
330
40D
102
}
330
40D
100
AcDbXrecord
280
     1
 40
10.0
  0
XRECORD
  5
42F
102
{ACAD_REACTORS
330
40D
102
}
330
40D
100
AcDbXrecord
280
     1
 40
10.0
  0
XRECORD
  5
430
102
{ACAD_REACTORS
330
40D
102
}
330
40D
100
AcDbXrecord
280
     1
 40
10.0
  0
XRECORD
  5
431
102
{ACAD_REACTORS
330
40D
102
}
330
40D
100
AcDbXrecord
280
     1
 40
10.0
  0
XRECORD
  5
432
102
{ACAD_REACTORS
330
40D
102
}
330
40D
100
AcDbXrecord
280
     1
290
     0
  0
XRECORD
  5
433
102
{ACAD_REACTORS
330
40D
102
}
330
40D
100
AcDbXrecord
280
     1
 90
        1
  0
XRECORD
  5
434
102
{ACAD_REACTORS
330
40D
102
}
330
40D
100
AcDbXrecord
280
     1
 40
0.0
  0
XRECORD
  5
435
102
{ACAD_REACTORS
330
40D
102
}
330
40D
100
AcDbXrecord
280
     1
 40
0.0
  0
XRECORD
  5
436
102
{ACAD_REACTORS
330
40D
102
}
330
40D
100
AcDbXrecord
280
     1
1000
Portrait
  0
XRECORD
  5
437
102
{ACAD_REACTORS
330
40D
102
}
330
40D
100
AcDbXrecord
280
     1
 40
297.0
  0
XRECORD
  5
438
102
{ACAD_REACTORS
330
40D
102
}
330
40D
100
AcDbXrecord
280
     1
 40
210.0
  0
XRECORD
  5
439
102
{ACAD_REACTORS
330
40D
102
}
330
40D
100
AcDbXrecord
280
     1
1000
1:1
  0
XRECORD
  5
43A
102
{ACAD_REACTORS
330
40D
102
}
330
40D
100
AcDbXrecord
280
     1
290
     1
  0
XRECORD
  5
43B
102
{ACAD_REACTORS
330
40D
102
}
330
40D
100
AcDbXrecord
280
     1
1000
3.21.2
  0
XRECORD
  5
43C
102
{ACAD_REACTORS
330
40D
102
}
330
40D
100
AcDbXrecord
280
     1
 90
        4
  0
XRECORD
  5
43D
102
{ACAD_REACTORS
330
40D
102
}
330
40D
100
AcDbXrecord
280
     1
  0
XRECORD
  5
43E
102
{ACAD_REACTORS
330
40D
102
}
330
40D
100
AcDbXrecord
280
     1
 40
306.9994322864825
  0
XRECORD
  5
43F
102
{ACAD_REACTORS
330
40D
102
}
330
40D
100
AcDbXrecord
280
     1
 40
617.1967753259493
  0
DICTIONARY
  5
484
330
408
100
AcDbDictionary
280
     1
281
     1
  3
ACAD_ROUNDTRIP_2008_TABLESTYLE_CELLSTYLEMAP
360
485
  0
CELLSTYLEMAP
  5
485
102
{ACAD_REACTORS
330
484
102
}
330
484
100
AcDbCellStyleMap
 90
        3
300
CELLSTYLE
  1
TABLEFORMAT_BEGIN
 90
        5
170
     1
 91
        0
 92
    32768
 62
   257
 93
        1
300
CONTENTFORMAT
  1
CONTENTFORMAT_BEGIN
 90
        0
 91
        0
 92
        4
 93
        0
300

 40
0.0
140
1.0
 94
        5
 62
     0
340
3B0
144
0.25
309
CONTENTFORMAT_END
171
     1
301
MARGIN
  1
CELLMARGIN_BEGIN
 40
0.06
 40
0.06
 40
0.06
 40
0.06
 40
0.06
 40
0.06
309
CELLMARGIN_END
 94
        6
 95
        1
302
GRIDFORMAT
  1
GRIDFORMAT_BEGIN
 90
        0
 91
        1
 62
     0
 92
       -2
340
3B2
 93
        0
 40
0.045
309
GRIDFORMAT_END
 95
        2
302
GRIDFORMAT
  1
GRIDFORMAT_BEGIN
 90
        0
 91
        1
 62
     0
 92
       -2
340
3B2
 93
        0
 40
0.045
309
GRIDFORMAT_END
 95
        4
302
GRIDFORMAT
  1
GRIDFORMAT_BEGIN
 90
        0
 91
        1
 62
     0
 92
       -2
340
3B2
 93
        0
 40
0.045
309
GRIDFORMAT_END
 95
        8
302
GRIDFORMAT
  1
GRIDFORMAT_BEGIN
 90
        0
 91
        1
 62
     0
 92
       -2
340
3B2
 93
        0
 40
0.045
309
GRIDFORMAT_END
 95
       16
302
GRIDFORMAT
  1
GRIDFORMAT_BEGIN
 90
        0
 91
        1
 62
     0
 92
       -2
340
3B2
 93
        0
 40
0.045
309
GRIDFORMAT_END
 95
       32
302
GRIDFORMAT
  1
GRIDFORMAT_BEGIN
 90
        0
 91
        1
 62
     0
 92
       -2
340
3B2
 93
        0
 40
0.045
309
GRIDFORMAT_END
309
TABLEFORMAT_END
  1
CELLSTYLE_BEGIN
 90
        1
 91
        1
300
_TITLE
309
CELLSTYLE_END
300
CELLSTYLE
  1
TABLEFORMAT_BEGIN
 90
        5
170
     1
 91
        0
 92
        0
 62
   257
 93
        1
300
CONTENTFORMAT
  1
CONTENTFORMAT_BEGIN
 90
        0
 91
        0
 92
        4
 93
        0
300

 40
0.0
140
1.0
 94
        5
 62
     0
340
3B0
144
0.18
309
CONTENTFORMAT_END
171
     1
301
MARGIN
  1
CELLMARGIN_BEGIN
 40
0.06
 40
0.06
 40
0.06
 40
0.06
 40
0.06
 40
0.06
309
CELLMARGIN_END
 94
        6
 95
        1
302
GRIDFORMAT
  1
GRIDFORMAT_BEGIN
 90
        0
 91
        1
 62
     0
 92
       -2
340
3B2
 93
        0
 40
0.045
309
GRIDFORMAT_END
 95
        2
302
GRIDFORMAT
  1
GRIDFORMAT_BEGIN
 90
        0
 91
        1
 62
     0
 92
       -2
340
3B2
 93
        0
 40
0.045
309
GRIDFORMAT_END
 95
        4
302
GRIDFORMAT
  1
GRIDFORMAT_BEGIN
 90
        0
 91
        1
 62
     0
 92
       -2
340
3B2
 93
        0
 40
0.045
309
GRIDFORMAT_END
 95
        8
302
GRIDFORMAT
  1
GRIDFORMAT_BEGIN
 90
        0
 91
        1
 62
     0
 92
       -2
340
3B2
 93
        0
 40
0.045
309
GRIDFORMAT_END
 95
       16
302
GRIDFORMAT
  1
GRIDFORMAT_BEGIN
 90
        0
 91
        1
 62
     0
 92
       -2
340
3B2
 93
        0
 40
0.045
309
GRIDFORMAT_END
 95
       32
302
GRIDFORMAT
  1
GRIDFORMAT_BEGIN
 90
        0
 91
        1
 62
     0
 92
       -2
340
3B2
 93
        0
 40
0.045
309
GRIDFORMAT_END
309
TABLEFORMAT_END
  1
CELLSTYLE_BEGIN
 90
        2
 91
        1
300
_HEADER
309
CELLSTYLE_END
300
CELLSTYLE
  1
TABLEFORMAT_BEGIN
 90
        5
170
     1
 91
        0
 92
        0
 62
   257
 93
        1
300
CONTENTFORMAT
  1
CONTENTFORMAT_BEGIN
 90
        0
 91
        0
 92
        4
 93
        0
300

 40
0.0
140
1.0
 94
        2
 62
     0
340
3B0
144
0.18
309
CONTENTFORMAT_END
171
     1
301
MARGIN
  1
CELLMARGIN_BEGIN
 40
0.06
 40
0.06
 40
0.06
 40
0.06
 40
0.06
 40
0.06
309
CELLMARGIN_END
 94
        6
 95
        1
302
GRIDFORMAT
  1
GRIDFORMAT_BEGIN
 90
        0
 91
        1
 62
     0
 92
       -2
340
3B2
 93
        0
 40
0.045
309
GRIDFORMAT_END
 95
        2
302
GRIDFORMAT
  1
GRIDFORMAT_BEGIN
 90
        0
 91
        1
 62
     0
 92
       -2
340
3B2
 93
        0
 40
0.045
309
GRIDFORMAT_END
 95
        4
302
GRIDFORMAT
  1
GRIDFORMAT_BEGIN
 90
        0
 91
        1
 62
     0
 92
       -2
340
3B2
 93
        0
 40
0.045
309
GRIDFORMAT_END
 95
        8
302
GRIDFORMAT
  1
GRIDFORMAT_BEGIN
 90
        0
 91
        1
 62
     0
 92
       -2
340
3B2
 93
        0
 40
0.045
309
GRIDFORMAT_END
 95
       16
302
GRIDFORMAT
  1
GRIDFORMAT_BEGIN
 90
        0
 91
        1
 62
     0
 92
       -2
340
3B2
 93
        0
 40
0.045
309
GRIDFORMAT_END
 95
       32
302
GRIDFORMAT
  1
GRIDFORMAT_BEGIN
 90
        0
 91
        1
 62
     0
 92
       -2
340
3B2
 93
        0
 40
0.045
309
GRIDFORMAT_END
309
TABLEFORMAT_END
  1
CELLSTYLE_BEGIN
 90
        3
 91
        2
300
_DATA
309
CELLSTYLE_END
  0
ENDSEC
  0
EOF
